<svg xmlns="http://www.w3.org/2000/svg" id="canvas" viewBox="222.683 335.024 862.120 139.142"><path d="M 257.18,338.47 C 256.47 339.15, 256.07 340.04, 255.39 342.20 C 254.72 344.37, 254.58 345.79, 253.83 349.29 C 253.07 352.78, 252.74 355.09, 251.63 359.68 C 250.51 364.28, 249.81 366.96, 248.26 372.25 C 246.70 377.54, 245.68 380.45, 243.85 386.13 C 242.01 391.80, 240.94 394.91, 239.07 400.62 C 237.21 406.32, 236.20 409.29, 234.53 414.64 C 232.85 419.99, 232.04 422.66, 230.70 427.38 C 229.36 432.10, 228.79 434.37, 227.85 438.23 C 226.90 442.10, 226.37 443.80, 225.98 446.71 C 225.58 449.62, 225.62 450.88, 225.89 452.77 C 226.15 454.67, 226.69 455.30, 227.30 456.19 C 227.90 457.08, 228.44 457.13, 228.91 457.21 C 229.38 457.28, 229.56 456.94, 229.65 456.57 C 229.74 456.20, 229.43 456.15, 229.36 455.36 C 229.28 454.57, 229.20 454.24, 229.29 452.61 C 229.38 450.97, 229.52 449.94, 229.82 447.19 C 230.13 444.44, 230.14 442.69, 230.82 438.86 C 231.49 435.03, 232.00 432.75, 233.19 428.05 C 234.38 423.34, 235.17 420.68, 236.78 415.33 C 238.39 409.99, 239.38 407.02, 241.25 401.33 C 243.11 395.64, 244.19 392.53, 246.10 386.87 C 248.01 381.21, 249.06 378.31, 250.80 373.04 C 252.53 367.78, 253.36 365.11, 254.78 360.55 C 256.19 355.99, 256.94 353.76, 257.86 350.25 C 258.77 346.73, 259.13 345.29, 259.35 343.00 C 259.58 340.71, 259.41 339.69, 258.98 338.79 C 258.54 337.88, 257.90 337.79, 257.18 338.47" style="stroke: black; fill: black;"/><path d="M 297.52,348.39 C 296.88 348.68, 296.64 348.93, 295.88 350.26 C 295.12 351.58, 294.49 352.35, 293.71 355.01 C 292.93 357.66, 292.94 359.58, 291.97 363.55 C 291.00 367.51, 290.37 370.01, 288.86 374.83 C 287.35 379.65, 286.29 382.43, 284.43 387.65 C 282.57 392.87, 281.49 395.71, 279.55 400.92 C 277.60 406.13, 276.53 408.85, 274.71 413.69 C 272.88 418.53, 271.98 420.93, 270.43 425.12 C 268.88 429.31, 268.16 431.27, 266.96 434.63 C 265.77 437.98, 265.15 439.51, 264.44 441.91 C 263.72 444.32, 263.59 445.23, 263.40 446.65 C 263.20 448.07, 263.37 448.41, 263.45 449.03 C 263.53 449.64, 263.63 449.54, 263.80 449.72 C 263.96 449.90, 264.01 449.96, 264.27 449.94 C 264.53 449.91, 264.64 450.05, 265.09 449.58 C 265.54 449.11, 265.89 448.89, 266.50 447.58 C 267.12 446.27, 267.45 445.43, 268.18 443.04 C 268.91 440.66, 269.17 439.05, 270.15 435.65 C 271.13 432.25, 271.69 430.26, 273.08 426.05 C 274.47 421.83, 275.34 419.42, 277.10 414.57 C 278.85 409.72, 279.91 407.00, 281.87 401.79 C 283.83 396.59, 284.92 393.76, 286.89 388.56 C 288.86 383.36, 289.97 380.58, 291.73 375.81 C 293.50 371.03, 294.29 368.55, 295.71 364.69 C 297.14 360.82, 298.09 359.16, 298.84 356.48 C 299.60 353.80, 299.43 352.80, 299.47 351.27 C 299.52 349.74, 299.46 349.41, 299.07 348.83 C 298.67 348.26, 298.15 348.11, 297.52 348.39" style="stroke: black; fill: black;"/><path d="M 234.67,413.00 C 235.21 413.51, 235.68 413.72, 237.27 413.91 C 238.86 414.10, 239.91 414.25, 242.61 413.96 C 245.31 413.66, 247.07 413.07, 250.78 412.44 C 254.50 411.82, 256.86 411.44, 261.21 410.83 C 265.55 410.23, 267.99 409.92, 272.51 409.42 C 277.03 408.92, 279.72 408.63, 283.80 408.34 C 287.88 408.05, 289.93 408.20, 292.90 407.95 C 295.86 407.69, 296.90 407.40, 298.62 407.06 C 300.34 406.71, 300.93 406.61, 301.50 406.21 C 302.08 405.82, 302.09 405.46, 301.49 405.08 C 300.89 404.69, 300.29 404.51, 298.52 404.29 C 296.75 404.07, 295.64 403.83, 292.63 403.97 C 289.63 404.11, 287.59 404.54, 283.49 404.99 C 279.40 405.45, 276.70 405.76, 272.16 406.24 C 267.63 406.72, 265.19 407.01, 260.81 407.40 C 256.44 407.79, 254.07 407.97, 250.30 408.20 C 246.53 408.44, 244.64 408.20, 241.95 408.57 C 239.25 408.94, 238.30 409.51, 236.82 410.07 C 235.34 410.62, 234.98 410.75, 234.55 411.34 C 234.12 411.92, 234.13 412.48, 234.67 413.00" style="stroke: black; fill: black;"/><path d="M 321.78,426.03 C 322.42 426.52, 323.04 426.69, 324.69 426.69 C 326.34 426.70, 327.52 426.76, 330.02 426.08 C 332.53 425.39, 334.18 424.63, 337.21 423.27 C 340.25 421.91, 342.03 420.94, 345.19 419.28 C 348.35 417.62, 350.11 416.71, 353.02 414.97 C 355.92 413.23, 357.52 412.42, 359.72 410.59 C 361.92 408.76, 362.90 407.74, 364.03 405.83 C 365.17 403.92, 365.57 402.84, 365.40 401.04 C 365.24 399.25, 364.79 398.15, 363.19 396.85 C 361.60 395.56, 360.30 394.78, 357.44 394.57 C 354.58 394.37, 352.73 394.78, 348.89 395.82 C 345.06 396.86, 342.67 397.72, 338.28 399.79 C 333.88 401.86, 331.31 403.31, 326.91 406.17 C 322.51 409.03, 320.06 410.84, 316.28 414.09 C 312.49 417.35, 310.58 419.16, 307.98 422.45 C 305.37 425.74, 304.27 427.43, 303.26 430.54 C 302.26 433.65, 302.22 435.30, 302.94 438.00 C 303.66 440.70, 304.52 442.15, 306.87 444.06 C 309.21 445.97, 311.05 446.63, 314.66 447.56 C 318.27 448.48, 320.48 448.60, 324.93 448.67 C 329.38 448.75, 331.94 448.56, 336.93 447.94 C 341.92 447.33, 345.13 446.62, 349.87 445.59 C 354.61 444.56, 357.10 443.94, 360.62 442.78 C 364.14 441.63, 366.20 440.71, 367.47 439.80 C 368.73 438.89, 368.49 438.23, 366.95 438.25 C 365.42 438.27, 363.34 439.02, 359.79 439.90 C 356.24 440.77, 353.86 441.60, 349.22 442.61 C 344.58 443.62, 341.41 444.39, 336.58 444.93 C 331.74 445.48, 329.23 445.56, 325.05 445.33 C 320.86 445.11, 318.81 444.71, 315.66 443.83 C 312.51 442.94, 311.18 442.26, 309.29 440.91 C 307.39 439.57, 306.72 438.96, 306.19 437.10 C 305.66 435.25, 305.78 434.20, 306.63 431.64 C 307.47 429.09, 308.12 427.41, 310.42 424.33 C 312.72 421.25, 314.53 419.39, 318.14 416.24 C 321.74 413.09, 324.17 411.29, 328.46 408.60 C 332.75 405.90, 335.32 404.52, 339.59 402.75 C 343.86 400.98, 346.28 400.43, 349.81 399.75 C 353.34 399.07, 354.93 399.35, 357.24 399.36 C 359.55 399.37, 360.31 399.43, 361.37 399.79 C 362.42 400.15, 362.61 400.38, 362.54 401.15 C 362.46 401.91, 362.12 402.43, 360.99 403.62 C 359.87 404.80, 358.96 405.54, 356.93 407.09 C 354.89 408.64, 353.57 409.70, 350.84 411.37 C 348.11 413.04, 346.37 413.98, 343.28 415.44 C 340.18 416.90, 338.33 417.60, 335.35 418.68 C 332.37 419.76, 330.69 420.03, 328.39 420.85 C 326.08 421.67, 325.19 422.09, 323.82 422.78 C 322.44 423.47, 321.90 423.64, 321.50 424.29 C 321.09 424.94, 321.14 425.55, 321.78 426.03" style="stroke: black; fill: black;"/><path d="M 427.13,353.04 C 426.32 353.48, 425.81 354.01, 424.65 355.90 C 423.48 357.80, 422.93 359.17, 421.32 362.51 C 419.70 365.85, 418.75 368.14, 416.57 372.60 C 414.38 377.06, 413.01 379.79, 410.38 384.80 C 407.75 389.80, 406.15 392.58, 403.42 397.62 C 400.69 402.65, 399.15 405.31, 396.73 409.98 C 394.31 414.65, 393.15 417.01, 391.31 420.97 C 389.46 424.93, 388.49 426.72, 387.50 429.80 C 386.52 432.87, 386.45 434.27, 386.40 436.34 C 386.35 438.40, 386.75 439.06, 387.25 440.12 C 387.74 441.19, 388.29 441.39, 388.88 441.67 C 389.47 441.94, 389.93 441.72, 390.18 441.49 C 390.43 441.25, 390.22 440.71, 390.15 440.49 C 390.08 440.26, 389.91 440.57, 389.82 440.36 C 389.74 440.15, 389.73 440.18, 389.72 439.43 C 389.70 438.68, 389.51 438.32, 389.75 436.60 C 390.00 434.88, 390.10 433.74, 390.94 430.84 C 391.78 427.95, 392.33 426.06, 393.94 422.12 C 395.55 418.18, 396.66 415.80, 398.99 411.14 C 401.32 406.47, 402.85 403.81, 405.59 398.80 C 408.34 393.78, 409.96 391.00, 412.72 386.06 C 415.48 381.12, 416.95 378.43, 419.40 374.10 C 421.85 369.76, 423.19 367.67, 424.96 364.37 C 426.73 361.07, 427.48 359.73, 428.23 357.61 C 428.98 355.48, 428.93 354.65, 428.71 353.74 C 428.49 352.83, 427.95 352.61, 427.13 353.04" style="stroke: black; fill: black;"/><path d="M 458.10,352.09 C 457.32 352.48, 456.92 352.95, 455.78 354.71 C 454.64 356.47, 454.06 357.69, 452.39 360.90 C 450.71 364.10, 449.72 366.38, 447.40 370.73 C 445.08 375.07, 443.59 377.78, 440.78 382.63 C 437.98 387.48, 436.25 390.12, 433.38 394.98 C 430.51 399.85, 428.92 402.45, 426.43 406.96 C 423.95 411.46, 422.78 413.67, 420.96 417.49 C 419.13 421.30, 418.20 422.99, 417.29 426.04 C 416.38 429.09, 416.23 430.51, 416.40 432.73 C 416.56 434.94, 417.31 435.84, 418.10 437.11 C 418.89 438.38, 419.51 438.66, 420.35 439.08 C 421.20 439.49, 421.83 439.43, 422.31 439.19 C 422.79 438.96, 422.85 438.33, 422.74 437.90 C 422.64 437.47, 422.18 437.50, 421.80 437.05 C 421.41 436.59, 421.22 436.52, 420.82 435.62 C 420.42 434.73, 419.82 434.29, 419.81 432.58 C 419.81 430.86, 420.01 429.82, 420.77 427.04 C 421.53 424.27, 422.05 422.46, 423.63 418.69 C 425.22 414.92, 426.33 412.67, 428.71 408.19 C 431.09 403.70, 432.65 401.10, 435.53 396.26 C 438.41 391.42, 440.16 388.79, 443.10 384.01 C 446.04 379.23, 447.64 376.57, 450.23 372.35 C 452.82 368.13, 454.25 366.09, 456.07 362.91 C 457.88 359.72, 458.57 358.46, 459.29 356.43 C 460.01 354.40, 459.90 353.63, 459.66 352.76 C 459.42 351.89, 458.87 351.70, 458.10 352.09" style="stroke: black; fill: black;"/><path d="M 502.52,401.57 C 502.37 400.76, 501.91 400.00, 500.72 399.14 C 499.52 398.28, 498.60 397.71, 496.56 397.28 C 494.51 396.85, 493.10 396.62, 490.49 396.99 C 487.88 397.37, 486.42 397.88, 483.52 399.16 C 480.63 400.45, 479.03 401.41, 476.01 403.40 C 472.99 405.39, 471.24 406.63, 468.43 409.10 C 465.62 411.56, 464.09 413.02, 461.97 415.73 C 459.84 418.43, 458.77 419.91, 457.81 422.62 C 456.85 425.33, 456.67 426.87, 457.16 429.29 C 457.66 431.71, 458.38 432.97, 460.28 434.73 C 462.17 436.48, 463.61 437.33, 466.64 438.07 C 469.68 438.81, 471.65 438.72, 475.45 438.42 C 479.24 438.12, 481.48 437.67, 485.62 436.57 C 489.75 435.47, 492.04 434.67, 496.12 432.92 C 500.20 431.16, 502.39 430.07, 506.01 427.79 C 509.62 425.51, 511.42 424.12, 514.19 421.50 C 516.95 418.87, 518.25 417.42, 519.82 414.66 C 521.39 411.90, 521.83 410.32, 522.03 407.72 C 522.23 405.11, 521.87 403.73, 520.82 401.62 C 519.78 399.52, 518.74 398.55, 516.81 397.19 C 514.87 395.83, 513.47 395.31, 511.14 394.82 C 508.82 394.33, 507.22 394.53, 505.17 394.75 C 503.13 394.97, 502.25 395.33, 500.92 395.91 C 499.59 396.49, 499.15 396.94, 498.52 397.66 C 497.90 398.39, 497.85 398.83, 497.80 399.56 C 497.75 400.29, 497.96 400.90, 498.27 401.30 C 498.58 401.69, 498.93 401.90, 499.33 401.56 C 499.74 401.22, 500.19 400.08, 500.31 399.60 C 500.44 399.12, 500.10 399.11, 499.96 399.16 C 499.82 399.21, 499.58 399.65, 499.61 399.83 C 499.64 400.00, 499.65 400.04, 500.12 400.03 C 500.59 400.02, 500.90 399.86, 501.97 399.78 C 503.05 399.71, 503.82 399.69, 505.49 399.67 C 507.16 399.65, 508.49 399.46, 510.31 399.69 C 512.12 399.91, 513.14 400.06, 514.58 400.79 C 516.03 401.52, 516.80 402.03, 517.55 403.34 C 518.29 404.65, 518.54 405.48, 518.31 407.35 C 518.07 409.23, 517.67 410.37, 516.36 412.70 C 515.05 415.03, 514.16 416.54, 511.74 419.01 C 509.32 421.48, 507.64 422.87, 504.26 425.06 C 500.88 427.24, 498.75 428.30, 494.85 429.92 C 490.95 431.54, 488.70 432.26, 484.77 433.15 C 480.85 434.05, 478.65 434.32, 475.23 434.40 C 471.81 434.48, 470.18 434.09, 467.67 433.56 C 465.17 433.04, 464.12 432.76, 462.71 431.78 C 461.29 430.80, 460.82 430.21, 460.61 428.67 C 460.40 427.14, 460.73 426.21, 461.65 424.13 C 462.56 422.05, 463.32 420.67, 465.20 418.27 C 467.09 415.87, 468.46 414.38, 471.07 412.13 C 473.68 409.87, 475.40 408.69, 478.26 407.00 C 481.12 405.31, 482.79 404.65, 485.38 403.67 C 487.97 402.68, 489.14 402.35, 491.20 402.07 C 493.27 401.79, 494.16 402.09, 495.73 402.27 C 497.29 402.44, 497.87 402.75, 499.01 402.94 C 500.16 403.13, 500.77 403.49, 501.47 403.22 C 502.17 402.95, 502.67 402.39, 502.52 401.57" style="stroke: black; fill: black;"/><path d="M 652.14,394.20 C 651.40 394.36, 650.98 394.64, 649.92 395.82 C 648.86 397.01, 648.07 397.81, 646.83 400.12 C 645.59 402.42, 645.07 404.20, 643.73 407.35 C 642.39 410.51, 641.58 412.49, 640.11 415.89 C 638.65 419.29, 637.73 421.16, 636.40 424.36 C 635.07 427.56, 634.18 429.13, 633.46 431.91 C 632.74 434.68, 632.61 436.05, 632.79 438.22 C 632.98 440.39, 633.33 441.39, 634.40 442.74 C 635.46 444.10, 636.32 444.64, 638.12 444.97 C 639.93 445.30, 641.11 445.22, 643.40 444.38 C 645.69 443.54, 646.97 442.69, 649.59 440.77 C 652.20 438.86, 653.57 437.43, 656.48 434.83 C 659.39 432.22, 661.09 430.59, 664.15 427.75 C 667.21 424.91, 668.95 423.21, 671.77 420.63 C 674.58 418.05, 676.25 416.89, 678.23 414.84 C 680.22 412.79, 681.02 411.51, 681.70 410.39 C 682.38 409.26, 682.11 408.86, 681.62 409.21 C 681.13 409.56, 680.25 410.35, 679.26 412.13 C 678.27 413.92, 677.57 415.36, 676.67 418.13 C 675.78 420.91, 675.36 422.91, 674.79 426.00 C 674.22 429.08, 673.81 430.80, 673.80 433.57 C 673.80 436.35, 673.98 437.68, 674.77 439.87 C 675.56 442.06, 676.13 443.09, 677.77 444.53 C 679.41 445.97, 680.55 446.57, 682.96 447.06 C 685.38 447.54, 686.92 447.60, 689.85 446.95 C 692.78 446.30, 694.40 445.47, 697.61 443.80 C 700.82 442.13, 702.57 441.00, 705.92 438.62 C 709.26 436.23, 711.08 434.75, 714.35 431.87 C 717.62 428.99, 719.33 427.30, 722.25 424.19 C 725.18 421.09, 726.62 419.36, 728.96 416.33 C 731.31 413.31, 732.44 411.76, 733.98 409.07 C 735.53 406.37, 736.03 405.00, 736.71 402.85 C 737.39 400.70, 737.35 399.74, 737.38 398.33 C 737.41 396.93, 737.16 396.52, 736.85 395.83 C 736.54 395.14, 736.29 395.00, 735.82 394.88 C 735.36 394.75, 734.84 394.99, 734.53 395.21 C 734.22 395.44, 733.94 395.95, 734.27 395.99 C 734.60 396.04, 735.88 395.56, 736.16 395.45 C 736.44 395.35, 735.95 395.42, 735.68 395.46 C 735.41 395.51, 735.04 395.55, 734.80 395.70 C 734.55 395.85, 734.58 395.76, 734.45 396.21 C 734.32 396.66, 734.43 396.86, 734.14 397.93 C 733.86 399.00, 733.78 399.71, 733.04 401.55 C 732.31 403.38, 731.84 404.56, 730.46 407.10 C 729.09 409.64, 728.29 411.28, 726.17 414.26 C 724.05 417.23, 722.67 418.94, 719.87 421.96 C 717.07 424.99, 715.37 426.64, 712.17 429.37 C 708.98 432.10, 707.15 433.50, 703.88 435.63 C 700.60 437.76, 698.83 438.71, 695.81 440.02 C 692.78 441.32, 691.22 441.60, 688.76 442.17 C 686.31 442.74, 685.26 442.95, 683.53 442.88 C 681.80 442.80, 681.12 442.61, 680.10 441.79 C 679.08 440.97, 678.76 440.37, 678.43 438.78 C 678.10 437.19, 678.16 436.16, 678.44 433.84 C 678.73 431.52, 679.07 429.97, 679.87 427.18 C 680.66 424.39, 681.64 422.63, 682.43 419.88 C 683.21 417.13, 683.63 415.61, 683.77 413.42 C 683.92 411.23, 683.89 409.98, 683.16 408.93 C 682.42 407.89, 681.69 407.65, 680.09 408.20 C 678.50 408.74, 677.34 409.70, 675.17 411.66 C 672.99 413.61, 671.91 415.29, 669.22 417.97 C 666.53 420.66, 664.78 422.33, 661.72 425.09 C 658.66 427.85, 656.91 429.44, 653.92 431.77 C 650.94 434.11, 649.29 435.12, 646.80 436.78 C 644.30 438.43, 643.15 439.09, 641.44 440.05 C 639.74 441.02, 639.21 441.41, 638.27 441.62 C 637.34 441.82, 637.13 441.76, 636.77 441.08 C 636.41 440.40, 636.30 439.82, 636.48 438.22 C 636.66 436.62, 636.95 435.55, 637.69 433.08 C 638.43 430.62, 638.93 428.99, 640.17 425.90 C 641.41 422.80, 642.30 420.90, 643.87 417.60 C 645.45 414.31, 646.47 412.42, 648.06 409.41 C 649.65 406.41, 650.74 404.93, 651.81 402.58 C 652.88 400.23, 653.04 399.17, 653.40 397.66 C 653.76 396.16, 653.86 395.73, 653.61 395.04 C 653.35 394.35, 652.88 394.05, 652.14 394.20" style="stroke: black; fill: black;"/><path d="M 801.62,403.63 C 801.50 402.78, 801.06 401.98, 799.87 400.92 C 798.67 399.86, 797.80 399.10, 795.65 398.32 C 793.50 397.55, 792.00 397.02, 789.11 397.06 C 786.21 397.09, 784.57 397.53, 781.20 398.50 C 777.82 399.47, 775.91 400.19, 772.24 401.91 C 768.57 403.63, 766.45 404.73, 762.86 407.08 C 759.27 409.44, 757.32 410.92, 754.28 413.69 C 751.24 416.45, 749.70 417.99, 747.66 420.89 C 745.62 423.78, 744.68 425.35, 744.09 428.17 C 743.49 430.98, 743.68 432.56, 744.70 434.97 C 745.71 437.38, 746.75 438.66, 749.17 440.20 C 751.59 441.74, 753.36 442.23, 756.80 442.68 C 760.24 443.13, 762.36 442.97, 766.38 442.45 C 770.40 441.93, 772.70 441.41, 776.88 440.09 C 781.06 438.76, 783.34 437.78, 787.29 435.82 C 791.25 433.86, 793.30 432.69, 796.66 430.30 C 800.02 427.92, 801.60 426.57, 804.08 423.89 C 806.56 421.22, 807.70 419.69, 809.06 416.93 C 810.42 414.16, 810.70 412.63, 810.87 410.08 C 811.05 407.53, 810.71 406.20, 809.93 404.19 C 809.15 402.17, 808.22 401.17, 806.98 400.00 C 805.73 398.84, 804.81 398.63, 803.70 398.35 C 802.59 398.07, 801.94 398.29, 801.41 398.60 C 800.88 398.92, 800.87 399.43, 801.05 399.94 C 801.23 400.45, 801.69 400.55, 802.30 401.14 C 802.90 401.72, 803.28 401.96, 804.07 402.87 C 804.86 403.77, 805.68 404.28, 806.26 405.66 C 806.85 407.04, 807.18 407.88, 807.00 409.77 C 806.82 411.67, 806.48 412.79, 805.36 415.13 C 804.25 417.48, 803.54 419.02, 801.41 421.52 C 799.29 424.02, 797.85 425.36, 794.74 427.65 C 791.63 429.93, 789.64 431.09, 785.87 432.94 C 782.11 434.79, 779.88 435.72, 775.90 436.88 C 771.92 438.03, 769.69 438.42, 765.98 438.74 C 762.27 439.05, 760.32 438.88, 757.37 438.46 C 754.43 438.04, 753.15 437.62, 751.25 436.64 C 749.36 435.66, 748.61 435.09, 747.91 433.57 C 747.22 432.05, 747.21 431.14, 747.77 429.03 C 748.33 426.92, 748.95 425.58, 750.72 423.02 C 752.49 420.46, 753.81 418.84, 756.61 416.23 C 759.41 413.62, 761.30 412.16, 764.73 409.98 C 768.16 407.80, 770.24 406.77, 773.75 405.32 C 777.25 403.86, 779.18 403.34, 782.24 402.71 C 785.30 402.08, 786.68 402.10, 789.06 402.18 C 791.43 402.27, 792.38 402.68, 794.12 403.15 C 795.85 403.61, 796.46 404.09, 797.72 404.50 C 798.99 404.91, 799.66 405.36, 800.44 405.19 C 801.21 405.01, 801.73 404.49, 801.62 403.63" style="stroke: black; fill: black;"/><path d="M 844.67,404.15 C 843.88 404.41, 843.45 404.93, 842.31 406.22 C 841.16 407.52, 840.36 408.43, 838.92 410.61 C 837.48 412.79, 836.71 414.49, 835.10 417.14 C 833.50 419.80, 832.48 421.36, 830.90 423.90 C 829.32 426.44, 828.34 427.79, 827.22 429.83 C 826.11 431.86, 825.62 432.84, 825.33 434.08 C 825.04 435.32, 825.22 435.82, 825.77 436.04 C 826.33 436.26, 827.01 436.15, 828.11 435.18 C 829.20 434.21, 829.93 433.27, 831.25 431.20 C 832.56 429.12, 833.00 427.47, 834.70 424.80 C 836.39 422.13, 837.41 420.51, 839.71 417.85 C 842.01 415.19, 843.46 413.79, 846.19 411.49 C 848.92 409.20, 850.52 408.12, 853.37 406.39 C 856.22 404.66, 857.74 403.96, 860.45 402.84 C 863.15 401.71, 864.46 401.34, 866.88 400.77 C 869.30 400.21, 870.41 400.14, 872.53 400.00 C 874.66 399.87, 875.84 400.11, 877.50 400.10 C 879.17 400.09, 879.76 400.05, 880.86 399.94 C 881.96 399.83, 882.53 399.89, 883.02 399.55 C 883.51 399.21, 883.65 398.76, 883.31 398.23 C 882.98 397.71, 882.45 397.39, 881.35 396.92 C 880.24 396.46, 879.61 396.15, 877.79 395.90 C 875.97 395.65, 874.65 395.52, 872.26 395.67 C 869.88 395.81, 868.55 395.95, 865.87 396.64 C 863.18 397.32, 861.73 397.79, 858.83 399.10 C 855.93 400.40, 854.37 401.25, 851.36 403.15 C 848.35 405.04, 846.71 406.19, 843.78 408.58 C 840.85 410.97, 839.35 412.43, 836.73 415.09 C 834.11 417.76, 832.79 419.28, 830.68 421.91 C 828.57 424.55, 827.39 425.94, 826.16 428.24 C 824.94 430.55, 824.70 431.85, 824.55 433.44 C 824.39 435.03, 824.73 435.69, 825.39 436.18 C 826.05 436.67, 826.68 436.64, 827.83 435.88 C 828.98 435.13, 829.70 434.26, 831.14 432.40 C 832.59 430.54, 833.38 429.07, 835.05 426.58 C 836.72 424.08, 837.76 422.55, 839.50 419.93 C 841.24 417.32, 842.46 415.86, 843.75 413.52 C 845.04 411.18, 845.43 409.93, 845.93 408.22 C 846.43 406.51, 846.52 405.78, 846.27 404.97 C 846.02 404.16, 845.46 403.90, 844.67 404.15" style="stroke: black; fill: black;"/><path d="M 933.67,355.78 C 932.90 356.07, 932.46 356.49, 931.33 358.00 C 930.19 359.52, 929.57 360.48, 928.00 363.36 C 926.42 366.24, 925.59 368.35, 923.44 372.40 C 921.29 376.45, 919.93 378.95, 917.24 383.61 C 914.55 388.27, 912.83 390.91, 909.98 395.70 C 907.12 400.49, 905.55 403.04, 902.96 407.56 C 900.37 412.08, 899.05 414.36, 897.05 418.30 C 895.04 422.23, 894.09 424.03, 892.94 427.23 C 891.78 430.43, 891.41 431.89, 891.28 434.29 C 891.15 436.70, 891.63 437.73, 892.30 439.28 C 892.97 440.82, 893.67 441.23, 894.63 442.01 C 895.58 442.79, 896.14 443.00, 897.07 443.18 C 898.00 443.35, 898.69 443.21, 899.29 442.88 C 899.89 442.54, 900.08 442.02, 900.08 441.49 C 900.07 440.97, 899.58 440.56, 899.26 440.25 C 898.93 439.93, 898.79 439.98, 898.47 439.90 C 898.14 439.82, 898.05 439.90, 897.65 439.84 C 897.26 439.78, 896.99 439.94, 896.50 439.60 C 896.00 439.26, 895.53 439.14, 895.19 438.14 C 894.86 437.13, 894.61 436.52, 894.82 434.57 C 895.02 432.61, 895.26 431.36, 896.23 428.35 C 897.19 425.35, 897.83 423.45, 899.63 419.55 C 901.43 415.65, 902.71 413.34, 905.22 408.84 C 907.73 404.33, 909.29 401.78, 912.18 397.03 C 915.07 392.27, 916.82 389.65, 919.67 385.07 C 922.53 380.50, 923.99 378.05, 926.45 374.15 C 928.92 370.26, 930.33 368.47, 931.98 365.60 C 933.64 362.74, 934.08 361.63, 934.73 359.82 C 935.37 358.01, 935.40 357.37, 935.19 356.57 C 934.98 355.76, 934.44 355.50, 933.67 355.78" style="stroke: black; fill: black;"/><path d="M 975.33,418.45 C 975.47 417.72, 975.30 417.10, 974.64 416.18 C 973.99 415.25, 973.46 414.59, 972.07 413.81 C 970.68 413.04, 969.65 412.59, 967.71 412.29 C 965.76 412.00, 964.68 412.02, 962.35 412.32 C 960.02 412.62, 958.68 412.81, 956.04 413.80 C 953.40 414.79, 951.90 415.58, 949.16 417.26 C 946.43 418.93, 944.93 420.04, 942.36 422.16 C 939.80 424.28, 938.39 425.51, 936.34 427.86 C 934.28 430.21, 933.27 431.54, 932.08 433.92 C 930.90 436.31, 930.50 437.59, 930.40 439.79 C 930.30 441.98, 930.57 443.15, 931.58 444.90 C 932.60 446.66, 933.48 447.50, 935.49 448.56 C 937.50 449.61, 938.86 450.02, 941.65 450.17 C 944.43 450.32, 946.12 450.06, 949.40 449.29 C 952.68 448.51, 954.50 447.84, 958.04 446.29 C 961.57 444.74, 963.49 443.75, 967.07 441.53 C 970.66 439.31, 972.54 438.01, 975.96 435.19 C 979.38 432.37, 981.10 430.74, 984.19 427.43 C 987.28 424.11, 988.73 422.22, 991.40 418.59 C 994.06 414.97, 995.29 413.00, 997.51 409.29 C 999.74 405.58, 1000.73 403.62, 1002.52 400.06 C 1004.31 396.50, 1005.08 394.72, 1006.48 391.49 C 1007.87 388.26, 1008.57 386.71, 1009.51 383.93 C 1010.46 381.14, 1010.92 379.83, 1011.21 377.58 C 1011.51 375.33, 1011.58 373.99, 1011.01 372.68 C 1010.44 371.36, 1009.67 370.76, 1008.36 370.99 C 1007.05 371.21, 1005.99 371.74, 1004.46 373.80 C 1002.93 375.86, 1002.37 377.70, 1000.71 381.29 C 999.04 384.88, 998.07 387.35, 996.14 391.74 C 994.21 396.13, 993.04 398.70, 991.06 403.24 C 989.09 407.78, 987.99 410.14, 986.26 414.43 C 984.53 418.71, 983.70 420.83, 982.41 424.66 C 981.12 428.50, 980.54 430.34, 979.82 433.60 C 979.11 436.85, 978.84 438.37, 978.83 440.93 C 978.82 443.50, 979.18 444.68, 979.78 446.41 C 980.39 448.14, 981.15 449.06, 981.86 449.59 C 982.56 450.11, 983.08 449.81, 983.29 449.04 C 983.50 448.27, 983.00 447.36, 982.90 445.75 C 982.80 444.15, 982.67 443.31, 982.78 441.02 C 982.88 438.73, 982.89 437.39, 983.42 434.30 C 983.94 431.22, 984.30 429.37, 985.41 425.61 C 986.51 421.85, 987.28 419.74, 988.95 415.50 C 990.62 411.27, 991.71 408.91, 993.75 404.44 C 995.80 399.98, 997.01 397.42, 999.18 393.18 C 1001.34 388.94, 1002.68 386.64, 1004.57 383.26 C 1006.46 379.87, 1007.64 378.42, 1008.61 376.27 C 1009.59 374.12, 1009.49 373.20, 1009.45 372.50 C 1009.41 371.80, 1008.90 371.94, 1008.42 372.79 C 1007.94 373.63, 1007.64 374.74, 1007.05 376.71 C 1006.47 378.69, 1006.28 379.97, 1005.50 382.65 C 1004.71 385.34, 1004.31 386.95, 1003.13 390.15 C 1001.95 393.34, 1001.25 395.12, 999.59 398.63 C 997.94 402.15, 997.00 404.10, 994.88 407.73 C 992.76 411.37, 991.57 413.30, 988.99 416.83 C 986.42 420.36, 984.99 422.19, 981.99 425.37 C 978.99 428.55, 977.32 430.10, 973.99 432.75 C 970.65 435.40, 968.81 436.62, 965.33 438.61 C 961.85 440.61, 959.96 441.48, 956.59 442.72 C 953.22 443.96, 951.44 444.32, 948.48 444.83 C 945.52 445.34, 944.08 445.28, 941.80 445.26 C 939.53 445.25, 938.57 445.19, 937.12 444.75 C 935.67 444.32, 935.16 444.01, 934.56 443.10 C 933.95 442.18, 933.82 441.58, 934.08 440.16 C 934.35 438.74, 934.75 437.86, 935.89 436.01 C 937.02 434.15, 937.90 432.97, 939.76 430.89 C 941.63 428.82, 942.84 427.55, 945.21 425.65 C 947.57 423.75, 949.07 422.81, 951.59 421.40 C 954.11 419.99, 955.54 419.44, 957.82 418.60 C 960.11 417.76, 961.21 417.47, 963.02 417.20 C 964.84 416.93, 965.55 417.01, 966.90 417.25 C 968.24 417.49, 968.73 417.96, 969.74 418.40 C 970.76 418.84, 971.14 419.17, 971.98 419.46 C 972.82 419.75, 973.29 420.03, 973.96 419.83 C 974.63 419.63, 975.20 419.18, 975.33 418.45" style="stroke: black; fill: black;"/><path d="M 1079.89,365.00 C 1079.11 365.39, 1078.75 366.06, 1077.72 367.61 C 1076.69 369.15, 1076.03 370.13, 1074.73 372.73 C 1073.43 375.33, 1072.82 377.23, 1071.21 380.60 C 1069.60 383.98, 1068.59 386.01, 1066.68 389.61 C 1064.77 393.22, 1063.61 395.12, 1061.68 398.62 C 1059.75 402.12, 1058.76 403.89, 1057.04 407.11 C 1055.33 410.32, 1054.43 411.85, 1053.13 414.69 C 1051.82 417.53, 1051.22 419.09, 1050.53 421.33 C 1049.83 423.57, 1049.81 424.42, 1049.65 425.88 C 1049.49 427.34, 1049.47 428.01, 1049.73 428.63 C 1050.00 429.25, 1050.42 429.35, 1050.96 428.97 C 1051.50 428.60, 1051.74 428.00, 1052.43 426.76 C 1053.13 425.51, 1053.54 424.84, 1054.43 422.75 C 1055.31 420.67, 1055.70 419.12, 1056.86 416.32 C 1058.02 413.51, 1058.66 411.94, 1060.22 408.73 C 1061.79 405.52, 1062.77 403.76, 1064.69 400.29 C 1066.62 396.81, 1067.80 394.91, 1069.85 391.37 C 1071.90 387.83, 1073.04 385.85, 1074.95 382.58 C 1076.85 379.30, 1078.06 377.69, 1079.36 375.02 C 1080.66 372.34, 1081.00 371.09, 1081.44 369.21 C 1081.89 367.34, 1081.90 366.48, 1081.59 365.64 C 1081.28 364.79, 1080.66 364.61, 1079.89 365.00" style="stroke: black; fill: black;"/><path d="M 1059.65,468.58 C 1059.05 468.45, 1059.15 468.15, 1059.18 468.57 C 1059.20 468.99, 1059.49 470.23, 1059.77 470.68 C 1060.06 471.12, 1060.28 471.46, 1060.60 470.78 C 1060.92 470.10, 1061.10 467.98, 1061.37 467.29 C 1061.65 466.61, 1061.73 466.93, 1061.97 467.34 C 1062.22 467.76, 1062.55 468.99, 1062.59 469.36 C 1062.62 469.74, 1062.74 469.38, 1062.15 469.22 C 1061.56 469.07, 1060.24 468.71, 1059.65 468.58" style="stroke: black; fill: black;"/></svg>