<svg xmlns="http://www.w3.org/2000/svg" id="canvas" viewBox="237.990 305.737 1041.230 202.778"><path d="M 241.15,309.80 C 240.86 311.13, 240.98 312.33, 241.39 316.24 C 241.81 320.16, 242.33 322.65, 243.22 329.38 C 244.11 336.12, 244.78 340.70, 245.84 349.93 C 246.90 359.16, 247.42 364.81, 248.50 375.54 C 249.58 386.26, 250.16 392.41, 251.23 403.54 C 252.30 414.68, 252.85 420.63, 253.86 431.22 C 254.87 441.82, 255.34 447.22, 256.27 456.51 C 257.20 465.80, 257.66 470.34, 258.50 477.67 C 259.35 484.99, 259.85 488.31, 260.50 493.14 C 261.15 497.97, 261.23 499.43, 261.75 501.82 C 262.28 504.21, 262.68 504.47, 263.12 505.09 C 263.57 505.71, 263.79 505.65, 263.97 504.92 C 264.15 504.20, 264.29 503.87, 264.03 501.45 C 263.76 499.03, 263.43 497.62, 262.65 492.82 C 261.88 488.03, 261.13 484.75, 260.13 477.46 C 259.13 470.17, 258.64 465.64, 257.64 456.36 C 256.64 447.09, 256.14 441.69, 255.12 431.10 C 254.09 420.51, 253.54 414.56, 252.50 403.42 C 251.45 392.28, 250.89 386.14, 249.90 375.40 C 248.91 364.67, 248.44 359.01, 247.55 349.75 C 246.66 340.50, 246.12 335.89, 245.44 329.13 C 244.75 322.36, 244.66 319.82, 244.14 315.92 C 243.63 312.01, 243.44 310.82, 242.84 309.60 C 242.25 308.37, 241.44 308.47, 241.15 309.80" style="stroke: black; fill: black;"/><path d="M 279.14,337.24 C 279.15 338.59, 279.63 339.59, 280.78 343.41 C 281.92 347.22, 282.90 349.72, 284.86 356.31 C 286.82 362.89, 288.06 367.45, 290.57 376.34 C 293.08 385.23, 294.63 390.87, 297.41 400.76 C 300.20 410.65, 301.73 416.23, 304.49 425.80 C 307.25 435.37, 308.71 440.24, 311.21 448.59 C 313.71 456.95, 315.01 460.92, 316.99 467.59 C 318.98 474.25, 319.98 477.40, 321.13 481.91 C 322.28 486.43, 322.21 487.85, 322.75 490.17 C 323.28 492.48, 323.64 492.74, 323.81 493.50 C 323.97 494.26, 323.56 493.81, 323.57 493.99 C 323.59 494.16, 323.57 494.46, 323.90 494.40 C 324.23 494.33, 324.88 494.61, 325.23 493.65 C 325.57 492.69, 326.01 492.09, 325.64 489.62 C 325.26 487.14, 324.74 485.80, 323.34 481.29 C 321.94 476.78, 320.80 473.70, 318.66 467.07 C 316.51 460.45, 315.18 456.50, 312.62 448.17 C 310.06 439.83, 308.60 434.97, 305.84 425.41 C 303.08 415.85, 301.55 410.27, 298.84 400.36 C 296.12 390.46, 294.63 384.81, 292.27 375.88 C 289.90 366.94, 288.78 362.36, 287.01 355.70 C 285.24 349.04, 284.65 346.39, 283.40 342.58 C 282.14 338.78, 281.58 337.74, 280.73 336.67 C 279.88 335.61, 279.13 335.89, 279.14 337.24" style="stroke: black; fill: black;"/><path d="M 243.80,439.00 C 244.80 439.26, 245.42 439.26, 248.36 438.75 C 251.29 438.25, 253.26 437.38, 258.48 436.47 C 263.69 435.57, 267.27 435.05, 274.42 434.25 C 281.58 433.44, 286.12 433.18, 294.24 432.45 C 302.37 431.72, 306.99 431.47, 315.07 430.61 C 323.15 429.76, 327.30 429.28, 334.64 428.16 C 341.99 427.04, 345.62 426.44, 351.80 425.02 C 357.98 423.59, 360.88 422.77, 365.54 421.05 C 370.20 419.32, 372.30 418.47, 375.12 416.40 C 377.94 414.33, 378.97 412.99, 379.65 410.69 C 380.33 408.40, 379.97 406.84, 378.53 404.94 C 377.09 403.04, 375.49 401.83, 372.44 401.20 C 369.40 400.57, 367.07 400.76, 363.32 401.77 C 359.56 402.77, 357.17 403.71, 353.68 406.22 C 350.19 408.74, 348.18 410.56, 345.86 414.35 C 343.54 418.14, 342.43 420.62, 342.08 425.17 C 341.73 429.72, 342.11 432.47, 344.11 437.09 C 346.10 441.71, 347.92 444.27, 352.06 448.26 C 356.20 452.26, 359.08 454.27, 364.82 457.06 C 370.55 459.84, 374.11 461.07, 380.73 462.19 C 387.35 463.31, 391.15 463.55, 397.93 462.65 C 404.70 461.75, 408.30 460.80, 414.63 457.70 C 420.95 454.59, 424.14 452.42, 429.54 447.14 C 434.95 441.86, 437.57 438.50, 441.65 431.29 C 445.73 424.08, 447.51 419.65, 449.94 411.09 C 452.36 402.54, 453.13 397.52, 453.78 388.53 C 454.42 379.55, 454.17 374.58, 453.16 366.15 C 452.15 357.72, 451.03 353.37, 448.74 346.36 C 446.44 339.36, 444.74 336.09, 441.67 331.11 C 438.60 326.13, 436.82 323.98, 433.41 321.46 C 430.00 318.93, 427.84 317.98, 424.64 318.50 C 421.44 319.01, 419.51 320.35, 417.41 324.03 C 415.30 327.71, 414.61 330.50, 414.09 336.91 C 413.58 343.31, 413.66 347.59, 414.82 356.05 C 415.98 364.50, 417.06 369.77, 419.89 379.16 C 422.71 388.56, 424.76 393.89, 428.94 403.00 C 433.12 412.11, 435.74 416.96, 440.78 424.72 C 445.82 432.48, 448.74 436.17, 454.14 441.80 C 459.55 447.42, 462.39 449.77, 467.79 452.83 C 473.19 455.90, 476.01 456.83, 481.15 457.13 C 486.30 457.43, 488.93 456.85, 493.53 454.34 C 498.13 451.82, 500.38 449.73, 504.17 444.57 C 507.95 439.41, 509.73 435.90, 512.46 428.54 C 515.19 421.17, 516.39 416.54, 517.81 407.74 C 519.22 398.93, 519.59 393.71, 519.56 384.51 C 519.52 375.30, 518.95 370.25, 517.64 361.70 C 516.32 353.14, 515.11 348.81, 512.97 341.74 C 510.83 334.66, 509.37 331.38, 506.94 326.31 C 504.51 321.25, 503.29 319.01, 500.82 316.40 C 498.35 313.79, 496.76 312.97, 494.59 313.25 C 492.43 313.53, 490.97 314.52, 489.99 317.80 C 489.01 321.08, 489.18 323.68, 489.70 329.65 C 490.23 335.62, 490.79 339.69, 492.61 347.66 C 494.42 355.63, 495.71 360.60, 498.79 369.51 C 501.87 378.42, 503.86 383.54, 508.01 392.21 C 512.15 400.88, 514.61 405.37, 519.52 412.85 C 524.43 420.33, 527.18 423.89, 532.55 429.60 C 537.91 435.31, 540.81 437.77, 546.35 441.40 C 551.89 445.03, 554.82 446.27, 560.25 447.75 C 565.67 449.23, 568.49 449.35, 573.46 448.79 C 578.43 448.23, 580.92 447.25, 585.09 444.95 C 589.26 442.65, 591.27 440.78, 594.31 437.27 C 597.35 433.76, 598.71 431.39, 600.30 427.40 C 601.89 423.40, 602.38 421.01, 602.27 417.30 C 602.15 413.59, 601.58 411.50, 599.71 408.85 C 597.85 406.20, 596.10 404.94, 592.94 404.07 C 589.78 403.20, 587.44 403.34, 583.91 404.51 C 580.38 405.67, 578.18 407.03, 575.28 409.89 C 572.39 412.76, 570.86 414.91, 569.43 418.84 C 568.00 422.76, 567.50 425.36, 568.13 429.50 C 568.76 433.65, 569.78 436.07, 572.58 439.59 C 575.39 443.10, 577.69 444.77, 582.18 447.08 C 586.68 449.40, 589.71 450.28, 595.06 451.15 C 600.41 452.03, 603.64 452.04, 608.94 451.47 C 614.24 450.90, 617.15 450.16, 621.56 448.29 C 625.98 446.43, 628.19 445.09, 631.02 442.14 C 633.85 439.19, 635.00 437.13, 635.72 433.54 C 636.45 429.94, 636.12 427.64, 634.65 424.19 C 633.18 420.73, 631.53 418.91, 628.37 416.25 C 625.21 413.58, 622.81 412.41, 618.85 410.86 C 614.89 409.31, 612.17 408.98, 608.60 408.48 C 605.03 407.98, 603.35 408.08, 601.00 408.35 C 598.65 408.63, 597.65 409.28, 596.86 409.84 C 596.06 410.40, 596.18 410.79, 597.01 411.15 C 597.85 411.52, 598.82 411.41, 601.02 411.66 C 603.22 411.90, 604.71 411.87, 608.03 412.37 C 611.34 412.88, 613.96 412.89, 617.60 414.19 C 621.23 415.50, 623.39 416.62, 626.18 418.89 C 628.97 421.17, 630.27 422.74, 631.54 425.55 C 632.81 428.35, 633.08 430.01, 632.54 432.92 C 632.00 435.82, 631.26 437.51, 628.85 440.08 C 626.44 442.65, 624.52 444.01, 620.48 445.76 C 616.44 447.51, 613.65 448.29, 608.65 448.85 C 603.66 449.40, 600.53 449.38, 595.49 448.53 C 590.46 447.69, 587.58 446.77, 583.46 444.61 C 579.34 442.46, 577.34 440.86, 574.91 437.75 C 572.47 434.64, 571.74 432.60, 571.29 429.06 C 570.83 425.52, 571.33 423.36, 572.64 420.05 C 573.95 416.75, 575.35 414.90, 577.85 412.53 C 580.34 410.15, 582.30 409.12, 585.13 408.18 C 587.95 407.24, 589.64 407.27, 591.95 407.84 C 594.26 408.40, 595.29 409.09, 596.66 411.01 C 598.04 412.93, 598.68 414.38, 598.82 417.43 C 598.96 420.49, 598.71 422.67, 597.37 426.27 C 596.04 429.87, 594.84 432.14, 592.13 435.42 C 589.42 438.71, 587.59 440.47, 583.80 442.68 C 580.01 444.89, 577.78 445.84, 573.17 446.45 C 568.57 447.07, 565.94 447.07, 560.77 445.76 C 555.60 444.44, 552.74 443.35, 547.33 439.90 C 541.91 436.45, 539.02 434.08, 533.70 428.51 C 528.39 422.94, 525.63 419.42, 520.76 412.04 C 515.88 404.65, 513.43 400.19, 509.34 391.58 C 505.25 382.97, 503.28 377.85, 500.32 368.99 C 497.36 360.12, 496.16 355.14, 494.55 347.24 C 492.94 339.34, 492.57 335.21, 492.26 329.47 C 491.96 323.73, 492.52 321.39, 493.03 318.53 C 493.53 315.67, 493.64 315.23, 494.79 315.17 C 495.94 315.11, 496.73 315.81, 498.78 318.23 C 500.84 320.65, 502.54 322.46, 505.05 327.26 C 507.56 332.06, 509.12 335.31, 511.33 342.25 C 513.53 349.18, 514.76 353.48, 516.10 361.94 C 517.43 370.39, 518.00 375.40, 518.02 384.51 C 518.04 393.62, 517.64 398.79, 516.19 407.47 C 514.74 416.15, 513.48 420.72, 510.74 427.89 C 508.01 435.07, 506.16 438.44, 502.51 443.35 C 498.86 448.26, 496.74 450.09, 492.49 452.43 C 488.24 454.78, 486.03 455.30, 481.27 455.07 C 476.50 454.83, 473.87 454.12, 468.68 451.25 C 463.48 448.37, 460.62 446.16, 455.28 440.70 C 449.94 435.23, 447.00 431.59, 441.99 423.93 C 436.98 416.27, 434.36 411.45, 430.23 402.41 C 426.11 393.37, 424.08 388.05, 421.37 378.73 C 418.65 369.41, 417.64 364.13, 416.64 355.81 C 415.64 347.49, 415.73 343.20, 416.36 337.11 C 416.98 331.02, 418.01 328.52, 419.76 325.35 C 421.50 322.19, 422.64 321.65, 425.08 321.27 C 427.51 320.89, 428.96 321.28, 431.93 323.46 C 434.90 325.65, 436.91 327.51, 439.94 332.20 C 442.98 336.89, 444.77 340.08, 447.10 346.91 C 449.43 353.74, 450.57 358.04, 451.60 366.34 C 452.63 374.64, 452.89 379.56, 452.26 388.43 C 451.63 397.29, 450.85 402.26, 448.44 410.67 C 446.04 419.08, 444.25 423.43, 440.23 430.48 C 436.21 437.52, 433.61 440.78, 428.33 445.89 C 423.05 451.01, 419.95 453.08, 413.82 456.04 C 407.69 459.01, 404.22 459.90, 397.68 460.72 C 391.13 461.55, 387.46 461.30, 381.08 460.16 C 374.71 459.03, 371.26 457.79, 365.80 455.07 C 360.33 452.34, 357.60 450.33, 353.75 446.53 C 349.90 442.73, 348.31 440.27, 346.55 436.05 C 344.79 431.83, 344.57 429.42, 344.97 425.42 C 345.37 421.42, 346.40 419.30, 348.54 416.05 C 350.69 412.80, 352.55 411.22, 355.70 409.16 C 358.85 407.11, 361.09 406.49, 364.30 405.80 C 367.50 405.11, 369.32 405.48, 371.72 405.72 C 374.12 405.96, 375.23 406.18, 376.30 407.00 C 377.37 407.81, 377.67 408.41, 377.07 409.79 C 376.47 411.17, 375.78 412.10, 373.30 413.91 C 370.82 415.71, 369.06 416.99, 364.67 418.82 C 360.27 420.66, 357.40 421.58, 351.34 423.10 C 345.28 424.62, 341.66 425.26, 334.37 426.42 C 327.08 427.58, 322.94 428.06, 314.89 428.90 C 306.83 429.73, 302.23 429.97, 294.09 430.60 C 285.95 431.22, 281.41 431.41, 274.20 432.01 C 267.00 432.61, 263.38 432.95, 258.05 433.59 C 252.73 434.23, 250.53 434.44, 247.59 435.21 C 244.65 435.98, 244.12 436.68, 243.36 437.44 C 242.60 438.20, 242.80 438.74, 243.80 439.00" style="stroke: black; fill: black;"/><path d="M 757.11,391.74 C 756.82 392.73, 756.62 393.72, 757.32 396.18 C 758.02 398.64, 758.85 400.33, 760.61 404.04 C 762.37 407.75, 763.59 410.42, 766.12 414.74 C 768.66 419.05, 770.24 421.71, 773.30 425.60 C 776.35 429.48, 778.11 431.45, 781.40 434.14 C 784.69 436.83, 786.45 437.89, 789.74 439.05 C 793.04 440.21, 794.79 440.37, 797.88 439.95 C 800.96 439.52, 802.54 438.77, 805.17 436.94 C 807.79 435.11, 808.96 433.53, 810.99 430.78 C 813.03 428.04, 813.94 426.06, 815.33 423.22 C 816.72 420.38, 817.20 418.57, 817.95 416.57 C 818.70 414.58, 818.48 413.61, 819.08 413.24 C 819.68 412.87, 819.59 413.41, 820.95 414.70 C 822.31 415.99, 823.25 417.39, 825.87 419.70 C 828.49 422.00, 830.39 423.65, 834.04 426.22 C 837.70 428.78, 839.95 430.32, 844.16 432.51 C 848.37 434.71, 850.77 435.84, 855.10 437.19 C 859.42 438.54, 861.75 439.09, 865.77 439.29 C 869.79 439.48, 871.86 439.34, 875.20 438.14 C 878.54 436.94, 880.24 435.90, 882.46 433.29 C 884.69 430.68, 885.54 428.77, 886.33 425.11 C 887.12 421.45, 887.10 419.09, 886.41 414.98 C 885.73 410.88, 884.92 408.46, 882.90 404.58 C 880.89 400.70, 879.31 398.64, 876.34 395.59 C 873.38 392.54, 871.33 391.04, 868.07 389.31 C 864.80 387.59, 861.77 387.07, 860.02 386.96 C 858.27 386.86, 858.05 387.75, 859.33 388.80 C 860.60 389.84, 863.49 390.37, 866.42 392.19 C 869.34 394.02, 871.24 395.14, 873.95 397.92 C 876.65 400.70, 878.13 402.58, 879.94 406.11 C 881.74 409.63, 882.41 411.89, 882.98 415.54 C 883.55 419.19, 883.45 421.27, 882.79 424.35 C 882.13 427.43, 881.45 428.84, 879.70 430.95 C 877.94 433.06, 876.78 433.87, 874.02 434.90 C 871.26 435.92, 869.50 436.20, 865.90 436.07 C 862.30 435.94, 860.06 435.53, 856.01 434.26 C 851.96 432.99, 849.61 431.92, 845.65 429.73 C 841.70 427.53, 839.60 425.94, 836.22 423.28 C 832.85 420.62, 831.41 418.75, 828.77 416.41 C 826.14 414.08, 825.18 412.69, 823.06 411.61 C 820.94 410.53, 819.94 410.41, 818.17 411.00 C 816.40 411.59, 815.62 412.54, 814.21 414.57 C 812.80 416.60, 812.47 418.41, 811.12 421.16 C 809.78 423.91, 809.16 425.80, 807.48 428.30 C 805.80 430.79, 804.78 432.05, 802.74 433.64 C 800.70 435.22, 799.68 435.79, 797.29 436.23 C 794.91 436.67, 793.63 436.72, 790.84 435.82 C 788.05 434.92, 786.37 434.16, 783.34 431.74 C 780.31 429.32, 778.55 427.47, 775.68 423.74 C 772.82 420.01, 771.33 417.36, 769.03 413.10 C 766.72 408.84, 765.75 406.10, 764.17 402.43 C 762.59 398.75, 762.21 396.98, 761.12 394.74 C 760.04 392.49, 759.56 391.80, 758.76 391.20 C 757.96 390.60, 757.39 390.74, 757.11 391.74" style="stroke: black; fill: black;"/><path d="M 935.01,401.08 C 934.32 401.00, 933.97 400.95, 932.65 401.76 C 931.33 402.56, 930.20 403.12, 928.41 405.10 C 926.61 407.08, 925.44 408.68, 923.68 411.67 C 921.92 414.65, 920.68 416.58, 919.62 420.02 C 918.56 423.46, 917.91 425.53, 918.39 428.86 C 918.88 432.19, 919.67 434.11, 922.06 436.68 C 924.44 439.24, 926.45 440.30, 930.33 441.69 C 934.21 443.07, 936.82 443.47, 941.45 443.61 C 946.08 443.76, 948.90 443.52, 953.49 442.40 C 958.08 441.28, 960.63 440.32, 964.42 438.02 C 968.20 435.73, 970.09 434.16, 972.41 430.94 C 974.73 427.71, 975.61 425.60, 976.02 421.89 C 976.43 418.19, 976.00 415.92, 974.46 412.40 C 972.93 408.88, 971.35 407.09, 968.34 404.30 C 965.33 401.52, 963.13 400.21, 959.40 398.46 C 955.68 396.72, 953.22 396.02, 949.71 395.58 C 946.19 395.14, 944.26 395.64, 941.83 396.27 C 939.39 396.91, 938.30 397.97, 937.53 398.75 C 936.77 399.52, 937.04 399.96, 938.01 400.15 C 938.98 400.34, 940.15 399.83, 942.39 399.70 C 944.63 399.57, 946.10 399.09, 949.21 399.50 C 952.32 399.90, 954.56 400.25, 957.92 401.73 C 961.28 403.20, 963.32 404.45, 966.00 406.86 C 968.68 409.28, 969.99 410.86, 971.33 413.80 C 972.67 416.73, 972.99 418.48, 972.69 421.54 C 972.38 424.59, 971.78 426.30, 969.80 429.07 C 967.83 431.84, 966.23 433.32, 962.82 435.39 C 959.41 437.46, 957.02 438.41, 952.77 439.40 C 948.52 440.40, 945.83 440.57, 941.58 440.37 C 937.32 440.18, 934.88 439.67, 931.52 438.42 C 928.16 437.18, 926.61 436.17, 924.78 434.16 C 922.94 432.16, 922.55 430.94, 922.34 428.40 C 922.14 425.86, 922.62 424.25, 923.74 421.46 C 924.87 418.67, 926.14 416.98, 927.96 414.45 C 929.79 411.92, 931.37 410.82, 932.88 408.81 C 934.40 406.81, 934.90 405.75, 935.54 404.42 C 936.18 403.09, 936.20 402.84, 936.10 402.17 C 935.99 401.50, 935.70 401.17, 935.01 401.08" style="stroke: black; fill: black;"/><path d="M 991.96,421.55 C 991.40 422.59, 991.30 424.31, 991.29 426.48 C 991.29 428.65, 991.30 430.32, 991.93 432.39 C 992.56 434.47, 993.36 435.88, 994.44 436.85 C 995.52 437.81, 996.47 437.89, 997.34 437.21 C 998.21 436.53, 998.55 435.54, 998.78 433.44 C 999.01 431.34, 998.72 429.67, 998.49 426.70 C 998.25 423.73, 997.64 421.78, 997.63 418.60 C 997.61 415.42, 997.62 413.58, 998.40 410.79 C 999.17 408.01, 999.66 406.80, 1001.51 404.67 C 1003.35 402.54, 1004.55 401.77, 1007.61 400.14 C 1010.66 398.51, 1012.61 397.88, 1016.79 396.54 C 1020.96 395.20, 1023.54 394.72, 1028.47 393.45 C 1033.41 392.17, 1036.31 391.70, 1041.47 390.17 C 1046.63 388.65, 1049.42 387.91, 1054.25 385.82 C 1059.09 383.73, 1061.59 382.59, 1065.65 379.73 C 1069.70 376.86, 1071.65 375.18, 1074.53 371.49 C 1077.42 367.80, 1078.57 365.54, 1080.07 361.28 C 1081.57 357.01, 1081.97 354.52, 1082.04 350.14 C 1082.11 345.77, 1081.68 343.32, 1080.41 339.41 C 1079.14 335.49, 1078.04 333.47, 1075.68 330.57 C 1073.31 327.68, 1071.70 326.25, 1068.58 324.92 C 1065.47 323.58, 1063.33 323.21, 1060.10 323.92 C 1056.86 324.64, 1054.93 325.70, 1052.40 328.49 C 1049.86 331.28, 1048.72 333.35, 1047.41 337.88 C 1046.10 342.40, 1045.73 345.31, 1045.83 351.13 C 1045.93 356.95, 1046.37 360.47, 1047.91 366.98 C 1049.44 373.49, 1050.65 377.14, 1053.52 383.66 C 1056.40 390.18, 1058.31 393.59, 1062.27 399.58 C 1066.22 405.58, 1068.59 408.62, 1073.29 413.64 C 1077.98 418.65, 1080.61 420.91, 1085.72 424.66 C 1090.84 428.41, 1093.59 429.95, 1098.87 432.40 C 1104.15 434.85, 1106.92 435.74, 1112.13 436.91 C 1117.34 438.08, 1120.01 438.25, 1124.91 438.27 C 1129.82 438.28, 1132.28 437.90, 1136.67 436.99 C 1141.05 436.08, 1143.19 435.32, 1146.86 433.70 C 1150.52 432.09, 1152.23 431.04, 1154.98 428.91 C 1157.73 426.78, 1159.02 425.55, 1160.59 423.06 C 1162.16 420.57, 1162.69 419.09, 1162.83 416.45 C 1162.97 413.82, 1162.70 412.25, 1161.30 409.88 C 1159.91 407.50, 1158.70 406.09, 1155.85 404.56 C 1153.00 403.03, 1150.92 402.52, 1147.03 402.22 C 1143.15 401.91, 1140.69 402.07, 1136.42 403.03 C 1132.14 403.98, 1129.60 404.87, 1125.64 406.99 C 1121.68 409.12, 1119.57 410.68, 1116.62 413.66 C 1113.66 416.63, 1112.24 418.49, 1110.85 421.89 C 1109.47 425.29, 1109.20 427.37, 1109.69 430.67 C 1110.19 433.97, 1111.13 435.81, 1113.33 438.37 C 1115.53 440.93, 1117.31 442.10, 1120.67 443.48 C 1124.04 444.87, 1126.23 445.32, 1130.15 445.28 C 1134.06 445.25, 1136.33 444.94, 1140.23 443.32 C 1144.13 441.70, 1146.24 440.50, 1149.63 437.18 C 1153.02 433.86, 1154.69 431.69, 1157.17 426.74 C 1159.64 421.78, 1160.70 418.70, 1162.01 412.42 C 1163.32 406.14, 1163.65 402.42, 1163.72 395.33 C 1163.79 388.23, 1163.40 384.18, 1162.36 376.94 C 1161.33 369.70, 1160.33 365.79, 1158.55 359.12 C 1156.77 352.46, 1155.43 349.11, 1153.45 343.61 C 1151.48 338.12, 1150.46 335.46, 1148.68 331.64 C 1146.89 327.83, 1145.89 325.94, 1144.52 324.55 C 1143.16 323.15, 1141.99 323.24, 1141.84 324.65 C 1141.69 326.07, 1142.17 327.56, 1143.77 331.63 C 1145.37 335.69, 1146.93 338.63, 1149.82 344.98 C 1152.71 351.33, 1154.65 355.58, 1158.24 363.39 C 1161.82 371.19, 1163.92 375.84, 1167.75 384.03 C 1171.59 392.22, 1173.64 396.61, 1177.40 404.32 C 1181.16 412.04, 1183.11 415.90, 1186.57 422.60 C 1190.02 429.31, 1191.67 432.49, 1194.66 437.86 C 1197.65 443.22, 1199.02 445.54, 1201.53 449.42 C 1204.04 453.30, 1205.20 454.99, 1207.20 457.26 C 1209.20 459.52, 1210.12 459.92, 1211.54 460.75 C 1212.96 461.59, 1213.65 461.47, 1214.29 461.42 C 1214.93 461.37, 1215.00 461.02, 1214.74 460.52 C 1214.48 460.02, 1214.00 460.03, 1213.00 458.93 C 1212.00 457.83, 1211.63 457.21, 1209.75 455.03 C 1207.86 452.85, 1206.24 451.65, 1203.56 448.02 C 1200.88 444.39, 1199.45 442.12, 1196.36 436.88 C 1193.26 431.64, 1191.57 428.48, 1188.06 421.83 C 1184.55 415.18, 1182.58 411.33, 1178.81 403.63 C 1175.04 395.94, 1172.99 391.55, 1169.22 383.35 C 1165.44 375.15, 1163.36 370.49, 1159.93 362.62 C 1156.51 354.76, 1154.73 350.44, 1152.08 344.00 C 1149.43 337.56, 1148.43 334.37, 1146.70 330.41 C 1144.96 326.45, 1144.23 325.13, 1143.39 324.20 C 1142.56 323.27, 1141.99 324.03, 1142.53 325.76 C 1143.06 327.50, 1144.30 329.15, 1146.07 332.87 C 1147.85 336.60, 1149.27 339.04, 1151.39 344.39 C 1153.50 349.74, 1154.83 353.08, 1156.65 359.64 C 1158.46 366.21, 1159.45 370.08, 1160.46 377.21 C 1161.47 384.35, 1161.83 388.35, 1161.71 395.30 C 1161.58 402.25, 1161.19 405.89, 1159.84 411.95 C 1158.48 418.01, 1157.37 420.96, 1154.93 425.59 C 1152.49 430.22, 1150.83 432.16, 1147.65 435.10 C 1144.47 438.04, 1142.52 438.97, 1139.03 440.29 C 1135.53 441.60, 1133.54 441.73, 1130.17 441.66 C 1126.79 441.58, 1124.94 441.08, 1122.16 439.91 C 1119.37 438.75, 1118.01 437.78, 1116.26 435.81 C 1114.50 433.85, 1113.81 432.61, 1113.37 430.08 C 1112.94 427.56, 1112.97 426.01, 1114.09 423.19 C 1115.21 420.37, 1116.35 418.64, 1118.97 415.98 C 1121.58 413.32, 1123.54 411.79, 1127.18 409.88 C 1130.81 407.98, 1133.23 407.19, 1137.13 406.43 C 1141.02 405.67, 1143.32 405.70, 1146.65 406.11 C 1149.98 406.52, 1151.51 407.31, 1153.77 408.48 C 1156.03 409.66, 1156.88 410.43, 1157.95 411.98 C 1159.02 413.53, 1159.27 414.43, 1159.13 416.22 C 1158.99 418.00, 1158.52 418.94, 1157.23 420.91 C 1155.95 422.88, 1155.03 424.09, 1152.69 426.07 C 1150.35 428.05, 1148.84 429.19, 1145.52 430.82 C 1142.19 432.45, 1140.18 433.25, 1136.05 434.23 C 1131.93 435.20, 1129.58 435.62, 1124.90 435.70 C 1120.21 435.78, 1117.66 435.68, 1112.63 434.63 C 1107.60 433.57, 1104.91 432.76, 1099.76 430.45 C 1094.62 428.13, 1091.92 426.66, 1086.90 423.04 C 1081.89 419.41, 1079.29 417.23, 1074.68 412.33 C 1070.07 407.42, 1067.72 404.43, 1063.86 398.54 C 1059.99 392.65, 1058.10 389.28, 1055.34 382.87 C 1052.58 376.46, 1051.44 372.84, 1050.04 366.49 C 1048.65 360.14, 1048.32 356.67, 1048.37 351.12 C 1048.42 345.57, 1048.98 342.81, 1050.29 338.76 C 1051.61 334.71, 1052.84 333.10, 1054.96 330.87 C 1057.08 328.64, 1058.47 328.13, 1060.89 327.63 C 1063.32 327.13, 1064.69 327.33, 1067.10 328.37 C 1069.52 329.40, 1070.93 330.40, 1072.98 332.82 C 1075.02 335.23, 1076.12 336.98, 1077.33 340.44 C 1078.54 343.90, 1079.00 346.14, 1079.01 350.12 C 1079.01 354.10, 1078.69 356.40, 1077.37 360.34 C 1076.04 364.29, 1075.03 366.38, 1072.38 369.83 C 1069.74 373.28, 1067.97 374.88, 1064.14 377.60 C 1060.31 380.33, 1057.92 381.45, 1053.24 383.46 C 1048.56 385.47, 1045.83 386.20, 1040.74 387.65 C 1035.65 389.09, 1032.77 389.52, 1027.79 390.70 C 1022.82 391.87, 1020.22 392.26, 1015.87 393.53 C 1011.51 394.80, 1009.45 395.33, 1006.01 397.05 C 1002.58 398.78, 1000.99 399.65, 998.69 402.15 C 996.39 404.65, 995.64 406.31, 994.49 409.55 C 993.35 412.79, 993.32 414.86, 992.97 418.37 C 992.62 421.88, 992.54 423.99, 992.73 427.10 C 992.93 430.21, 993.30 431.95, 993.94 433.93 C 994.58 435.92, 995.22 436.66, 995.95 437.02 C 996.69 437.38, 997.27 436.91, 997.59 435.73 C 997.92 434.55, 997.86 433.12, 997.57 431.11 C 997.27 429.10, 996.80 427.65, 996.10 425.68 C 995.41 423.71, 994.92 422.07, 994.09 421.24 C 993.27 420.41, 992.52 420.50, 991.96 421.55" style="stroke: black; fill: black;"/><path d="M 1253.07,321.95 C 1252.87 323.80, 1253.37 326.41, 1254.02 330.93 C 1254.66 335.44, 1255.27 338.47, 1256.28 344.52 C 1257.29 350.57, 1257.87 354.55, 1259.06 361.20 C 1260.25 367.84, 1260.91 371.38, 1262.25 377.75 C 1263.58 384.13, 1264.23 387.35, 1265.72 393.09 C 1267.21 398.83, 1268.35 402.01, 1269.70 406.45 C 1271.06 410.88, 1271.44 412.56, 1272.49 415.27 C 1273.55 417.97, 1274.25 419.10, 1274.99 419.96 C 1275.73 420.81, 1276.15 420.67, 1276.21 419.54 C 1276.27 418.41, 1276.08 417.11, 1275.29 414.32 C 1274.49 411.54, 1273.72 409.99, 1272.24 405.63 C 1270.76 401.26, 1269.47 398.17, 1267.88 392.51 C 1266.30 386.85, 1265.63 383.66, 1264.31 377.32 C 1262.99 370.99, 1262.39 367.45, 1261.27 360.81 C 1260.16 354.17, 1259.65 350.19, 1258.72 344.13 C 1257.80 338.07, 1257.39 335.01, 1256.65 330.52 C 1255.91 326.03, 1255.73 323.38, 1255.02 321.67 C 1254.30 319.96, 1253.27 320.10, 1253.07 321.95" style="stroke: black; fill: black;"/></svg>