<svg xmlns="http://www.w3.org/2000/svg" id="canvas" viewBox="217.829 322.495 989.345 156.904"><path d="M 261.97,326.01 C 261.30 326.77, 260.94 327.59, 260.38 330.00 C 259.81 332.42, 259.91 333.89, 259.16 338.09 C 258.40 342.30, 258.01 345.13, 256.59 351.03 C 255.17 356.93, 254.21 360.44, 252.08 367.60 C 249.94 374.76, 248.52 378.87, 245.92 386.81 C 243.31 394.76, 241.75 399.17, 239.04 407.32 C 236.34 415.48, 234.84 419.87, 232.41 427.58 C 229.97 435.28, 228.77 439.26, 226.88 445.85 C 225.00 452.45, 224.20 455.61, 222.99 460.55 C 221.79 465.49, 221.06 467.54, 220.87 470.55 C 220.67 473.55, 221.23 474.42, 222.00 475.56 C 222.76 476.70, 223.59 476.40, 224.69 476.24 C 225.79 476.08, 226.79 475.66, 227.48 474.78 C 228.18 473.90, 228.55 472.67, 228.15 471.84 C 227.76 471.01, 226.33 470.48, 225.49 470.64 C 224.65 470.79, 224.27 471.82, 223.94 472.62 C 223.61 473.42, 223.90 474.18, 223.84 474.65 C 223.78 475.11, 223.60 475.70, 223.65 474.94 C 223.69 474.17, 223.76 473.61, 224.08 470.83 C 224.40 468.06, 224.33 465.94, 225.25 461.04 C 226.17 456.14, 226.93 452.94, 228.68 446.35 C 230.43 439.75, 231.61 435.78, 234.00 428.08 C 236.38 420.37, 237.88 415.98, 240.59 407.84 C 243.31 399.69, 244.88 395.29, 247.56 387.36 C 250.24 379.43, 251.70 375.33, 254.00 368.20 C 256.30 361.06, 257.37 357.56, 259.07 351.69 C 260.78 345.81, 261.49 343.02, 262.52 338.81 C 263.54 334.59, 263.95 333.13, 264.19 330.62 C 264.43 328.11, 264.15 327.17, 263.71 326.25 C 263.27 325.32, 262.64 325.26, 261.97 326.01" style="stroke: black; fill: black;"/><path d="M 289.54,357.73 C 290.35 357.76, 291.23 356.65, 291.77 356.12 C 292.30 355.60, 292.13 354.59, 292.20 355.11 C 292.27 355.64, 292.28 355.93, 292.11 358.74 C 291.94 361.55, 292.16 364.04, 291.35 369.17 C 290.55 374.30, 289.75 377.83, 288.09 384.37 C 286.43 390.92, 285.25 394.74, 283.06 401.91 C 280.86 409.09, 279.52 413.11, 277.11 420.25 C 274.71 427.38, 273.35 431.15, 271.05 437.59 C 268.74 444.03, 267.62 447.23, 265.59 452.47 C 263.57 457.70, 262.51 460.12, 260.93 463.77 C 259.35 467.43, 258.59 468.63, 257.69 470.74 C 256.80 472.85, 256.50 473.48, 256.44 474.31 C 256.37 475.15, 256.65 475.36, 257.38 474.89 C 258.11 474.42, 258.87 473.98, 260.09 471.98 C 261.32 469.97, 261.99 468.60, 263.50 464.85 C 265.01 461.10, 265.78 458.55, 267.66 453.23 C 269.53 447.91, 270.62 444.71, 272.87 438.23 C 275.11 431.75, 276.46 427.99, 278.87 420.84 C 281.29 413.69, 282.64 409.67, 284.94 402.50 C 287.24 395.33, 288.47 391.54, 290.37 384.99 C 292.27 378.45, 293.19 375.01, 294.43 369.78 C 295.66 364.55, 296.58 362.10, 296.54 358.83 C 296.50 355.57, 295.54 354.64, 294.23 353.47 C 292.93 352.29, 291.31 352.46, 290.01 352.95 C 288.71 353.45, 287.82 354.98, 287.72 355.94 C 287.63 356.89, 288.73 357.69, 289.54 357.73" style="stroke: black; fill: black;"/><path d="M 227.85,427.39 C 228.30 428.03, 228.71 428.50, 230.43 428.99 C 232.14 429.49, 233.32 429.83, 236.42 429.85 C 239.51 429.86, 241.56 429.52, 245.89 429.05 C 250.22 428.59, 252.87 428.33, 258.06 427.51 C 263.25 426.70, 266.20 426.17, 271.84 424.98 C 277.47 423.79, 280.53 423.09, 286.24 421.57 C 291.95 420.04, 295.00 419.17, 300.39 417.36 C 305.77 415.55, 308.51 414.51, 313.15 412.53 C 317.80 410.55, 320.06 409.49, 323.60 407.46 C 327.15 405.44, 328.88 404.49, 330.88 402.40 C 332.88 400.30, 333.43 398.93, 333.58 396.98 C 333.74 395.03, 333.23 393.82, 331.65 392.64 C 330.07 391.46, 328.53 390.78, 325.68 391.07 C 322.83 391.35, 320.97 392.16, 317.40 394.08 C 313.84 396.00, 311.73 397.45, 307.85 400.68 C 303.98 403.90, 301.71 406.04, 298.04 410.22 C 294.38 414.40, 292.38 416.96, 289.53 421.59 C 286.67 426.23, 285.32 428.85, 283.74 433.40 C 282.17 437.96, 281.61 440.37, 281.65 444.36 C 281.69 448.35, 282.13 450.44, 283.95 453.37 C 285.77 456.31, 287.38 457.68, 290.74 459.03 C 294.10 460.37, 296.31 460.58, 300.76 460.11 C 305.21 459.65, 307.69 458.94, 312.98 456.70 C 318.27 454.46, 321.26 452.85, 327.21 448.91 C 333.16 444.97, 336.39 442.46, 342.73 437.01 C 349.06 431.55, 352.47 428.23, 358.90 421.62 C 365.32 415.00, 368.77 411.15, 374.85 403.92 C 380.93 396.69, 384.03 392.64, 389.30 385.46 C 394.57 378.29, 397.14 374.50, 401.19 368.06 C 405.24 361.62, 406.97 358.48, 409.52 353.28 C 412.08 348.08, 413.12 345.82, 413.96 342.07 C 414.80 338.32, 414.80 336.67, 413.71 334.53 C 412.63 332.39, 411.25 331.37, 408.53 331.39 C 405.82 331.41, 403.97 332.14, 400.14 334.64 C 396.31 337.13, 394.12 339.10, 389.38 343.87 C 384.64 348.64, 381.76 351.79, 376.44 358.48 C 371.12 365.17, 367.99 369.40, 362.79 377.31 C 357.58 385.22, 354.72 389.87, 350.40 398.04 C 346.08 406.20, 344.01 410.68, 341.18 418.13 C 338.36 425.58, 337.26 429.31, 336.29 435.29 C 335.32 441.26, 335.20 443.96, 336.33 448.00 C 337.47 452.03, 338.78 453.80, 341.97 455.46 C 345.15 457.12, 347.52 457.20, 352.25 456.29 C 356.99 455.38, 359.77 454.16, 365.65 450.92 C 371.52 447.68, 374.94 445.31, 381.62 440.08 C 388.30 434.86, 392.07 431.50, 399.05 424.81 C 406.02 418.11, 409.78 414.05, 416.51 406.60 C 423.23 399.14, 426.78 394.93, 432.69 387.52 C 438.59 380.11, 441.48 376.18, 446.03 369.54 C 450.58 362.91, 452.54 359.63, 455.43 354.34 C 458.32 349.05, 459.54 346.80, 460.49 343.11 C 461.44 339.42, 461.32 337.82, 460.18 335.89 C 459.05 333.95, 457.53 333.11, 454.82 333.43 C 452.10 333.76, 450.30 334.78, 446.61 337.52 C 442.91 340.26, 440.82 342.31, 436.34 347.13 C 431.85 351.94, 429.16 355.10, 424.17 361.61 C 419.18 368.12, 416.30 372.17, 411.39 379.69 C 406.49 387.22, 403.80 391.54, 399.67 399.23 C 395.53 406.92, 393.48 411.11, 390.71 418.14 C 387.94 425.17, 386.84 428.65, 385.81 434.36 C 384.79 440.07, 384.62 442.66, 385.60 446.71 C 386.58 450.76, 387.74 452.55, 390.73 454.60 C 393.72 456.65, 396.01 456.99, 400.54 456.94 C 405.08 456.88, 407.88 456.13, 413.42 454.33 C 418.97 452.54, 422.18 450.97, 428.28 447.96 C 434.38 444.95, 437.83 442.87, 443.93 439.27 C 450.03 435.67, 453.36 433.47, 458.79 429.96 C 464.21 426.46, 466.93 424.55, 471.06 421.74 C 475.19 418.92, 477.21 417.90, 479.44 415.90 C 481.67 413.89, 482.10 412.89, 482.20 411.71 C 482.30 410.53, 481.55 410.04, 479.95 409.99 C 478.35 409.95, 476.68 410.09, 474.20 411.50 C 471.72 412.90, 470.25 414.44, 467.54 417.03 C 464.84 419.61, 463.27 421.33, 460.68 424.43 C 458.09 427.53, 456.59 429.33, 454.62 432.52 C 452.64 435.70, 451.52 437.40, 450.79 440.36 C 450.07 443.31, 450.16 444.96, 450.99 447.30 C 451.83 449.64, 452.76 450.80, 454.98 452.07 C 457.19 453.35, 458.86 453.81, 462.06 453.69 C 465.27 453.57, 467.25 452.87, 471.00 451.47 C 474.75 450.07, 476.96 448.98, 480.82 446.69 C 484.68 444.40, 486.84 442.88, 490.31 440.03 C 493.78 437.18, 495.58 435.51, 498.18 432.45 C 500.78 429.38, 502.02 427.74, 503.31 424.69 C 504.60 421.65, 504.89 419.92, 504.64 417.21 C 504.39 414.49, 503.65 413.11, 502.06 411.12 C 500.46 409.12, 499.07 408.27, 496.66 407.22 C 494.26 406.17, 492.56 405.87, 490.02 405.86 C 487.49 405.85, 485.90 406.20, 483.97 407.16 C 482.05 408.13, 481.04 409.12, 480.41 410.68 C 479.79 412.24, 479.78 413.48, 480.86 414.99 C 481.94 416.49, 483.05 417.53, 485.81 418.21 C 488.57 418.89, 490.54 418.61, 494.67 418.39 C 498.81 418.17, 501.37 417.83, 506.49 417.13 C 511.62 416.43, 514.63 415.86, 520.30 414.88 C 525.97 413.90, 529.13 413.25, 534.82 412.22 C 540.51 411.19, 543.53 410.59, 548.74 409.72 C 553.96 408.85, 556.77 408.37, 560.91 407.86 C 565.06 407.34, 566.82 407.55, 569.46 407.16 C 572.11 406.77, 572.83 406.31, 574.14 405.90 C 575.45 405.48, 575.64 405.42, 576.01 405.09 C 576.37 404.75, 576.37 404.49, 575.95 404.21 C 575.53 403.92, 575.30 403.79, 573.92 403.65 C 572.53 403.50, 571.71 403.21, 569.02 403.47 C 566.33 403.72, 564.61 404.17, 560.47 404.92 C 556.32 405.67, 553.51 406.23, 548.30 407.21 C 543.08 408.20, 540.07 408.81, 534.39 409.83 C 528.71 410.86, 525.53 411.48, 519.89 412.34 C 514.24 413.19, 511.21 413.69, 506.16 414.12 C 501.11 414.55, 498.51 414.59, 494.63 414.46 C 490.75 414.33, 489.09 413.80, 486.75 413.47 C 484.41 413.14, 483.71 413.07, 482.92 412.81 C 482.14 412.55, 482.30 412.45, 482.82 412.16 C 483.33 411.86, 484.08 411.62, 485.52 411.35 C 486.95 411.07, 488.08 410.76, 489.99 410.78 C 491.90 410.80, 493.21 410.88, 495.06 411.44 C 496.90 412.01, 498.01 412.39, 499.20 413.60 C 500.40 414.81, 500.90 415.58, 501.03 417.50 C 501.16 419.42, 500.92 420.66, 499.83 423.21 C 498.74 425.77, 497.90 427.43, 495.58 430.29 C 493.26 433.15, 491.54 434.82, 488.25 437.51 C 484.96 440.20, 482.82 441.67, 479.12 443.72 C 475.41 445.78, 473.19 446.69, 469.73 447.79 C 466.27 448.89, 464.44 449.00, 461.81 449.21 C 459.18 449.43, 458.10 449.44, 456.57 448.86 C 455.04 448.28, 454.52 447.79, 454.16 446.31 C 453.81 444.83, 454.04 443.82, 454.78 441.46 C 455.53 439.11, 456.13 437.44, 457.90 434.54 C 459.67 431.65, 461.08 429.80, 463.63 427.00 C 466.18 424.20, 467.94 422.75, 470.65 420.54 C 473.37 418.33, 475.17 417.61, 477.21 415.96 C 479.26 414.32, 480.10 413.30, 480.87 412.31 C 481.65 411.33, 481.81 410.86, 481.09 411.06 C 480.38 411.25, 479.60 411.57, 477.30 413.30 C 475.00 415.03, 473.53 416.72, 469.60 419.70 C 465.66 422.68, 462.96 424.63, 457.62 428.18 C 452.27 431.74, 448.95 433.93, 442.89 437.49 C 436.82 441.05, 433.35 443.08, 427.31 445.97 C 421.27 448.86, 418.03 450.29, 412.66 451.93 C 407.30 453.56, 404.59 454.08, 400.50 454.16 C 396.42 454.24, 394.76 453.92, 392.24 452.32 C 389.73 450.71, 388.83 449.65, 387.94 446.13 C 387.05 442.61, 386.92 440.17, 387.80 434.70 C 388.67 429.22, 389.66 425.70, 392.32 418.76 C 394.97 411.82, 396.99 407.62, 401.08 399.99 C 405.17 392.36, 407.86 388.04, 412.77 380.60 C 417.69 373.16, 420.60 369.13, 425.66 362.77 C 430.72 356.41, 433.51 353.34, 438.06 348.79 C 442.62 344.25, 444.97 342.52, 448.44 340.05 C 451.92 337.58, 453.46 337.08, 455.43 336.44 C 457.41 335.81, 457.82 335.66, 458.34 336.86 C 458.85 338.06, 458.93 339.13, 458.00 342.44 C 457.08 345.76, 456.37 348.19, 453.71 353.43 C 451.06 358.68, 449.15 362.01, 444.72 368.65 C 440.29 375.29, 437.42 379.23, 431.57 386.63 C 425.71 394.03, 422.17 398.23, 415.46 405.65 C 408.74 413.06, 404.98 417.10, 398.00 423.70 C 391.01 430.31, 387.21 433.61, 380.53 438.67 C 373.86 443.73, 370.36 445.97, 364.61 448.99 C 358.86 452.01, 356.06 452.95, 351.77 453.77 C 347.48 454.60, 345.79 454.40, 343.15 453.12 C 340.51 451.84, 339.56 450.87, 338.57 447.37 C 337.58 443.86, 337.36 441.31, 338.19 435.58 C 339.02 429.85, 340.00 426.07, 342.72 418.70 C 345.43 411.34, 347.47 406.86, 351.75 398.75 C 356.03 390.65, 358.88 386.01, 364.10 378.18 C 369.33 370.36, 372.48 366.15, 377.86 359.63 C 383.24 353.10, 386.23 350.03, 391.01 345.55 C 395.80 341.07, 398.25 339.45, 401.80 337.22 C 405.35 334.99, 406.81 334.72, 408.77 334.38 C 410.72 334.03, 411.06 334.07, 411.58 335.49 C 412.10 336.91, 412.14 338.10, 411.37 341.48 C 410.59 344.86, 410.01 347.27, 407.69 352.41 C 405.37 357.55, 403.69 360.75, 399.77 367.18 C 395.84 373.61, 393.29 377.41, 388.08 384.57 C 382.87 391.73, 379.77 395.78, 373.72 402.97 C 367.66 410.16, 364.21 413.99, 357.79 420.54 C 351.37 427.08, 347.94 430.36, 341.60 435.69 C 335.27 441.02, 332.01 443.45, 326.10 447.19 C 320.18 450.93, 317.16 452.40, 312.04 454.39 C 306.92 456.37, 304.50 456.81, 300.49 457.12 C 296.48 457.42, 294.73 457.02, 291.98 455.92 C 289.24 454.82, 288.21 453.95, 286.75 451.62 C 285.29 449.30, 284.75 447.78, 284.67 444.31 C 284.58 440.84, 284.91 438.55, 286.33 434.28 C 287.75 430.01, 289.00 427.41, 291.75 422.96 C 294.49 418.51, 296.46 416.00, 300.07 412.03 C 303.68 408.06, 305.98 406.01, 309.80 403.13 C 313.62 400.25, 315.85 399.13, 319.17 397.62 C 322.49 396.11, 324.16 396.08, 326.39 395.57 C 328.62 395.06, 329.40 394.89, 330.33 395.08 C 331.27 395.26, 331.48 395.54, 331.06 396.48 C 330.65 397.42, 330.07 398.08, 328.26 399.76 C 326.46 401.43, 325.26 402.78, 322.03 404.86 C 318.79 406.94, 316.59 408.12, 312.11 410.17 C 307.63 412.22, 304.92 413.29, 299.62 415.11 C 294.33 416.94, 291.29 417.81, 285.63 419.30 C 279.98 420.78, 276.94 421.46, 271.35 422.53 C 265.75 423.60, 262.81 424.07, 257.68 424.64 C 252.54 425.21, 249.92 425.32, 245.67 425.37 C 241.43 425.41, 239.44 424.91, 236.46 424.87 C 233.48 424.84, 232.44 425.00, 230.78 425.18 C 229.13 425.36, 228.76 425.32, 228.17 425.77 C 227.58 426.21, 227.40 426.74, 227.85 427.39" style="stroke: black; fill: black;"/><path d="M 665.96,408.30 C 666.80 408.08, 667.33 407.31, 668.41 406.25 C 669.50 405.19, 670.10 404.43, 671.37 402.99 C 672.64 401.56, 673.46 400.50, 674.78 399.10 C 676.10 397.70, 676.83 397.00, 677.98 395.99 C 679.12 394.98, 679.78 394.59, 680.51 394.04 C 681.24 393.49, 681.57 393.00, 681.63 393.24 C 681.70 393.48, 681.44 393.66, 680.83 395.24 C 680.23 396.82, 679.82 398.12, 678.59 401.13 C 677.36 404.14, 676.58 406.34, 674.69 410.30 C 672.79 414.25, 671.35 416.72, 669.11 420.89 C 666.86 425.06, 665.40 427.40, 663.46 431.15 C 661.53 434.91, 660.27 436.69, 659.42 439.66 C 658.57 442.64, 658.54 444.13, 659.21 446.03 C 659.88 447.92, 660.76 448.71, 662.78 449.12 C 664.80 449.53, 666.39 449.36, 669.30 448.07 C 672.21 446.79, 673.83 445.29, 677.34 442.71 C 680.84 440.14, 682.94 438.34, 686.81 435.21 C 690.69 432.08, 692.93 430.11, 696.72 427.08 C 700.51 424.04, 702.87 422.31, 705.79 420.03 C 708.70 417.75, 710.07 416.68, 711.29 415.68 C 712.52 414.67, 712.06 414.33, 711.93 415.02 C 711.79 415.70, 710.42 418.18, 710.61 419.11 C 710.79 420.04, 712.23 420.54, 712.85 419.65 C 713.47 418.75, 714.24 415.94, 713.70 414.65 C 713.17 413.37, 712.17 412.72, 710.15 413.23 C 708.14 413.74, 706.71 414.91, 703.63 417.21 C 700.56 419.50, 698.54 421.60, 694.79 424.70 C 691.03 427.80, 688.79 429.74, 684.87 432.72 C 680.95 435.70, 678.71 437.35, 675.20 439.60 C 671.68 441.86, 669.77 442.65, 667.30 444.00 C 664.84 445.34, 664.00 446.05, 662.87 446.35 C 661.75 446.66, 661.61 446.61, 661.67 445.52 C 661.72 444.42, 662.18 443.45, 663.14 440.87 C 664.10 438.30, 664.69 436.32, 666.46 432.64 C 668.22 428.96, 669.66 426.59, 671.97 422.46 C 674.27 418.33, 675.79 415.90, 677.97 412.01 C 680.16 408.11, 681.48 406.17, 682.90 402.97 C 684.31 399.78, 684.95 398.29, 685.05 396.03 C 685.16 393.77, 684.53 392.73, 683.44 391.65 C 682.34 390.57, 681.19 390.54, 679.57 390.63 C 677.96 390.72, 677.10 391.20, 675.38 392.10 C 673.66 393.01, 672.63 393.66, 670.96 395.15 C 669.30 396.65, 668.29 397.81, 667.04 399.56 C 665.79 401.32, 665.28 402.37, 664.72 403.92 C 664.15 405.48, 663.96 406.47, 664.21 407.35 C 664.46 408.22, 665.12 408.51, 665.96 408.30" style="stroke: black; fill: black;"/><path d="M 709.37,445.12 C 710.38 445.40, 711.56 445.37, 713.77 444.72 C 715.98 444.07, 717.49 443.51, 720.43 441.87 C 723.37 440.22, 725.26 438.94, 728.48 436.51 C 731.69 434.08, 733.45 432.52, 736.51 429.73 C 739.56 426.93, 741.13 425.36, 743.74 422.54 C 746.35 419.71, 747.63 418.25, 749.57 415.60 C 751.52 412.95, 752.36 411.60, 753.45 409.27 C 754.53 406.95, 754.79 405.82, 755.00 403.99 C 755.21 402.16, 755.03 401.32, 754.50 400.10 C 753.97 398.89, 753.36 398.30, 752.35 397.92 C 751.33 397.53, 750.35 397.57, 749.41 398.17 C 748.48 398.78, 747.85 399.65, 747.69 400.96 C 747.52 402.26, 747.73 403.26, 748.59 404.70 C 749.46 406.14, 750.20 406.96, 752.03 408.16 C 753.87 409.35, 755.09 410.00, 757.78 410.68 C 760.47 411.37, 762.14 411.50, 765.50 411.59 C 768.85 411.67, 770.75 411.49, 774.55 411.12 C 778.35 410.74, 780.49 410.41, 784.49 409.71 C 788.48 409.02, 790.70 408.50, 794.52 407.65 C 798.34 406.80, 800.40 406.30, 803.59 405.47 C 806.77 404.65, 808.43 404.38, 810.45 403.51 C 812.47 402.64, 813.38 401.78, 813.69 401.13 C 814.00 400.48, 813.50 399.83, 811.99 400.26 C 810.49 400.69, 809.02 401.33, 806.17 403.27 C 803.32 405.22, 801.43 406.94, 797.76 409.98 C 794.09 413.02, 791.62 414.97, 787.83 418.46 C 784.04 421.96, 781.84 423.99, 778.82 427.46 C 775.79 430.93, 774.26 432.70, 772.71 435.82 C 771.16 438.95, 770.73 440.60, 771.06 443.09 C 771.39 445.59, 772.26 446.91, 774.37 448.30 C 776.47 449.70, 778.25 450.15, 781.59 450.06 C 784.93 449.96, 787.06 449.24, 791.09 447.81 C 795.12 446.37, 797.47 445.22, 801.73 442.90 C 805.99 440.58, 808.39 439.07, 812.38 436.20 C 816.37 433.33, 818.47 431.64, 821.69 428.56 C 824.91 425.48, 826.43 423.81, 828.48 420.78 C 830.53 417.76, 831.31 416.17, 831.93 413.43 C 832.56 410.69, 832.26 409.28, 831.59 407.10 C 830.92 404.93, 830.04 403.91, 828.59 402.55 C 827.13 401.19, 825.88 400.54, 824.29 400.31 C 822.71 400.07, 821.47 400.55, 820.67 401.38 C 819.87 402.21, 819.59 403.34, 820.30 404.47 C 821.01 405.61, 821.86 406.50, 824.23 407.06 C 826.60 407.62, 828.39 407.49, 832.15 407.27 C 835.91 407.05, 838.28 406.63, 843.03 405.96 C 847.79 405.29, 850.66 404.78, 855.92 403.94 C 861.17 403.10, 864.17 402.47, 869.31 401.77 C 874.45 401.06, 877.23 400.62, 881.62 400.41 C 886.01 400.21, 888.23 400.33, 891.27 400.75 C 894.32 401.17, 895.48 401.44, 896.85 402.50 C 898.22 403.56, 898.30 404.12, 898.12 406.06 C 897.94 408.00, 897.42 409.33, 895.95 412.20 C 894.49 415.06, 893.25 417.07, 890.81 420.37 C 888.36 423.67, 886.39 425.79, 883.72 428.70 C 881.05 431.61, 879.06 432.98, 877.44 434.92 C 875.83 436.85, 875.58 437.86, 875.64 438.38 C 875.71 438.89, 876.41 438.79, 877.77 437.51 C 879.14 436.22, 880.26 434.69, 882.46 431.96 C 884.67 429.24, 886.09 427.06, 888.81 423.88 C 891.53 420.69, 893.16 418.83, 896.04 416.04 C 898.92 413.25, 900.53 411.92, 903.23 409.91 C 905.94 407.91, 907.27 407.22, 909.57 406.03 C 911.87 404.84, 912.71 404.46, 914.74 403.96 C 916.78 403.47, 917.59 403.61, 919.74 403.57 C 921.90 403.54, 922.96 403.86, 925.53 403.79 C 928.10 403.72, 929.51 403.79, 932.58 403.20 C 935.65 402.61, 937.26 402.18, 940.88 400.83 C 944.51 399.48, 946.50 398.64, 950.71 396.46 C 954.91 394.29, 957.26 392.96, 961.92 389.95 C 966.58 386.94, 969.18 385.12, 974.01 381.41 C 978.84 377.70, 981.51 375.50, 986.08 371.40 C 990.64 367.29, 993.00 364.98, 996.84 360.88 C 1000.68 356.79, 1002.54 354.60, 1005.28 350.92 C 1008.02 347.24, 1009.35 345.49, 1010.54 342.48 C 1011.73 339.46, 1011.80 337.91, 1011.21 335.82 C 1010.62 333.74, 1009.70 332.70, 1007.59 332.05 C 1005.49 331.40, 1003.85 331.32, 1000.69 332.57 C 997.53 333.82, 995.77 335.19, 991.80 338.31 C 987.83 341.42, 985.45 343.50, 980.83 348.15 C 976.22 352.80, 973.53 355.71, 968.72 361.54 C 963.90 367.38, 961.19 370.84, 956.78 377.31 C 952.36 383.78, 950.08 387.43, 946.63 393.89 C 943.17 400.34, 941.57 403.74, 939.49 409.57 C 937.42 415.41, 936.68 418.28, 936.26 423.08 C 935.83 427.88, 935.97 430.12, 937.37 433.59 C 938.77 437.06, 940.17 438.56, 943.26 440.43 C 946.36 442.30, 948.50 442.71, 952.86 442.94 C 957.23 443.18, 959.84 442.73, 965.10 441.62 C 970.35 440.51, 973.35 439.43, 979.13 437.40 C 984.91 435.37, 988.16 433.94, 993.98 431.47 C 999.81 429.01, 1002.99 427.49, 1008.26 425.07 C 1013.53 422.65, 1016.14 421.32, 1020.32 419.38 C 1024.51 417.44, 1026.50 416.82, 1029.19 415.36 C 1031.88 413.90, 1032.77 413.23, 1033.76 412.08 C 1034.76 410.94, 1034.68 410.37, 1034.16 409.64 C 1033.63 408.91, 1032.82 408.48, 1031.16 408.44 C 1029.49 408.39, 1028.18 408.50, 1025.84 409.43 C 1023.49 410.35, 1022.10 411.30, 1019.42 413.07 C 1016.73 414.85, 1015.22 416.01, 1012.39 418.29 C 1009.56 420.57, 1007.94 421.90, 1005.29 424.46 C 1002.64 427.02, 1001.22 428.45, 999.14 431.09 C 997.06 433.74, 995.94 435.16, 994.88 437.68 C 993.82 440.19, 993.56 441.60, 993.83 443.67 C 994.11 445.74, 994.66 446.84, 996.27 448.03 C 997.87 449.21, 999.20 449.79, 1001.86 449.61 C 1004.52 449.42, 1006.18 448.79, 1009.58 447.10 C 1012.97 445.42, 1014.83 444.14, 1018.83 441.19 C 1022.83 438.24, 1025.08 436.38, 1029.58 432.36 C 1034.09 428.34, 1036.59 425.94, 1041.35 421.09 C 1046.10 416.25, 1048.69 413.50, 1053.36 408.15 C 1058.03 402.80, 1060.40 399.82, 1064.70 394.34 C 1069.01 388.86, 1071.19 385.93, 1074.89 380.76 C 1078.59 375.59, 1080.31 372.94, 1083.19 368.48 C 1086.06 364.01, 1087.41 361.95, 1089.27 358.44 C 1091.12 354.94, 1092.14 353.19, 1092.45 350.97 C 1092.76 348.75, 1092.16 347.60, 1090.82 347.33 C 1089.48 347.07, 1088.02 347.42, 1085.77 349.65 C 1083.52 351.88, 1082.42 354.07, 1079.59 358.49 C 1076.76 362.92, 1074.92 365.97, 1071.61 371.77 C 1068.30 377.57, 1066.28 381.11, 1063.03 387.48 C 1059.78 393.84, 1058.02 397.35, 1055.36 403.60 C 1052.70 409.85, 1051.43 413.09, 1049.74 418.72 C 1048.05 424.36, 1047.34 427.10, 1046.91 431.77 C 1046.48 436.43, 1046.54 438.56, 1047.58 442.05 C 1048.62 445.55, 1049.63 447.15, 1052.11 449.25 C 1054.60 451.34, 1056.43 451.98, 1060.01 452.55 C 1063.58 453.12, 1065.74 452.91, 1069.98 452.11 C 1074.22 451.31, 1076.62 450.44, 1081.19 448.53 C 1085.77 446.63, 1088.28 445.29, 1092.87 442.59 C 1097.46 439.90, 1099.88 438.23, 1104.15 435.07 C 1108.43 431.90, 1110.55 430.11, 1114.24 426.76 C 1117.92 423.41, 1119.63 421.61, 1122.58 418.32 C 1125.53 415.02, 1126.79 413.35, 1128.99 410.30 C 1131.19 407.25, 1132.07 405.79, 1133.58 403.06 C 1135.10 400.34, 1135.65 399.07, 1136.55 396.66 C 1137.45 394.26, 1137.78 392.92, 1138.08 391.04 C 1138.38 389.16, 1138.35 388.10, 1138.05 387.26 C 1137.74 386.43, 1137.22 386.33, 1136.56 386.88 C 1135.89 387.43, 1135.51 388.36, 1134.73 390.01 C 1133.95 391.67, 1133.54 392.89, 1132.64 395.15 C 1131.73 397.41, 1131.47 398.66, 1130.20 401.32 C 1128.94 403.98, 1128.26 405.44, 1126.31 408.46 C 1124.35 411.48, 1123.19 413.16, 1120.42 416.43 C 1117.64 419.70, 1116.00 421.50, 1112.44 424.81 C 1108.88 428.12, 1106.79 429.89, 1102.61 432.98 C 1098.43 436.07, 1096.03 437.69, 1091.52 440.26 C 1087.02 442.82, 1084.51 444.07, 1080.09 445.79 C 1075.67 447.51, 1073.31 448.20, 1069.40 448.85 C 1065.49 449.50, 1063.57 449.50, 1060.55 449.05 C 1057.52 448.60, 1056.29 448.18, 1054.27 446.60 C 1052.25 445.02, 1051.41 444.09, 1050.44 441.16 C 1049.47 438.23, 1049.15 436.33, 1049.43 431.97 C 1049.70 427.60, 1050.27 424.85, 1051.83 419.33 C 1053.39 413.82, 1054.61 410.57, 1057.22 404.39 C 1059.83 398.22, 1061.59 394.71, 1064.89 388.44 C 1068.19 382.16, 1070.25 378.65, 1073.71 373.02 C 1077.18 367.39, 1079.21 364.43, 1082.21 360.28 C 1085.22 356.12, 1086.99 354.59, 1088.74 352.24 C 1090.49 349.89, 1090.75 348.94, 1090.94 348.52 C 1091.14 348.10, 1090.59 348.44, 1089.72 350.14 C 1088.84 351.85, 1088.29 353.65, 1086.59 357.07 C 1084.88 360.48, 1083.87 362.74, 1081.19 367.24 C 1078.51 371.74, 1076.81 374.39, 1073.21 379.57 C 1069.60 384.75, 1067.43 387.69, 1063.17 393.14 C 1058.90 398.60, 1056.55 401.56, 1051.88 406.85 C 1047.21 412.14, 1044.62 414.86, 1039.83 419.59 C 1035.05 424.32, 1032.52 426.68, 1027.97 430.50 C 1023.42 434.31, 1021.10 436.07, 1017.09 438.66 C 1013.07 441.24, 1011.04 442.09, 1007.88 443.42 C 1004.73 444.75, 1003.32 444.90, 1001.31 445.31 C 999.30 445.73, 998.70 445.85, 997.85 445.50 C 996.99 445.15, 996.88 444.77, 997.05 443.57 C 997.22 442.37, 997.63 441.48, 998.71 439.49 C 999.78 437.51, 1000.55 436.08, 1002.42 433.65 C 1004.29 431.21, 1005.54 429.72, 1008.04 427.32 C 1010.54 424.92, 1012.14 423.62, 1014.94 421.65 C 1017.73 419.67, 1019.35 418.82, 1022.00 417.43 C 1024.65 416.04, 1026.12 415.72, 1028.18 414.69 C 1030.24 413.65, 1031.17 413.12, 1032.29 412.24 C 1033.42 411.36, 1033.78 410.73, 1033.80 410.30 C 1033.82 409.86, 1033.65 409.67, 1032.39 410.05 C 1031.13 410.44, 1030.17 410.83, 1027.51 412.21 C 1024.86 413.59, 1023.17 414.81, 1019.12 416.96 C 1015.07 419.10, 1012.47 420.46, 1007.26 422.94 C 1002.06 425.42, 998.88 426.94, 993.10 429.38 C 987.32 431.81, 984.05 433.20, 978.35 435.12 C 972.64 437.03, 969.62 437.99, 964.56 438.95 C 959.50 439.91, 956.98 440.16, 953.03 439.93 C 949.09 439.69, 947.43 439.26, 944.82 437.78 C 942.20 436.30, 941.19 435.42, 939.96 432.52 C 938.72 429.61, 938.34 427.72, 938.63 423.26 C 938.93 418.81, 939.49 415.94, 941.42 410.24 C 943.34 404.54, 944.89 401.14, 948.26 394.76 C 951.64 388.38, 953.89 384.73, 958.29 378.35 C 962.68 371.96, 965.40 368.52, 970.24 362.82 C 975.08 357.12, 977.81 354.26, 982.49 349.85 C 987.17 345.45, 989.69 343.52, 993.64 340.81 C 997.59 338.09, 999.57 337.49, 1002.25 336.29 C 1004.93 335.10, 1005.77 334.83, 1007.05 334.84 C 1008.33 334.84, 1008.60 335.05, 1008.66 336.32 C 1008.72 337.58, 1008.47 338.56, 1007.34 341.16 C 1006.22 343.76, 1005.49 345.70, 1003.04 349.32 C 1000.58 352.94, 998.78 355.18, 995.08 359.26 C 991.38 363.33, 989.05 365.64, 984.55 369.70 C 980.05 373.75, 977.38 375.92, 972.58 379.53 C 967.77 383.14, 965.17 384.89, 960.53 387.73 C 955.88 390.57, 953.52 391.80, 949.37 393.72 C 945.21 395.65, 943.22 396.33, 939.73 397.35 C 936.23 398.38, 934.74 398.47, 931.87 398.85 C 928.99 399.24, 927.81 399.15, 925.35 399.28 C 922.88 399.41, 921.83 399.31, 919.53 399.51 C 917.23 399.71, 916.20 399.69, 913.84 400.29 C 911.47 400.88, 910.28 401.13, 907.72 402.47 C 905.16 403.82, 903.85 404.82, 901.03 407.02 C 898.21 409.23, 896.66 410.65, 893.62 413.49 C 890.58 416.33, 888.80 418.08, 885.84 421.21 C 882.88 424.33, 881.00 426.19, 878.80 429.11 C 876.61 432.02, 875.50 433.75, 874.88 435.77 C 874.26 437.80, 874.64 438.81, 875.72 439.24 C 876.79 439.67, 878.06 439.52, 880.24 437.94 C 882.43 436.36, 883.90 434.38, 886.62 431.32 C 889.35 428.26, 891.27 426.12, 893.86 422.64 C 896.45 419.17, 898.02 417.27, 899.57 413.96 C 901.12 410.65, 901.75 408.83, 901.59 406.08 C 901.44 403.32, 900.76 401.92, 898.79 400.18 C 896.83 398.44, 895.23 397.93, 891.76 397.40 C 888.29 396.87, 886.01 397.17, 881.45 397.51 C 876.88 397.85, 874.13 398.35, 868.94 399.08 C 863.75 399.81, 860.76 400.43, 855.51 401.14 C 850.25 401.86, 847.37 402.32, 842.68 402.65 C 838.00 402.97, 835.63 402.90, 832.09 402.78 C 828.54 402.66, 827.06 402.15, 824.97 402.05 C 822.87 401.96, 822.33 402.02, 821.61 402.30 C 820.90 402.57, 821.08 402.98, 821.39 403.42 C 821.71 403.85, 822.27 404.06, 823.21 404.48 C 824.14 404.90, 825.05 404.80, 826.06 405.53 C 827.07 406.26, 827.81 406.73, 828.26 408.14 C 828.71 409.55, 828.85 410.42, 828.32 412.57 C 827.78 414.72, 827.35 416.13, 825.60 418.89 C 823.85 421.65, 822.55 423.39, 819.56 426.37 C 816.57 429.35, 814.52 431.04, 810.66 433.79 C 806.80 436.54, 804.40 438.00, 800.26 440.10 C 796.11 442.21, 793.72 443.17, 789.94 444.32 C 786.16 445.46, 784.16 445.60, 781.36 445.83 C 778.56 446.07, 777.40 446.10, 775.93 445.50 C 774.47 444.90, 774.05 444.46, 774.03 442.84 C 774.00 441.22, 774.38 440.08, 775.80 437.41 C 777.23 434.73, 778.33 432.79, 781.15 429.46 C 783.97 426.13, 786.12 424.07, 789.89 420.75 C 793.67 417.44, 796.24 415.65, 800.03 412.90 C 803.81 410.15, 806.08 409.06, 808.83 407.02 C 811.59 404.98, 812.85 404.11, 813.82 402.69 C 814.78 401.26, 814.55 400.50, 813.65 399.89 C 812.76 399.28, 811.57 399.28, 809.34 399.62 C 807.12 399.96, 805.65 400.69, 802.52 401.59 C 799.39 402.50, 797.43 403.23, 793.70 404.15 C 789.98 405.07, 787.79 405.57, 783.90 406.18 C 780.01 406.80, 777.89 407.06, 774.26 407.23 C 770.64 407.39, 768.81 407.33, 765.79 407.01 C 762.77 406.68, 761.37 406.26, 759.16 405.62 C 756.94 404.97, 756.05 404.53, 754.72 403.78 C 753.39 403.03, 753.11 402.48, 752.50 401.88 C 751.89 401.27, 751.91 401.04, 751.67 400.76 C 751.43 400.48, 751.36 400.55, 751.28 400.46 C 751.20 400.38, 751.18 400.22, 751.26 400.32 C 751.34 400.43, 751.62 400.40, 751.67 401.00 C 751.72 401.60, 751.88 402.04, 751.51 403.33 C 751.13 404.63, 750.80 405.48, 749.77 407.48 C 748.74 409.48, 748.10 410.79, 746.37 413.33 C 744.63 415.86, 743.56 417.40, 741.11 420.15 C 738.66 422.90, 737.12 424.45, 734.13 427.08 C 731.14 429.71, 729.36 431.14, 726.17 433.29 C 722.99 435.43, 721.01 436.29, 718.20 437.81 C 715.39 439.33, 714.02 439.77, 712.12 440.88 C 710.23 441.99, 709.27 442.51, 708.72 443.36 C 708.17 444.20, 708.37 444.85, 709.37 445.12" style="stroke: black; fill: black;"/><path d="M 1202.29,336.49 C 1201.56 336.88, 1201.28 337.34, 1200.25 338.98 C 1199.23 340.63, 1198.65 341.70, 1197.18 344.72 C 1195.72 347.74, 1194.95 349.95, 1192.93 354.09 C 1190.91 358.23, 1189.57 360.78, 1187.08 365.43 C 1184.59 370.07, 1183.03 372.65, 1180.49 377.30 C 1177.96 381.96, 1175.22 386.19, 1174.41 388.69 C 1173.59 391.19, 1174.73 391.82, 1176.41 389.79 C 1178.08 387.77, 1180.14 383.17, 1182.77 378.58 C 1185.41 373.99, 1186.95 371.40, 1189.60 366.83 C 1192.25 362.26, 1193.69 359.75, 1196.01 355.73 C 1198.34 351.71, 1199.65 349.77, 1201.21 346.73 C 1202.77 343.69, 1203.28 342.47, 1203.82 340.53 C 1204.36 338.60, 1204.20 337.86, 1203.89 337.06 C 1203.59 336.25, 1203.02 336.11, 1202.29 336.49" style="stroke: black; fill: black;"/><path d="M 1170.20,414.50 C 1169.33 414.55, 1168.53 415.14, 1167.90 415.85 C 1167.27 416.57, 1167.09 417.24, 1167.06 418.08 C 1167.04 418.92, 1167.40 419.52, 1167.76 420.04 C 1168.12 420.56, 1168.53 420.61, 1168.88 420.69 C 1169.22 420.77, 1169.19 420.50, 1169.48 420.45 C 1169.78 420.39, 1169.87 420.56, 1170.33 420.41 C 1170.79 420.27, 1171.34 420.21, 1171.77 419.72 C 1172.21 419.24, 1172.40 418.82, 1172.49 418.00 C 1172.58 417.18, 1172.69 416.32, 1172.23 415.62 C 1171.78 414.92, 1171.07 414.46, 1170.20 414.50" style="stroke: black; fill: black;"/></svg>