<svg xmlns="http://www.w3.org/2000/svg" id="canvas" viewBox="222.974 331.692 844.630 135.567"><path d="M 254.82,335.38 C 254.30 336.13, 254.37 336.98, 254.19 338.89 C 254.01 340.79, 254.05 341.78, 253.93 344.89 C 253.80 348.00, 254.17 350.12, 253.55 354.42 C 252.93 358.73, 252.29 361.18, 250.82 366.42 C 249.35 371.67, 248.08 374.73, 246.19 380.64 C 244.29 386.54, 243.20 389.61, 241.36 395.94 C 239.53 402.27, 238.76 406.07, 237.01 412.29 C 235.26 418.51, 234.09 421.48, 232.59 427.05 C 231.10 432.62, 230.61 435.33, 229.55 440.15 C 228.48 444.96, 228.00 447.40, 227.29 451.12 C 226.58 454.84, 226.05 456.38, 225.98 458.75 C 225.91 461.12, 226.47 461.85, 226.95 462.95 C 227.44 464.04, 227.92 464.12, 228.41 464.24 C 228.89 464.37, 229.35 463.79, 229.38 463.57 C 229.41 463.34, 228.67 463.09, 228.56 463.12 C 228.46 463.15, 228.64 463.82, 228.84 463.71 C 229.05 463.61, 229.38 463.52, 229.58 462.58 C 229.78 461.63, 229.61 461.18, 229.84 459.00 C 230.06 456.81, 230.21 455.33, 230.69 451.67 C 231.17 448.00, 231.39 445.48, 232.24 440.68 C 233.09 435.88, 233.55 433.22, 234.95 427.66 C 236.34 422.11, 237.50 419.12, 239.23 412.91 C 240.96 406.70, 241.73 402.90, 243.60 396.60 C 245.47 390.30, 246.57 387.29, 248.58 381.43 C 250.59 375.57, 251.93 372.55, 253.66 367.29 C 255.39 362.03, 256.19 359.55, 257.24 355.13 C 258.28 350.71, 258.63 348.48, 258.88 345.18 C 259.12 341.88, 258.87 340.65, 258.46 338.63 C 258.05 336.61, 257.55 335.74, 256.82 335.09 C 256.09 334.44, 255.35 334.62, 254.82 335.38" style="stroke: black; fill: black;"/><path d="M 288.89,348.92 C 287.94 349.77, 287.05 351.23, 286.25 353.76 C 285.45 356.29, 285.48 357.99, 284.89 361.57 C 284.30 365.15, 284.09 367.36, 283.30 371.65 C 282.51 375.95, 282.13 378.31, 280.94 383.04 C 279.74 387.78, 279.00 390.40, 277.32 395.33 C 275.65 400.25, 274.51 402.80, 272.55 407.67 C 270.60 412.53, 269.58 415.02, 267.56 419.65 C 265.54 424.29, 264.30 426.72, 262.45 430.84 C 260.61 434.97, 259.72 436.96, 258.35 440.26 C 256.97 443.57, 256.17 445.04, 255.57 447.37 C 254.97 449.69, 255.23 450.64, 255.36 451.87 C 255.49 453.10, 255.88 453.14, 256.21 453.49 C 256.53 453.85, 256.83 453.70, 257.00 453.65 C 257.17 453.61, 257.00 453.33, 257.05 453.26 C 257.10 453.20, 256.99 453.53, 257.24 453.34 C 257.49 453.15, 257.84 453.28, 258.30 452.32 C 258.76 451.35, 258.83 450.67, 259.54 448.53 C 260.25 446.39, 260.68 444.90, 261.85 441.61 C 263.01 438.32, 263.68 436.24, 265.35 432.07 C 267.02 427.90, 268.24 425.45, 270.20 420.78 C 272.16 416.11, 273.18 413.61, 275.15 408.71 C 277.12 403.81, 278.29 401.25, 280.05 396.28 C 281.82 391.31, 282.61 388.64, 283.98 383.86 C 285.36 379.09, 285.86 376.72, 286.91 372.42 C 287.95 368.13, 288.43 365.93, 289.20 362.40 C 289.97 358.87, 290.41 357.36, 290.77 354.78 C 291.12 352.20, 291.35 350.68, 290.98 349.50 C 290.60 348.33, 289.83 348.06, 288.89 348.92" style="stroke: black; fill: black;"/><path d="M 233.74,412.85 C 234.41 413.32, 234.95 413.29, 236.66 413.36 C 238.38 413.43, 239.39 413.54, 242.31 413.21 C 245.23 412.89, 247.28 412.27, 251.25 411.74 C 255.22 411.20, 257.61 411.02, 262.16 410.53 C 266.72 410.03, 269.59 409.83, 274.03 409.27 C 278.46 408.71, 280.96 408.41, 284.34 407.73 C 287.72 407.05, 289.65 406.57, 290.91 405.84 C 292.17 405.12, 292.07 404.42, 290.65 404.09 C 289.23 403.77, 287.23 403.91, 283.82 404.23 C 280.41 404.55, 277.98 405.17, 273.59 405.69 C 269.19 406.22, 266.37 406.52, 261.83 406.86 C 257.29 407.20, 254.91 407.24, 250.88 407.39 C 246.85 407.55, 244.66 407.28, 241.67 407.64 C 238.67 408.00, 237.59 408.52, 235.92 409.20 C 234.25 409.87, 233.74 410.29, 233.31 411.02 C 232.87 411.75, 233.07 412.39, 233.74 412.85" style="stroke: black; fill: black;"/><path d="M 325.68,419.97 C 325.97 420.55, 326.18 420.68, 327.20 421.08 C 328.22 421.47, 328.80 421.96, 330.76 421.95 C 332.73 421.93, 334.33 421.77, 337.03 421.01 C 339.74 420.24, 341.27 419.36, 344.29 418.11 C 347.32 416.85, 349.09 416.16, 352.14 414.73 C 355.18 413.31, 356.87 412.66, 359.52 410.98 C 362.18 409.30, 363.55 408.32, 365.40 406.32 C 367.25 404.32, 368.18 403.13, 368.78 400.99 C 369.39 398.86, 369.32 397.48, 368.42 395.64 C 367.52 393.79, 366.59 392.65, 364.29 391.75 C 361.99 390.86, 360.41 390.69, 356.92 391.15 C 353.43 391.61, 351.28 392.33, 346.84 394.06 C 342.40 395.79, 339.65 397.03, 334.71 399.82 C 329.76 402.60, 326.86 404.54, 322.11 407.97 C 317.37 411.41, 314.83 413.33, 310.98 416.98 C 307.13 420.63, 305.24 422.58, 302.86 426.21 C 300.47 429.84, 299.51 431.75, 299.06 435.12 C 298.60 438.49, 298.98 440.39, 300.59 443.05 C 302.20 445.72, 303.76 446.87, 307.11 448.45 C 310.47 450.03, 312.68 450.38, 317.36 450.95 C 322.03 451.51, 324.84 451.53, 330.48 451.27 C 336.11 451.01, 339.95 450.41, 345.52 449.66 C 351.10 448.91, 354.02 448.42, 358.37 447.50 C 362.72 446.59, 365.59 445.92, 367.29 445.07 C 368.99 444.21, 368.78 443.30, 366.89 443.23 C 365.00 443.16, 362.20 444.02, 357.85 444.72 C 353.50 445.42, 350.64 446.03, 345.14 446.74 C 339.64 447.44, 335.83 448.06, 330.36 448.23 C 324.89 448.40, 322.14 448.23, 317.81 447.58 C 313.49 446.93, 311.55 446.27, 308.74 444.97 C 305.93 443.67, 304.99 442.94, 303.77 441.07 C 302.54 439.19, 302.27 438.23, 302.62 435.59 C 302.96 432.96, 303.43 431.21, 305.49 427.89 C 307.55 424.57, 309.27 422.54, 312.92 419.01 C 316.57 415.47, 319.08 413.53, 323.72 410.22 C 328.37 406.91, 331.28 405.01, 336.15 402.47 C 341.01 399.92, 343.78 398.82, 348.05 397.49 C 352.32 396.16, 354.49 396.14, 357.49 395.81 C 360.49 395.48, 361.48 395.57, 363.05 395.84 C 364.63 396.12, 364.96 396.43, 365.37 397.18 C 365.79 397.93, 365.79 398.43, 365.12 399.58 C 364.46 400.73, 363.69 401.47, 362.05 402.93 C 360.41 404.38, 359.30 405.36, 356.92 406.85 C 354.54 408.33, 353.05 409.10, 350.16 410.34 C 347.27 411.58, 345.44 412.17, 342.48 413.06 C 339.53 413.95, 337.88 414.17, 335.38 414.79 C 332.88 415.40, 331.60 415.65, 329.96 416.13 C 328.33 416.61, 328.02 416.79, 327.19 417.19 C 326.35 417.59, 326.08 417.59, 325.78 418.15 C 325.48 418.70, 325.40 419.38, 325.68 419.97" style="stroke: black; fill: black;"/><path d="M 439.10,349.96 C 438.11 350.62, 437.42 351.57, 435.89 354.10 C 434.36 356.63, 433.68 358.39, 431.46 362.62 C 429.25 366.85, 427.73 369.95, 424.79 375.23 C 421.86 380.51, 420.03 383.41, 416.79 389.02 C 413.54 394.64, 411.69 397.85, 408.57 403.31 C 405.45 408.77, 403.81 411.51, 401.19 416.33 C 398.56 421.14, 397.25 423.54, 395.44 427.38 C 393.63 431.22, 392.73 432.85, 392.12 435.51 C 391.51 438.17, 392.24 439.18, 392.40 440.67 C 392.55 442.15, 392.59 442.46, 392.91 442.94 C 393.23 443.42, 393.59 443.46, 393.99 443.05 C 394.40 442.63, 394.56 442.19, 394.94 440.87 C 395.32 439.55, 395.22 438.90, 395.89 436.45 C 396.56 434.01, 396.77 432.41, 398.28 428.62 C 399.80 424.84, 401.01 422.37, 403.48 417.54 C 405.96 412.72, 407.56 409.94, 410.65 404.49 C 413.74 399.04, 415.60 395.85, 418.93 390.28 C 422.25 384.72, 424.16 381.86, 427.28 376.67 C 430.40 371.48, 432.09 368.46, 434.54 364.34 C 436.98 360.21, 438.26 358.75, 439.52 356.04 C 440.79 353.34, 440.96 352.04, 440.87 350.83 C 440.79 349.61, 440.10 349.31, 439.10 349.96" style="stroke: black; fill: black;"/><path d="M 458.69,347.34 C 457.65 347.79, 456.76 348.51, 455.18 350.63 C 453.60 352.74, 452.97 354.29, 450.80 357.91 C 448.64 361.52, 447.12 363.96, 444.35 368.70 C 441.58 373.44, 439.98 376.41, 436.95 381.61 C 433.93 386.80, 432.19 389.59, 429.24 394.67 C 426.29 399.76, 424.63 402.52, 422.19 407.03 C 419.76 411.54, 418.61 413.59, 417.08 417.23 C 415.55 420.87, 414.77 422.47, 414.53 425.25 C 414.29 428.03, 414.65 429.48, 415.87 431.13 C 417.09 432.78, 419.47 433.36, 420.62 433.49 C 421.78 433.61, 422.08 432.56, 421.64 431.75 C 421.19 430.94, 419.07 430.66, 418.38 429.45 C 417.70 428.24, 417.85 427.89, 418.20 425.69 C 418.56 423.49, 418.86 421.93, 420.16 418.45 C 421.45 414.98, 422.40 412.82, 424.67 408.32 C 426.94 403.83, 428.57 401.04, 431.50 395.98 C 434.42 390.91, 436.17 388.12, 439.29 382.99 C 442.40 377.87, 444.09 374.96, 447.06 370.37 C 450.02 365.77, 451.74 363.49, 454.10 360.02 C 456.46 356.54, 457.62 355.30, 458.87 352.98 C 460.12 350.66, 460.40 349.53, 460.36 348.40 C 460.32 347.28, 459.72 346.90, 458.69 347.34" style="stroke: black; fill: black;"/><path d="M 511.36,390.11 C 510.95 389.31, 510.40 388.67, 508.71 388.02 C 507.02 387.37, 505.61 386.66, 502.91 386.84 C 500.21 387.03, 498.47 387.58, 495.20 388.94 C 491.93 390.31, 490.16 391.38, 486.57 393.68 C 482.98 395.97, 480.90 397.51, 477.26 400.42 C 473.62 403.33, 471.26 405.08, 468.35 408.22 C 465.43 411.36, 464.18 412.97, 462.68 416.14 C 461.18 419.31, 460.62 421.20, 460.84 424.06 C 461.06 426.91, 461.68 428.55, 463.78 430.42 C 465.88 432.29, 467.75 432.85, 471.33 433.39 C 474.91 433.94, 477.09 433.78, 481.68 433.16 C 486.26 432.55, 489.07 431.96, 494.27 430.32 C 499.47 428.68, 502.43 427.32, 507.66 424.98 C 512.90 422.64, 515.77 421.27, 520.43 418.63 C 525.09 415.99, 527.51 414.58, 530.98 411.80 C 534.45 409.01, 536.08 407.50, 537.76 404.70 C 539.45 401.90, 539.69 400.32, 539.40 397.81 C 539.12 395.30, 538.23 394.05, 536.36 392.13 C 534.49 390.20, 532.82 389.23, 530.06 388.19 C 527.30 387.14, 525.18 386.99, 522.56 386.90 C 519.95 386.80, 518.76 387.22, 516.96 387.73 C 515.17 388.23, 514.20 388.76, 513.58 389.43 C 512.96 390.10, 513.13 390.62, 513.86 391.06 C 514.58 391.51, 515.58 391.35, 517.21 391.64 C 518.84 391.93, 519.77 392.14, 522.00 392.53 C 524.23 392.92, 526.01 393.05, 528.35 393.61 C 530.69 394.17, 532.14 394.43, 533.70 395.34 C 535.27 396.25, 536.01 396.70, 536.18 398.17 C 536.35 399.64, 535.99 400.46, 534.54 402.70 C 533.10 404.94, 532.05 406.67, 528.95 409.36 C 525.84 412.06, 523.50 413.56, 519.02 416.17 C 514.54 418.78, 511.66 420.17, 506.53 422.42 C 501.40 424.66, 498.44 425.96, 493.39 427.39 C 488.34 428.83, 485.57 429.22, 481.28 429.59 C 476.99 429.96, 474.96 429.66, 471.94 429.24 C 468.91 428.83, 467.65 428.58, 466.18 427.51 C 464.70 426.44, 464.56 425.82, 464.57 423.90 C 464.59 421.97, 464.96 420.50, 466.25 417.86 C 467.54 415.22, 468.38 413.60, 471.03 410.68 C 473.68 407.77, 475.99 406.00, 479.51 403.28 C 483.02 400.56, 485.13 399.02, 488.60 397.07 C 492.08 395.13, 493.94 394.48, 496.90 393.55 C 499.85 392.63, 501.17 392.67, 503.38 392.45 C 505.58 392.22, 506.44 392.50, 507.92 392.41 C 509.40 392.33, 510.09 392.48, 510.78 392.01 C 511.46 391.55, 511.77 390.91, 511.36 390.11" style="stroke: black; fill: black;"/><path d="M 668.33,340.23 C 667.58 340.85, 667.16 341.69, 666.53 343.69 C 665.90 345.70, 665.84 346.94, 665.17 350.24 C 664.51 353.54, 664.25 355.85, 663.20 360.20 C 662.15 364.54, 661.52 367.16, 659.93 371.97 C 658.34 376.78, 657.17 379.36, 655.24 384.23 C 653.31 389.10, 652.23 391.72, 650.28 396.32 C 648.33 400.93, 647.17 403.28, 645.50 407.25 C 643.83 411.22, 642.86 413.05, 641.95 416.19 C 641.04 419.34, 640.78 420.82, 640.95 422.99 C 641.12 425.16, 641.57 426.11, 642.79 427.04 C 644.01 427.97, 645.08 428.13, 647.04 427.65 C 649.01 427.17, 650.21 426.55, 652.62 424.62 C 655.03 422.69, 656.20 421.00, 659.10 418.01 C 662.00 415.02, 663.78 413.07, 667.13 409.67 C 670.48 406.27, 672.46 404.14, 675.86 400.99 C 679.25 397.84, 681.47 396.04, 684.11 393.91 C 686.74 391.78, 687.84 390.95, 689.04 390.33 C 690.23 389.71, 690.06 389.72, 690.07 390.80 C 690.07 391.87, 689.43 392.96, 689.06 395.71 C 688.70 398.46, 688.57 400.85, 688.24 404.54 C 687.92 408.23, 687.55 410.42, 687.43 414.16 C 687.31 417.90, 687.42 419.87, 687.64 423.23 C 687.86 426.60, 687.93 428.22, 688.52 430.99 C 689.11 433.77, 689.40 435.01, 690.59 437.11 C 691.78 439.21, 692.58 440.20, 694.47 441.49 C 696.37 442.77, 697.51 443.28, 700.05 443.52 C 702.60 443.77, 704.28 443.77, 707.21 442.72 C 710.13 441.66, 711.62 440.57, 714.66 438.24 C 717.71 435.91, 719.30 434.46, 722.45 431.08 C 725.60 427.70, 727.29 425.70, 730.41 421.35 C 733.54 417.00, 735.05 414.39, 738.08 409.33 C 741.10 404.27, 742.69 401.43, 745.54 396.04 C 748.39 390.66, 749.77 387.72, 752.35 382.41 C 754.92 377.09, 756.24 374.25, 758.42 369.46 C 760.60 364.68, 761.64 362.48, 763.23 358.47 C 764.81 354.45, 765.60 352.52, 766.35 349.40 C 767.10 346.28, 767.05 344.86, 767.00 342.87 C 766.95 340.87, 766.53 340.41, 766.12 339.42 C 765.71 338.42, 765.50 338.21, 764.93 337.88 C 764.36 337.54, 763.70 337.55, 763.28 337.74 C 762.85 337.92, 762.64 338.59, 762.82 338.82 C 763.00 339.05, 763.98 338.83, 764.17 338.88 C 764.36 338.94, 763.88 339.01, 763.76 339.09 C 763.63 339.18, 763.59 339.12, 763.55 339.30 C 763.51 339.47, 763.60 339.30, 763.55 339.98 C 763.51 340.66, 763.53 340.99, 763.32 342.70 C 763.11 344.42, 763.10 345.60, 762.50 348.54 C 761.90 351.48, 761.61 353.44, 760.31 357.41 C 759.00 361.38, 758.01 363.60, 755.96 368.38 C 753.92 373.16, 752.61 376.02, 750.09 381.32 C 747.56 386.62, 746.20 389.55, 743.34 394.87 C 740.49 400.20, 738.88 403.01, 735.82 407.96 C 732.76 412.90, 731.21 415.46, 728.04 419.59 C 724.87 423.73, 723.14 425.61, 719.97 428.65 C 716.81 431.68, 715.13 432.93, 712.23 434.76 C 709.33 436.60, 707.86 437.00, 705.47 437.84 C 703.07 438.68, 702.00 438.89, 700.24 438.96 C 698.49 439.02, 697.86 438.91, 696.67 438.16 C 695.48 437.41, 695.01 436.82, 694.28 435.21 C 693.56 433.59, 693.51 432.54, 693.05 430.08 C 692.59 427.63, 692.22 426.06, 691.97 422.92 C 691.72 419.78, 691.56 417.94, 691.80 414.37 C 692.03 410.81, 692.65 408.78, 693.15 405.09 C 693.65 401.40, 694.43 399.00, 694.30 395.92 C 694.18 392.85, 693.71 391.40, 692.52 389.73 C 691.33 388.06, 690.52 387.38, 688.36 387.58 C 686.19 387.79, 684.67 388.58, 681.69 390.76 C 678.71 392.93, 676.87 395.18, 673.46 398.46 C 670.05 401.73, 668.09 403.85, 664.64 407.14 C 661.18 410.43, 659.28 412.25, 656.18 414.90 C 653.08 417.56, 651.31 418.56, 649.14 420.42 C 646.97 422.28, 646.33 423.21, 645.32 424.21 C 644.31 425.22, 644.26 425.67, 644.10 425.46 C 643.94 425.25, 644.16 424.78, 644.50 423.15 C 644.85 421.51, 645.00 420.23, 645.81 417.28 C 646.62 414.34, 647.11 412.41, 648.55 408.44 C 649.99 404.48, 651.13 402.08, 653.01 397.45 C 654.89 392.83, 655.96 390.20, 657.95 385.32 C 659.93 380.43, 661.14 377.84, 662.93 373.02 C 664.72 368.20, 665.49 365.58, 666.88 361.23 C 668.26 356.88, 669.08 354.62, 669.87 351.26 C 670.65 347.90, 670.72 346.57, 670.81 344.43 C 670.89 342.29, 670.78 341.41, 670.29 340.57 C 669.79 339.73, 669.08 339.60, 668.33 340.23" style="stroke: black; fill: black;"/><path d="M 820.69,390.18 C 820.37 389.33, 819.66 388.76, 818.28 387.96 C 816.89 387.16, 816.00 386.57, 813.77 386.20 C 811.55 385.83, 809.98 385.67, 807.15 386.11 C 804.32 386.55, 802.65 387.05, 799.63 388.40 C 796.62 389.75, 795.12 390.79, 792.07 392.85 C 789.03 394.91, 787.36 396.11, 784.40 398.71 C 781.44 401.31, 779.85 402.95, 777.27 405.85 C 774.69 408.75, 773.40 410.19, 771.50 413.21 C 769.59 416.22, 768.60 417.95, 767.73 420.92 C 766.87 423.90, 766.66 425.45, 767.16 428.08 C 767.67 430.72, 768.35 432.04, 770.24 434.08 C 772.14 436.12, 773.55 437.34, 776.66 438.29 C 779.77 439.23, 781.88 439.05, 785.81 438.81 C 789.73 438.58, 792.06 438.16, 796.28 437.10 C 800.50 436.04, 802.80 435.38, 806.89 433.52 C 810.99 431.66, 813.13 430.31, 816.76 427.79 C 820.39 425.27, 822.13 423.86, 825.05 420.92 C 827.96 417.98, 829.42 416.30, 831.34 413.09 C 833.27 409.88, 834.09 408.02, 834.65 404.87 C 835.22 401.72, 834.94 399.99, 834.16 397.33 C 833.38 394.67, 832.45 393.26, 830.75 391.58 C 829.05 389.89, 826.96 389.09, 825.67 388.91 C 824.39 388.74, 823.93 389.62, 824.31 390.71 C 824.69 391.80, 826.41 392.81, 827.56 394.37 C 828.70 395.94, 829.48 396.57, 830.03 398.53 C 830.59 400.48, 830.76 401.61, 830.35 404.13 C 829.94 406.66, 829.56 408.30, 828.00 411.16 C 826.43 414.03, 825.15 415.69, 822.51 418.45 C 819.88 421.22, 818.23 422.63, 814.83 425.01 C 811.42 427.39, 809.36 428.66, 805.48 430.35 C 801.61 432.04, 799.40 432.61, 795.43 433.45 C 791.46 434.29, 789.13 434.51, 785.64 434.56 C 782.16 434.60, 780.49 434.38, 778.01 433.68 C 775.53 432.99, 774.62 432.35, 773.24 431.10 C 771.86 429.85, 771.33 429.20, 771.10 427.43 C 770.88 425.67, 771.33 424.68, 772.12 422.27 C 772.91 419.86, 773.43 418.14, 775.05 415.38 C 776.68 412.63, 777.85 411.20, 780.25 408.48 C 782.64 405.76, 784.21 404.17, 787.04 401.77 C 789.88 399.38, 791.53 398.26, 794.42 396.52 C 797.31 394.79, 798.80 394.03, 801.51 393.09 C 804.22 392.14, 805.63 392.08, 807.96 391.79 C 810.28 391.50, 811.36 391.54, 813.14 391.64 C 814.92 391.73, 815.49 392.15, 816.84 392.26 C 818.18 392.38, 819.10 392.64, 819.87 392.22 C 820.64 391.80, 821.01 391.04, 820.69 390.18" style="stroke: black; fill: black;"/><path d="M 872.08,400.31 C 871.42 400.53, 871.19 400.74, 870.43 401.78 C 869.67 402.83, 869.28 403.60, 868.29 405.53 C 867.30 407.46, 866.78 408.93, 865.47 411.44 C 864.16 413.95, 863.20 415.55, 861.74 418.07 C 860.28 420.60, 859.27 421.98, 858.18 424.06 C 857.08 426.14, 856.48 427.12, 856.27 428.47 C 856.06 429.82, 856.37 430.64, 857.14 430.80 C 857.91 430.96, 858.78 430.65, 860.11 429.29 C 861.44 427.92, 861.91 426.62, 863.81 423.97 C 865.70 421.32, 866.79 419.27, 869.60 416.04 C 872.42 412.81, 874.37 410.79, 877.89 407.82 C 881.41 404.85, 883.40 403.45, 887.19 401.18 C 890.98 398.91, 893.15 397.95, 896.85 396.46 C 900.54 394.96, 902.52 394.38, 905.67 393.71 C 908.81 393.04, 910.07 393.10, 912.59 393.12 C 915.11 393.13, 916.18 393.44, 918.26 393.78 C 920.34 394.12, 921.44 394.59, 922.99 394.83 C 924.53 395.07, 925.00 395.02, 925.98 394.99 C 926.96 394.97, 927.41 395.02, 927.87 394.71 C 928.32 394.39, 928.47 393.94, 928.26 393.42 C 928.06 392.90, 927.68 392.67, 926.84 392.11 C 926.00 391.54, 925.65 391.16, 924.08 390.60 C 922.50 390.04, 921.30 389.67, 918.98 389.31 C 916.67 388.95, 915.34 388.65, 912.50 388.78 C 909.65 388.91, 908.16 389.04, 904.76 389.95 C 901.36 390.85, 899.36 391.60, 895.51 393.29 C 891.66 394.98, 889.47 396.00, 885.52 398.38 C 881.56 400.75, 879.49 402.18, 875.72 405.15 C 871.94 408.12, 869.88 410.10, 866.65 413.22 C 863.41 416.35, 861.64 418.04, 859.52 420.78 C 857.41 423.52, 856.70 424.96, 856.08 426.91 C 855.46 428.87, 855.84 429.85, 856.42 430.54 C 857.00 431.23, 857.73 431.08, 858.97 430.37 C 860.21 429.67, 861.09 428.87, 862.62 427.01 C 864.14 425.15, 864.91 423.59, 866.58 421.08 C 868.25 418.57, 869.47 417.09, 870.98 414.45 C 872.48 411.81, 873.40 410.17, 874.11 407.87 C 874.82 405.56, 874.60 404.36, 874.53 402.93 C 874.46 401.50, 874.25 401.24, 873.76 400.72 C 873.27 400.19, 872.75 400.10, 872.08 400.31" style="stroke: black; fill: black;"/><path d="M 974.43,349.37 C 973.69 349.42, 973.20 349.39, 972.05 350.60 C 970.89 351.80, 970.17 352.70, 968.65 355.39 C 967.12 358.09, 966.56 360.13, 964.41 364.08 C 962.25 368.02, 960.63 370.46, 957.87 375.13 C 955.12 379.79, 953.48 382.54, 950.65 387.39 C 947.82 392.25, 946.29 394.62, 943.74 399.40 C 941.18 404.18, 939.86 406.99, 937.87 411.31 C 935.89 415.63, 935.00 417.56, 933.82 421.01 C 932.63 424.46, 932.20 425.95, 931.94 428.56 C 931.67 431.17, 932.04 432.92, 932.49 434.03 C 932.95 435.15, 933.62 435.12, 934.21 434.14 C 934.80 433.17, 934.84 431.56, 935.43 429.16 C 936.02 426.75, 936.13 425.44, 937.17 422.11 C 938.21 418.78, 938.82 416.80, 940.62 412.51 C 942.42 408.23, 943.68 405.43, 946.17 400.69 C 948.65 395.94, 950.16 393.59, 953.04 388.81 C 955.91 384.03, 957.59 381.31, 960.54 376.78 C 963.49 372.25, 965.22 369.88, 967.78 366.14 C 970.34 362.40, 971.78 360.76, 973.33 358.07 C 974.88 355.38, 975.05 354.22, 975.53 352.68 C 976.02 351.13, 975.97 351.00, 975.75 350.33 C 975.53 349.67, 975.17 349.32, 974.43 349.37" style="stroke: black; fill: black;"/><path d="M 1015.59,412.87 C 1016.50 412.51, 1017.40 411.75, 1018.04 410.29 C 1018.67 408.82, 1019.01 407.50, 1018.77 405.54 C 1018.52 403.59, 1018.22 402.23, 1016.81 400.52 C 1015.40 398.80, 1014.29 397.81, 1011.72 396.97 C 1009.16 396.13, 1007.27 395.98, 1003.98 396.33 C 1000.69 396.68, 998.77 397.28, 995.26 398.72 C 991.75 400.16, 989.77 401.29, 986.44 403.53 C 983.10 405.78, 981.44 407.29, 978.61 409.94 C 975.78 412.59, 974.44 414.01, 972.27 416.77 C 970.11 419.54, 969.01 421.05, 967.80 423.78 C 966.59 426.51, 966.31 427.99, 966.23 430.43 C 966.15 432.88, 966.32 434.08, 967.41 436.00 C 968.51 437.93, 969.51 438.99, 971.71 440.06 C 973.91 441.13, 975.38 441.53, 978.41 441.36 C 981.44 441.18, 983.15 440.47, 986.84 439.18 C 990.53 437.89, 992.75 437.08, 996.87 434.91 C 1000.98 432.74, 1003.16 431.35, 1007.40 428.34 C 1011.64 425.33, 1013.66 423.53, 1018.08 419.86 C 1022.49 416.20, 1024.96 414.09, 1029.46 410.01 C 1033.97 405.94, 1036.44 403.67, 1040.60 399.49 C 1044.75 395.30, 1046.70 392.99, 1050.24 389.11 C 1053.78 385.22, 1055.64 383.28, 1058.30 380.06 C 1060.96 376.84, 1062.34 375.36, 1063.55 373.01 C 1064.76 370.67, 1064.79 369.32, 1064.33 368.36 C 1063.87 367.40, 1062.84 367.10, 1061.26 368.22 C 1059.69 369.35, 1058.53 370.87, 1056.45 374.00 C 1054.38 377.12, 1053.27 379.58, 1050.87 383.87 C 1048.48 388.15, 1046.99 390.72, 1044.47 395.41 C 1041.94 400.10, 1040.51 402.75, 1038.26 407.32 C 1036.01 411.89, 1034.88 414.15, 1033.21 418.26 C 1031.54 422.36, 1030.92 424.39, 1029.89 427.85 C 1028.85 431.30, 1028.38 432.84, 1028.04 435.54 C 1027.71 438.23, 1027.84 439.51, 1028.21 441.34 C 1028.58 443.18, 1029.15 443.74, 1029.90 444.71 C 1030.66 445.68, 1031.19 445.99, 1032.00 446.19 C 1032.81 446.40, 1033.62 446.18, 1033.96 445.73 C 1034.30 445.28, 1033.96 444.31, 1033.72 443.94 C 1033.49 443.56, 1033.03 444.01, 1032.79 443.86 C 1032.54 443.71, 1032.67 443.78, 1032.50 443.18 C 1032.34 442.58, 1031.98 442.29, 1031.94 440.87 C 1031.91 439.45, 1032.01 438.48, 1032.31 436.06 C 1032.61 433.65, 1032.67 432.12, 1033.44 428.79 C 1034.21 425.46, 1034.66 423.44, 1036.15 419.41 C 1037.65 415.37, 1038.72 413.13, 1040.92 408.63 C 1043.13 404.13, 1044.54 401.48, 1047.18 396.92 C 1049.82 392.36, 1051.47 389.90, 1054.12 385.82 C 1056.76 381.75, 1058.44 379.67, 1060.41 376.56 C 1062.38 373.45, 1063.38 371.99, 1063.97 370.29 C 1064.55 368.59, 1064.08 367.96, 1063.32 368.08 C 1062.56 368.20, 1061.69 368.89, 1060.17 370.89 C 1058.65 372.89, 1058.12 374.78, 1055.72 378.06 C 1053.33 381.34, 1051.59 383.37, 1048.20 387.30 C 1044.82 391.23, 1042.88 393.54, 1038.80 397.71 C 1034.71 401.87, 1032.25 404.12, 1027.77 408.13 C 1023.29 412.15, 1020.80 414.25, 1016.39 417.80 C 1011.98 421.35, 1009.93 423.09, 1005.72 425.88 C 1001.50 428.67, 999.34 429.91, 995.31 431.75 C 991.28 433.59, 989.04 434.19, 985.59 435.08 C 982.14 435.97, 980.51 436.01, 978.06 436.20 C 975.60 436.40, 974.79 436.48, 973.31 436.07 C 971.84 435.66, 971.28 435.20, 970.68 434.14 C 970.08 433.09, 970.03 432.47, 970.31 430.79 C 970.59 429.10, 971.01 428.01, 972.08 425.71 C 973.14 423.41, 973.77 421.86, 975.62 419.29 C 977.48 416.71, 978.73 415.31, 981.33 412.84 C 983.94 410.37, 985.56 408.91, 988.67 406.93 C 991.77 404.95, 993.68 404.00, 996.85 402.94 C 1000.01 401.87, 1001.77 401.81, 1004.48 401.60 C 1007.18 401.38, 1008.61 401.51, 1010.37 401.87 C 1012.13 402.22, 1012.63 402.57, 1013.26 403.38 C 1013.88 404.19, 1013.52 404.77, 1013.49 405.92 C 1013.46 407.07, 1013.13 407.89, 1013.12 409.12 C 1013.12 410.35, 1012.98 411.32, 1013.48 412.07 C 1013.97 412.81, 1014.68 413.22, 1015.59 412.87" style="stroke: black; fill: black;"/></svg>