<svg xmlns="http://www.w3.org/2000/svg" id="canvas" viewBox="227.548 351.600 857.859 109.335"><path d="M 230.78,359.22 C 230.46 360.26, 230.44 361.04, 230.92 363.93 C 231.39 366.82, 232.10 368.84, 233.15 373.68 C 234.21 378.53, 235.01 381.89, 236.21 388.14 C 237.41 394.39, 238.13 398.35, 239.15 404.94 C 240.17 411.53, 240.62 415.16, 241.33 421.08 C 242.04 427.00, 242.25 429.79, 242.69 434.55 C 243.14 439.31, 243.21 441.37, 243.56 444.87 C 243.91 448.38, 243.91 449.73, 244.43 452.09 C 244.95 454.45, 245.60 455.54, 246.17 456.68 C 246.74 457.82, 246.90 457.59, 247.28 457.79 C 247.65 457.99, 247.73 458.01, 248.03 457.68 C 248.32 457.35, 248.67 457.42, 248.75 456.15 C 248.83 454.89, 248.80 453.68, 248.43 451.33 C 248.06 448.99, 247.52 447.83, 246.92 444.41 C 246.32 440.99, 246.05 438.96, 245.42 434.24 C 244.79 429.51, 244.54 426.71, 243.77 420.78 C 243.00 414.84, 242.54 411.20, 241.59 404.57 C 240.63 397.95, 239.99 393.96, 238.98 387.65 C 237.97 381.34, 237.35 377.96, 236.54 373.04 C 235.74 368.11, 235.75 365.90, 234.95 363.04 C 234.15 360.17, 233.38 359.49, 232.54 358.73 C 231.71 357.96, 231.11 358.18, 230.78 359.22" style="stroke: black; fill: black;"/><path d="M 269.14,372.98 C 268.81 373.51, 268.94 373.60, 268.99 374.92 C 269.04 376.24, 268.62 376.83, 269.38 379.58 C 270.14 382.32, 271.25 384.37, 272.79 388.64 C 274.33 392.90, 275.41 395.73, 277.09 400.91 C 278.77 406.10, 279.66 409.32, 281.19 414.56 C 282.72 419.80, 283.49 422.38, 284.75 427.12 C 286.01 431.85, 286.56 434.38, 287.50 438.24 C 288.43 442.09, 288.64 444.16, 289.42 446.39 C 290.20 448.62, 290.97 449.26, 291.40 449.40 C 291.82 449.53, 292.00 448.50, 291.54 447.08 C 291.08 445.65, 290.56 443.92, 289.11 442.25 C 287.66 440.59, 285.78 439.06, 284.29 438.77 C 282.80 438.48, 281.72 439.25, 281.66 440.81 C 281.60 442.37, 282.54 444.78, 284.00 446.57 C 285.46 448.35, 287.28 449.07, 288.96 449.72 C 290.64 450.38, 291.53 450.69, 292.39 449.85 C 293.26 449.00, 293.59 448.00, 293.28 445.50 C 292.98 443.00, 291.99 441.17, 290.85 437.33 C 289.71 433.50, 288.96 431.04, 287.58 426.33 C 286.20 421.61, 285.44 419.03, 283.96 413.77 C 282.48 408.50, 281.64 405.24, 280.19 399.98 C 278.74 394.72, 277.75 391.86, 276.69 387.46 C 275.62 383.06, 275.70 380.73, 274.85 377.98 C 274.00 375.22, 273.27 374.83, 272.44 373.68 C 271.60 372.54, 271.32 372.39, 270.66 372.25 C 270.00 372.11, 269.48 372.44, 269.14 372.98" style="stroke: black; fill: black;"/><path d="M 242.66,424.70 C 243.27 425.18, 243.81 425.23, 245.37 425.28 C 246.94 425.33, 247.56 425.37, 250.49 424.96 C 253.43 424.55, 255.81 423.96, 260.02 423.21 C 264.24 422.47, 266.72 422.05, 271.55 421.23 C 276.38 420.41, 279.12 420.00, 284.16 419.12 C 289.20 418.25, 291.87 417.90, 296.75 416.85 C 301.63 415.80, 304.27 415.13, 308.56 413.88 C 312.86 412.64, 314.88 411.91, 318.24 410.63 C 321.60 409.35, 323.37 408.82, 325.38 407.46 C 327.39 406.11, 327.83 405.14, 328.28 403.86 C 328.72 402.57, 328.45 401.84, 327.59 401.04 C 326.73 400.25, 325.71 399.73, 323.97 399.89 C 322.24 400.04, 320.84 400.49, 318.91 401.83 C 316.99 403.17, 316.02 404.37, 314.36 406.60 C 312.71 408.83, 311.70 410.16, 310.62 412.98 C 309.54 415.80, 309.04 417.58, 308.97 420.69 C 308.91 423.80, 309.19 425.66, 310.31 428.53 C 311.43 431.40, 312.25 432.85, 314.57 435.03 C 316.90 437.21, 318.61 438.12, 321.93 439.42 C 325.26 440.71, 327.30 441.21, 331.20 441.50 C 335.11 441.79, 337.30 441.63, 341.45 440.85 C 345.59 440.08, 347.94 439.48, 351.92 437.64 C 355.89 435.80, 357.94 434.56, 361.33 431.66 C 364.72 428.76, 366.25 427.02, 368.87 423.13 C 371.48 419.24, 372.78 416.91, 374.41 412.21 C 376.05 407.51, 376.39 404.69, 377.05 399.61 C 377.71 394.53, 377.88 391.83, 377.69 386.80 C 377.51 381.77, 377.19 379.02, 376.13 374.46 C 375.07 369.91, 374.16 367.50, 372.39 364.03 C 370.62 360.55, 369.55 358.95, 367.28 357.07 C 365.00 355.18, 363.47 354.69, 361.01 354.61 C 358.56 354.54, 356.99 354.82, 355.01 356.69 C 353.03 358.56, 352.20 360.20, 351.10 363.95 C 350.01 367.71, 349.66 370.37, 349.54 375.46 C 349.43 380.56, 349.59 383.81, 350.54 389.43 C 351.48 395.05, 352.28 398.30, 354.26 403.55 C 356.24 408.81, 357.43 411.39, 360.44 415.71 C 363.45 420.02, 365.39 421.98, 369.30 425.12 C 373.21 428.27, 375.72 429.66, 380.00 431.44 C 384.28 433.21, 386.57 433.77, 390.69 434.00 C 394.80 434.23, 396.87 433.86, 400.58 432.60 C 404.29 431.33, 406.16 430.42, 409.25 427.69 C 412.35 424.95, 413.66 423.17, 416.06 418.93 C 418.45 414.69, 419.53 411.77, 421.24 406.48 C 422.95 401.19, 423.71 397.99, 424.60 392.49 C 425.48 386.99, 425.62 383.97, 425.67 379.00 C 425.72 374.02, 425.61 371.47, 424.85 367.61 C 424.09 363.75, 423.54 361.89, 421.87 359.70 C 420.20 357.51, 418.57 356.68, 416.50 356.65 C 414.43 356.62, 412.82 357.19, 411.52 359.56 C 410.22 361.93, 410.11 364.20, 409.99 368.50 C 409.88 372.80, 410.06 375.75, 410.95 381.05 C 411.84 386.34, 412.76 389.69, 414.44 394.98 C 416.12 400.27, 417.04 402.92, 419.33 407.50 C 421.63 412.09, 423.20 414.23, 425.91 417.91 C 428.62 421.58, 430.03 423.04, 432.89 425.86 C 435.75 428.67, 437.37 430.16, 440.19 431.98 C 443.01 433.80, 444.44 434.36, 446.99 434.95 C 449.54 435.55, 451.04 435.27, 452.94 434.95 C 454.84 434.63, 455.45 434.14, 456.50 433.35 C 457.54 432.56, 458.06 431.74, 458.17 431.01 C 458.28 430.28, 457.70 429.79, 457.06 429.70 C 456.42 429.60, 455.88 430.27, 454.97 430.55 C 454.06 430.82, 453.91 431.02, 452.51 431.07 C 451.12 431.11, 450.04 431.28, 448.00 430.77 C 445.96 430.26, 444.87 430.00, 442.32 428.52 C 439.77 427.03, 438.04 425.84, 435.24 423.35 C 432.44 420.86, 430.97 419.51, 428.30 416.09 C 425.63 412.66, 424.10 410.62, 421.89 406.22 C 419.68 401.83, 418.77 399.25, 417.26 394.12 C 415.75 388.98, 414.96 385.65, 414.32 380.55 C 413.68 375.45, 413.89 372.54, 414.06 368.64 C 414.23 364.74, 414.70 362.96, 415.16 361.05 C 415.62 359.15, 415.63 358.96, 416.35 359.10 C 417.07 359.25, 417.73 359.94, 418.75 361.78 C 419.78 363.62, 420.68 364.88, 421.46 368.33 C 422.25 371.77, 422.63 374.26, 422.70 379.00 C 422.76 383.74, 422.64 386.73, 421.79 392.04 C 420.94 397.35, 420.15 400.50, 418.46 405.57 C 416.77 410.64, 415.63 413.45, 413.34 417.37 C 411.06 421.29, 409.82 422.77, 407.05 425.17 C 404.28 427.56, 402.72 428.25, 399.48 429.36 C 396.24 430.46, 394.51 430.86, 390.85 430.71 C 387.18 430.55, 385.11 430.15, 381.15 428.59 C 377.19 427.03, 374.76 425.79, 371.05 422.91 C 367.35 420.02, 365.49 418.23, 362.65 414.17 C 359.80 410.11, 358.65 407.64, 356.81 402.60 C 354.98 397.57, 354.23 394.38, 353.46 388.98 C 352.70 383.58, 352.66 380.38, 352.99 375.62 C 353.32 370.85, 354.12 368.38, 355.10 365.13 C 356.07 361.88, 356.71 360.82, 357.85 359.38 C 359.00 357.94, 359.47 357.79, 360.82 357.93 C 362.18 358.08, 362.96 358.54, 364.63 360.10 C 366.31 361.66, 367.51 362.70, 369.19 365.72 C 370.88 368.75, 371.95 370.98, 373.06 375.22 C 374.16 379.46, 374.52 382.12, 374.74 386.92 C 374.95 391.72, 374.76 394.37, 374.13 399.23 C 373.50 404.09, 373.14 406.78, 371.57 411.21 C 370.00 415.64, 368.75 417.78, 366.28 421.37 C 363.81 424.96, 362.37 426.53, 359.21 429.14 C 356.05 431.76, 354.17 432.86, 350.49 434.46 C 346.81 436.07, 344.60 436.59, 340.81 437.19 C 337.03 437.78, 335.01 437.82, 331.57 437.45 C 328.12 437.08, 326.34 436.49, 323.60 435.32 C 320.85 434.14, 319.60 433.27, 317.85 431.58 C 316.10 429.89, 315.57 428.99, 314.84 426.86 C 314.11 424.73, 314.04 423.27, 314.20 420.91 C 314.37 418.55, 314.71 417.19, 315.67 415.06 C 316.63 412.93, 317.59 411.92, 319.00 410.27 C 320.42 408.62, 321.40 407.97, 322.74 406.80 C 324.08 405.62, 324.86 405.23, 325.71 404.39 C 326.55 403.56, 326.84 403.03, 326.96 402.62 C 327.09 402.22, 327.08 402.13, 326.35 402.39 C 325.62 402.64, 325.21 402.97, 323.30 403.91 C 321.39 404.85, 319.93 405.71, 316.79 407.09 C 313.65 408.47, 311.75 409.45, 307.61 410.81 C 303.48 412.18, 300.90 412.86, 296.11 413.93 C 291.32 415.00, 288.68 415.37, 283.67 416.16 C 278.67 416.95, 275.90 417.29, 271.06 417.87 C 266.23 418.44, 263.78 418.71, 259.50 419.02 C 255.22 419.34, 252.64 418.95, 249.66 419.43 C 246.67 419.92, 246.03 420.76, 244.57 421.45 C 243.10 422.14, 242.73 422.22, 242.34 422.88 C 241.96 423.53, 242.05 424.22, 242.66 424.70" style="stroke: black; fill: black;"/><path d="M 495.19,405.22 C 495.32 404.15, 495.09 402.78, 493.99 401.11 C 492.89 399.44, 491.89 398.29, 489.69 396.88 C 487.50 395.48, 485.95 394.44, 483.01 394.09 C 480.07 393.74, 478.22 394.20, 475.02 395.13 C 471.82 396.05, 469.89 396.84, 467.01 398.72 C 464.13 400.59, 462.52 401.83, 460.63 404.51 C 458.73 407.18, 457.92 409.10, 457.55 412.08 C 457.18 415.07, 457.49 416.80, 458.76 419.45 C 460.04 422.10, 461.25 423.51, 463.91 425.32 C 466.57 427.14, 468.60 427.78, 472.06 428.53 C 475.52 429.27, 477.58 429.33, 481.23 429.05 C 484.88 428.77, 486.90 428.37, 490.31 427.14 C 493.72 425.91, 495.50 424.93, 498.27 422.90 C 501.05 420.87, 502.43 419.52, 504.18 417.00 C 505.93 414.49, 506.56 412.91, 507.03 410.32 C 507.50 407.74, 507.32 406.35, 506.55 404.07 C 505.78 401.80, 504.70 400.55, 503.18 398.96 C 501.66 397.36, 500.42 396.88, 498.95 396.11 C 497.48 395.35, 496.88 395.16, 495.83 395.11 C 494.78 395.07, 494.04 395.47, 493.71 395.90 C 493.38 396.32, 493.94 397.21, 494.17 397.24 C 494.41 397.27, 495.01 396.21, 494.89 396.03 C 494.77 395.84, 493.74 395.83, 493.57 396.31 C 493.40 396.79, 493.50 397.61, 494.05 398.43 C 494.60 399.25, 495.20 399.56, 496.33 400.39 C 497.47 401.21, 498.49 401.52, 499.73 402.57 C 500.97 403.61, 501.91 404.23, 502.53 405.61 C 503.16 406.98, 503.31 407.70, 502.85 409.42 C 502.39 411.14, 501.69 412.21, 500.24 414.19 C 498.79 416.18, 497.86 417.55, 495.58 419.33 C 493.30 421.11, 491.78 422.03, 488.85 423.09 C 485.92 424.16, 484.09 424.47, 480.93 424.65 C 477.78 424.82, 475.96 424.65, 473.09 423.97 C 470.22 423.28, 468.68 422.53, 466.59 421.24 C 464.50 419.94, 463.56 419.19, 462.64 417.49 C 461.72 415.80, 461.60 414.78, 461.99 412.76 C 462.38 410.75, 463.06 409.40, 464.59 407.42 C 466.12 405.45, 467.28 404.34, 469.65 402.87 C 472.02 401.41, 473.90 400.81, 476.43 400.10 C 478.97 399.39, 480.28 399.03, 482.34 399.32 C 484.40 399.61, 485.13 400.54, 486.75 401.55 C 488.37 402.55, 489.13 403.38, 490.45 404.35 C 491.77 405.33, 492.40 406.27, 493.35 406.44 C 494.30 406.61, 495.06 406.29, 495.19 405.22" style="stroke: black; fill: black;"/><path d="M 655.73,360.28 C 655.04 360.63, 654.20 360.86, 653.79 362.62 C 653.39 364.38, 653.15 365.56, 653.70 369.08 C 654.26 372.59, 655.08 375.18, 656.56 380.20 C 658.05 385.21, 659.10 388.53, 661.14 394.17 C 663.18 399.81, 664.45 403.22, 666.76 408.40 C 669.07 413.58, 670.26 416.05, 672.70 420.06 C 675.14 424.06, 676.45 425.74, 678.96 428.42 C 681.47 431.10, 682.60 432.13, 685.25 433.46 C 687.90 434.80, 689.36 435.21, 692.21 435.08 C 695.05 434.95, 696.77 434.68, 699.46 432.80 C 702.16 430.91, 703.41 429.11, 705.69 425.66 C 707.96 422.20, 708.94 419.73, 710.84 415.52 C 712.74 411.32, 713.75 408.52, 715.18 404.64 C 716.61 400.77, 717.56 398.48, 717.99 396.17 C 718.43 393.86, 717.58 392.99, 717.36 393.11 C 717.14 393.23, 716.50 394.50, 716.89 396.78 C 717.28 399.06, 717.90 401.15, 719.33 404.52 C 720.76 407.89, 721.71 410.15, 724.06 413.63 C 726.41 417.10, 728.02 419.03, 731.09 421.89 C 734.16 424.75, 735.92 425.95, 739.40 427.92 C 742.89 429.89, 744.78 430.58, 748.50 431.73 C 752.23 432.88, 754.40 433.41, 758.02 433.65 C 761.64 433.90, 763.34 433.76, 766.62 432.94 C 769.90 432.11, 771.51 431.47, 774.43 429.53 C 777.35 427.58, 778.88 426.28, 781.23 423.21 C 783.58 420.14, 784.66 418.04, 786.19 414.16 C 787.72 410.29, 788.29 407.96, 788.89 403.84 C 789.49 399.73, 789.56 397.50, 789.19 393.58 C 788.82 389.66, 788.41 387.61, 787.04 384.27 C 785.66 380.92, 784.31 379.37, 782.33 376.86 C 780.35 374.36, 779.18 373.48, 777.16 371.75 C 775.13 370.02, 773.97 369.17, 772.21 368.21 C 770.45 367.24, 769.57 367.17, 768.37 366.93 C 767.18 366.69, 766.76 366.77, 766.23 367.00 C 765.71 367.24, 765.59 367.59, 765.74 368.13 C 765.89 368.66, 766.18 368.91, 766.97 369.68 C 767.76 370.46, 768.28 370.86, 769.70 372.00 C 771.12 373.14, 772.23 373.84, 774.08 375.39 C 775.92 376.93, 777.05 377.62, 778.90 379.72 C 780.76 381.81, 782.04 383.02, 783.35 385.86 C 784.66 388.71, 785.07 390.47, 785.44 393.95 C 785.81 397.44, 785.76 399.54, 785.20 403.30 C 784.64 407.06, 784.06 409.24, 782.64 412.74 C 781.22 416.24, 780.17 418.10, 778.08 420.78 C 775.99 423.46, 774.68 424.50, 772.19 426.13 C 769.70 427.77, 768.40 428.26, 765.62 428.97 C 762.83 429.67, 761.47 429.85, 758.26 429.67 C 755.05 429.50, 753.00 429.10, 749.58 428.11 C 746.17 427.13, 744.36 426.54, 741.18 424.76 C 738.00 422.98, 736.37 421.88, 733.67 419.21 C 730.96 416.53, 729.58 414.69, 727.64 411.37 C 725.70 408.04, 725.30 405.81, 723.97 402.57 C 722.64 399.34, 722.28 397.30, 720.99 395.20 C 719.70 393.11, 718.89 392.19, 717.54 392.11 C 716.20 392.03, 715.50 392.56, 714.26 394.79 C 713.02 397.02, 712.73 399.41, 711.35 403.25 C 709.98 407.09, 709.18 409.94, 707.38 413.97 C 705.58 418.00, 704.45 420.36, 702.34 423.40 C 700.24 426.45, 698.94 427.63, 696.86 429.18 C 694.79 430.73, 693.95 431.00, 691.97 431.16 C 689.99 431.31, 689.09 430.99, 686.98 429.97 C 684.87 428.94, 683.76 428.32, 681.41 426.03 C 679.05 423.74, 677.61 422.25, 675.19 418.49 C 672.77 414.74, 671.54 412.33, 669.29 407.27 C 667.03 402.21, 665.78 398.80, 663.93 393.20 C 662.08 387.61, 661.12 384.27, 660.04 379.30 C 658.95 374.33, 659.00 371.63, 658.50 368.34 C 658.01 365.04, 657.80 364.30, 657.56 362.81 C 657.31 361.31, 657.63 361.37, 657.27 360.87 C 656.90 360.36, 656.43 359.93, 655.73 360.28" style="stroke: black; fill: black;"/><path d="M 845.59,402.17 C 845.63 401.08, 845.29 399.77, 844.06 398.10 C 842.83 396.42, 841.75 395.13, 839.44 393.79 C 837.13 392.44, 835.62 391.65, 832.52 391.36 C 829.42 391.07, 827.27 391.25, 823.95 392.34 C 820.63 393.43, 818.77 394.51, 815.92 396.80 C 813.07 399.09, 811.54 400.74, 809.70 403.78 C 807.86 406.82, 807.07 408.60, 806.74 412.01 C 806.41 415.41, 806.71 417.61, 808.04 420.80 C 809.37 423.99, 810.62 425.64, 813.39 427.96 C 816.15 430.27, 818.12 431.08, 821.87 432.36 C 825.61 433.64, 827.96 434.11, 832.10 434.35 C 836.23 434.59, 838.56 434.33, 842.55 433.57 C 846.54 432.82, 848.66 432.17, 852.06 430.57 C 855.47 428.97, 857.21 427.98, 859.56 425.58 C 861.91 423.17, 862.86 421.53, 863.82 418.57 C 864.78 415.61, 864.88 413.80, 864.36 410.76 C 863.83 407.73, 863.05 405.96, 861.18 403.41 C 859.30 400.87, 857.67 399.66, 854.97 398.04 C 852.27 396.42, 850.33 395.80, 847.70 395.29 C 845.06 394.78, 843.58 395.05, 841.80 395.49 C 840.02 395.92, 839.30 396.80, 838.79 397.48 C 838.28 398.16, 838.61 398.58, 839.24 398.91 C 839.88 399.23, 840.54 398.81, 841.97 399.09 C 843.40 399.38, 844.32 399.63, 846.38 400.34 C 848.44 401.05, 850.09 401.43, 852.27 402.66 C 854.45 403.88, 855.76 404.67, 857.27 406.47 C 858.79 408.26, 859.38 409.47, 859.85 411.63 C 860.31 413.78, 860.26 415.03, 859.59 417.23 C 858.93 419.43, 858.35 420.67, 856.50 422.63 C 854.65 424.59, 853.29 425.58, 850.36 427.02 C 847.42 428.46, 845.44 429.13, 841.83 429.83 C 838.23 430.54, 836.07 430.77, 832.34 430.52 C 828.60 430.28, 826.43 429.76, 823.18 428.60 C 819.93 427.45, 818.31 426.64, 816.08 424.75 C 813.86 422.86, 813.04 421.61, 812.04 419.15 C 811.04 416.69, 810.81 415.06, 811.10 412.45 C 811.38 409.84, 811.92 408.51, 813.46 406.10 C 814.99 403.69, 816.38 402.24, 818.76 400.42 C 821.14 398.60, 822.74 397.74, 825.38 397.00 C 828.01 396.26, 829.66 396.44, 831.94 396.73 C 834.21 397.03, 835.03 397.52, 836.76 398.48 C 838.49 399.43, 839.17 400.50, 840.59 401.52 C 842.01 402.53, 842.86 403.41, 843.86 403.54 C 844.86 403.67, 845.55 403.26, 845.59 402.17" style="stroke: black; fill: black;"/><path d="M 884.52,401.26 C 883.82 402.11, 883.41 403.36, 883.16 405.53 C 882.91 407.71, 882.90 409.28, 883.26 412.13 C 883.62 414.99, 884.10 417.00, 884.96 419.81 C 885.82 422.63, 886.58 424.27, 887.56 426.20 C 888.54 428.14, 889.13 428.74, 889.86 429.48 C 890.60 430.22, 890.96 430.35, 891.25 429.92 C 891.53 429.48, 891.72 428.68, 891.31 427.30 C 890.89 425.92, 890.16 424.69, 889.18 423.02 C 888.20 421.35, 887.16 420.60, 886.40 418.95 C 885.65 417.30, 885.29 416.44, 885.41 414.79 C 885.53 413.14, 885.78 412.26, 887.02 410.69 C 888.26 409.12, 889.21 408.46, 891.62 406.96 C 894.03 405.45, 895.60 404.59, 899.05 403.17 C 902.51 401.74, 904.62 401.10, 908.88 399.84 C 913.14 398.58, 915.83 398.10, 920.35 396.87 C 924.88 395.64, 927.19 394.89, 931.49 393.70 C 935.79 392.50, 937.90 391.95, 941.86 390.89 C 945.82 389.83, 948.05 389.34, 951.29 388.39 C 954.53 387.45, 955.72 386.98, 958.06 386.18 C 960.39 385.38, 961.31 385.15, 962.96 384.41 C 964.60 383.68, 965.35 383.13, 966.29 382.51 C 967.22 381.89, 967.40 381.75, 967.62 381.30 C 967.84 380.84, 967.83 380.22, 967.38 380.25 C 966.93 380.29, 966.13 380.21, 965.36 381.46 C 964.59 382.72, 964.00 383.99, 963.55 386.52 C 963.10 389.06, 963.18 390.80, 963.10 394.12 C 963.01 397.45, 962.83 399.52, 963.12 403.14 C 963.42 406.76, 963.75 408.86, 964.58 412.22 C 965.41 415.59, 965.88 417.14, 967.29 419.95 C 968.70 422.76, 969.67 424.12, 971.62 426.27 C 973.58 428.41, 974.83 429.28, 977.06 430.68 C 979.30 432.07, 980.44 432.80, 982.80 433.25 C 985.16 433.70, 987.59 433.47, 988.86 432.93 C 990.13 432.38, 990.11 431.33, 989.15 430.52 C 988.18 429.71, 985.95 429.62, 984.03 428.86 C 982.11 428.11, 981.35 427.91, 979.56 426.75 C 977.78 425.59, 976.75 424.84, 975.12 423.07 C 973.48 421.29, 972.61 420.25, 971.38 417.87 C 970.14 415.49, 969.64 414.16, 968.93 411.17 C 968.22 408.17, 967.88 406.22, 967.82 402.89 C 967.75 399.57, 968.17 397.62, 968.59 394.56 C 969.02 391.50, 969.57 389.99, 969.94 387.59 C 970.31 385.19, 970.59 384.16, 970.45 382.57 C 970.30 380.98, 969.93 380.41, 969.21 379.64 C 968.48 378.86, 967.75 378.79, 966.82 378.69 C 965.89 378.59, 965.65 378.74, 964.57 379.14 C 963.49 379.55, 963.00 380.11, 961.42 380.71 C 959.85 381.32, 958.96 381.40, 956.69 382.17 C 954.42 382.94, 953.24 383.49, 950.08 384.57 C 946.92 385.65, 944.79 386.36, 940.90 387.55 C 937.00 388.75, 934.88 389.35, 930.61 390.57 C 926.33 391.79, 924.05 392.51, 919.51 393.67 C 914.97 394.84, 912.30 395.25, 907.92 396.39 C 903.54 397.53, 901.38 398.07, 897.62 399.37 C 893.87 400.67, 892.02 401.18, 889.15 402.87 C 886.28 404.56, 884.95 405.56, 883.27 407.82 C 881.59 410.08, 881.21 411.60, 880.75 414.16 C 880.30 416.72, 880.48 418.13, 881.01 420.62 C 881.53 423.11, 882.10 424.59, 883.38 426.59 C 884.66 428.59, 885.86 429.71, 887.41 430.63 C 888.96 431.55, 890.05 431.55, 891.13 431.19 C 892.21 430.83, 892.55 430.15, 892.82 428.82 C 893.10 427.49, 892.89 426.67, 892.51 424.54 C 892.12 422.42, 891.57 420.87, 890.91 418.18 C 890.26 415.48, 889.84 413.66, 889.24 411.07 C 888.64 408.48, 888.41 407.19, 887.89 405.23 C 887.38 403.28, 887.34 402.09, 886.67 401.29 C 885.99 400.50, 885.22 400.41, 884.52 401.26" style="stroke: black; fill: black;"/><path d="M 1043.41,415.58 C 1043.34 414.77, 1043.10 414.07, 1041.89 413.18 C 1040.68 412.28, 1039.75 411.37, 1037.36 411.10 C 1034.98 410.83, 1033.03 410.86, 1029.97 411.84 C 1026.91 412.81, 1025.17 414.12, 1022.05 415.97 C 1018.92 417.82, 1016.89 418.82, 1014.33 421.08 C 1011.76 423.35, 1010.50 424.91, 1009.21 427.30 C 1007.92 429.69, 1007.81 430.95, 1007.88 433.05 C 1007.95 435.14, 1008.19 436.23, 1009.56 437.78 C 1010.92 439.32, 1012.16 440.15, 1014.71 440.77 C 1017.26 441.39, 1019.13 441.41, 1022.31 440.87 C 1025.48 440.33, 1027.23 439.56, 1030.58 438.07 C 1033.92 436.59, 1035.85 435.75, 1039.04 433.45 C 1042.24 431.15, 1043.91 429.73, 1046.56 426.55 C 1049.20 423.38, 1050.34 421.44, 1052.27 417.57 C 1054.19 413.71, 1055.06 411.41, 1056.19 407.22 C 1057.31 403.02, 1057.68 400.46, 1057.90 396.60 C 1058.11 392.75, 1058.11 390.84, 1057.26 387.94 C 1056.41 385.04, 1055.28 383.41, 1053.65 382.10 C 1052.01 380.78, 1050.51 380.47, 1049.08 381.35 C 1047.65 382.23, 1046.79 383.74, 1046.50 386.50 C 1046.21 389.26, 1046.65 391.39, 1047.63 395.17 C 1048.62 398.94, 1049.55 401.17, 1051.41 405.35 C 1053.27 409.53, 1054.61 412.02, 1056.94 416.08 C 1059.26 420.13, 1060.67 422.08, 1063.04 425.62 C 1065.41 429.17, 1066.72 430.84, 1068.79 433.79 C 1070.86 436.73, 1071.71 438.10, 1073.38 440.35 C 1075.05 442.61, 1076.04 443.54, 1077.13 445.06 C 1078.23 446.59, 1078.39 447.09, 1078.86 447.96 C 1079.33 448.83, 1079.35 449.02, 1079.50 449.41 C 1079.65 449.80, 1079.55 449.71, 1079.61 449.89 C 1079.68 450.08, 1079.63 450.09, 1079.81 450.34 C 1079.98 450.59, 1080.16 451.02, 1080.49 451.14 C 1080.81 451.26, 1081.08 451.29, 1081.45 450.94 C 1081.82 450.58, 1082.20 450.21, 1082.33 449.37 C 1082.46 448.53, 1082.45 448.07, 1082.12 446.76 C 1081.79 445.45, 1081.70 444.65, 1080.67 442.82 C 1079.64 440.99, 1078.76 439.86, 1076.98 437.61 C 1075.21 435.35, 1074.02 434.32, 1071.80 431.54 C 1069.58 428.76, 1068.26 427.12, 1065.88 423.69 C 1063.51 420.26, 1062.11 418.36, 1059.92 414.40 C 1057.73 410.44, 1056.50 407.95, 1054.95 403.89 C 1053.41 399.83, 1052.89 397.60, 1052.19 394.11 C 1051.49 390.62, 1051.80 388.71, 1051.47 386.45 C 1051.13 384.19, 1050.58 383.25, 1050.50 382.80 C 1050.42 382.34, 1050.61 382.92, 1051.07 384.18 C 1051.52 385.45, 1052.20 386.68, 1052.79 389.14 C 1053.37 391.59, 1054.01 393.04, 1053.99 396.48 C 1053.97 399.91, 1053.67 402.40, 1052.69 406.31 C 1051.71 410.21, 1050.90 412.43, 1049.11 416.00 C 1047.32 419.57, 1046.22 421.33, 1043.75 424.16 C 1041.28 426.99, 1039.74 428.21, 1036.77 430.14 C 1033.79 432.07, 1031.94 432.74, 1028.88 433.80 C 1025.81 434.87, 1024.13 435.08, 1021.45 435.47 C 1018.76 435.86, 1017.36 435.81, 1015.46 435.76 C 1013.56 435.71, 1012.76 435.74, 1011.94 435.23 C 1011.12 434.73, 1011.11 434.33, 1011.34 433.23 C 1011.58 432.12, 1011.88 431.41, 1013.12 429.73 C 1014.36 428.05, 1015.26 426.71, 1017.53 424.85 C 1019.81 422.98, 1021.67 421.88, 1024.51 420.41 C 1027.35 418.95, 1029.19 418.27, 1031.72 417.52 C 1034.25 416.77, 1035.46 416.77, 1037.15 416.66 C 1038.84 416.54, 1039.17 416.85, 1040.18 416.96 C 1041.20 417.07, 1041.58 417.46, 1042.22 417.19 C 1042.87 416.91, 1043.48 416.38, 1043.41 415.58" style="stroke: black; fill: black;"/></svg>