<svg xmlns="http://www.w3.org/2000/svg" id="canvas" viewBox="217.289 312.530 882.929 172.520"><path d="M 265.48,316.02 C 264.74 316.76, 264.29 317.52, 263.63 320.03 C 262.97 322.54, 263.06 324.09, 262.18 328.57 C 261.31 333.04, 260.83 336.08, 259.25 342.43 C 257.67 348.77, 256.60 352.55, 254.28 360.27 C 251.96 368.00, 250.45 372.46, 247.63 381.07 C 244.81 389.68, 243.10 394.44, 240.17 403.32 C 237.25 412.20, 235.63 417.02, 233.01 425.47 C 230.39 433.91, 229.10 438.25, 227.08 445.54 C 225.05 452.84, 224.18 456.35, 222.86 461.93 C 221.54 467.52, 220.89 469.90, 220.47 473.46 C 220.05 477.01, 220.45 478.02, 220.76 479.69 C 221.07 481.37, 221.60 481.44, 222.02 481.83 C 222.43 482.21, 222.62 482.07, 222.82 481.62 C 223.01 481.17, 222.85 481.14, 222.99 479.58 C 223.13 478.02, 223.11 477.25, 223.52 473.82 C 223.94 470.39, 223.99 467.96, 225.06 462.41 C 226.13 456.85, 226.94 453.31, 228.85 446.02 C 230.76 438.73, 232.02 434.40, 234.60 425.96 C 237.17 417.52, 238.79 412.70, 241.73 403.83 C 244.67 394.97, 246.39 390.21, 249.29 381.62 C 252.18 373.03, 253.73 368.58, 256.23 360.88 C 258.72 353.18, 259.89 349.42, 261.77 343.12 C 263.65 336.81, 264.43 333.82, 265.62 329.36 C 266.81 324.90, 267.38 323.44, 267.72 320.84 C 268.07 318.23, 267.79 317.30, 267.34 316.34 C 266.89 315.37, 266.22 315.28, 265.48 316.02" style="stroke: black; fill: black;"/><path d="M 296.44,349.51 C 297.43 349.41, 298.58 347.99, 299.24 347.19 C 299.89 346.38, 299.65 345.10, 299.71 345.49 C 299.77 345.87, 299.79 346.09, 299.53 349.12 C 299.28 352.14, 299.47 354.99, 298.44 360.62 C 297.40 366.25, 296.39 370.09, 294.36 377.27 C 292.32 384.44, 290.91 388.66, 288.27 396.50 C 285.62 404.34, 283.99 408.68, 281.13 416.46 C 278.28 424.23, 276.70 428.34, 273.97 435.38 C 271.25 442.42, 269.89 445.92, 267.52 451.66 C 265.14 457.40, 264.04 460.04, 262.09 464.09 C 260.13 468.15, 259.06 469.64, 257.73 471.94 C 256.41 474.24, 256.08 474.70, 255.46 475.59 C 254.85 476.49, 254.74 476.42, 254.68 476.42 C 254.62 476.42, 254.96 476.29, 255.16 475.60 C 255.36 474.91, 255.54 474.37, 255.69 472.96 C 255.84 471.55, 255.77 470.63, 255.89 468.55 C 256.02 466.47, 256.05 465.11, 256.32 462.56 C 256.58 460.01, 256.66 458.46, 257.22 455.81 C 257.77 453.15, 258.17 451.77, 259.11 449.28 C 260.05 446.80, 260.60 445.59, 261.91 443.39 C 263.21 441.19, 263.95 440.17, 265.63 438.31 C 267.31 436.45, 268.26 435.60, 270.29 434.07 C 272.31 432.54, 273.42 431.90, 275.76 430.67 C 278.10 429.43, 279.37 428.90, 282.00 427.88 C 284.64 426.87, 286.06 426.45, 288.95 425.58 C 291.84 424.71, 293.32 424.40, 296.44 423.54 C 299.56 422.69, 301.22 422.32, 304.55 421.31 C 307.87 420.30, 309.63 419.82, 313.07 418.50 C 316.51 417.18, 318.34 416.44, 321.76 414.71 C 325.17 412.98, 326.98 411.97, 330.16 409.84 C 333.33 407.71, 334.97 406.44, 337.63 404.07 C 340.28 401.69, 341.64 400.47, 343.45 397.96 C 345.25 395.45, 345.96 393.98, 346.63 391.51 C 347.30 389.03, 347.39 387.67, 346.80 385.59 C 346.20 383.50, 345.49 382.37, 343.67 381.08 C 341.85 379.80, 340.46 379.11, 337.70 379.15 C 334.94 379.18, 333.18 379.64, 329.88 381.25 C 326.57 382.85, 324.73 384.15, 321.18 387.17 C 317.62 390.18, 315.65 392.16, 312.10 396.32 C 308.56 400.47, 306.59 403.02, 303.46 407.96 C 300.33 412.89, 298.75 415.78, 296.46 420.98 C 294.18 426.18, 293.17 429.00, 292.04 433.97 C 290.91 438.94, 290.52 441.48, 290.81 445.82 C 291.10 450.17, 291.62 452.39, 293.49 455.69 C 295.36 459.00, 296.84 460.56, 300.15 462.36 C 303.46 464.16, 305.67 464.67, 310.05 464.70 C 314.43 464.74, 316.90 464.27, 322.05 462.55 C 327.19 460.83, 330.01 459.52, 335.76 456.11 C 341.51 452.70, 344.63 450.50, 350.79 445.51 C 356.95 440.53, 360.29 437.48, 366.56 431.19 C 372.83 424.90, 376.11 421.23, 382.14 414.05 C 388.16 406.88, 391.26 402.81, 396.67 395.32 C 402.08 387.83, 404.79 383.80, 409.19 376.60 C 413.60 369.40, 415.56 365.68, 418.69 359.31 C 421.82 352.93, 423.09 349.87, 424.84 344.73 C 426.59 339.59, 427.25 337.35, 427.42 333.62 C 427.59 329.89, 427.25 328.20, 425.69 326.07 C 424.13 323.95, 422.59 322.89, 419.63 322.99 C 416.66 323.09, 414.80 323.94, 410.89 326.58 C 406.97 329.22, 404.79 331.24, 400.05 336.18 C 395.32 341.13, 392.48 344.39, 387.23 351.32 C 381.98 358.24, 378.91 362.60, 373.80 370.81 C 368.69 379.02, 365.91 383.84, 361.67 392.37 C 357.43 400.91, 355.37 405.56, 352.59 413.49 C 349.81 421.42, 348.75 425.45, 347.77 432.04 C 346.79 438.63, 346.68 441.67, 347.68 446.43 C 348.68 451.19, 349.77 453.35, 352.78 455.84 C 355.78 458.33, 358.11 458.99, 362.70 458.88 C 367.29 458.77, 370.01 457.90, 375.74 455.30 C 381.47 452.70, 384.72 450.67, 391.35 445.89 C 397.99 441.11, 401.76 437.96, 408.91 431.40 C 416.05 424.85, 419.98 420.82, 427.08 413.10 C 434.18 405.38, 437.94 400.92, 444.40 392.79 C 450.85 384.66, 454.11 380.19, 459.35 372.45 C 464.59 364.70, 466.98 360.72, 470.59 354.06 C 474.19 347.39, 475.57 344.27, 477.38 339.14 C 479.19 334.02, 479.86 331.86, 479.63 328.44 C 479.39 325.02, 478.44 323.42, 476.20 322.04 C 473.97 320.65, 472.00 320.35, 468.45 321.51 C 464.91 322.67, 462.87 324.14, 458.47 327.84 C 454.07 331.53, 451.48 334.13, 446.46 339.98 C 441.44 345.82, 438.50 349.58, 433.37 357.04 C 428.25 364.50, 425.42 368.99, 420.83 377.27 C 416.24 385.54, 413.87 390.24, 410.41 398.41 C 406.95 406.58, 405.40 410.84, 403.51 418.13 C 401.62 425.41, 401.00 428.96, 400.95 434.83 C 400.91 440.70, 401.35 443.38, 403.29 447.47 C 405.23 451.56, 406.93 453.29, 410.67 455.29 C 414.42 457.30, 416.95 457.63, 422.02 457.50 C 427.09 457.38, 430.14 456.56, 436.03 454.67 C 441.92 452.77, 445.22 451.15, 451.48 448.01 C 457.74 444.88, 461.23 442.72, 467.34 438.99 C 473.44 435.27, 476.74 433.00, 482.01 429.39 C 487.28 425.79, 489.86 423.87, 493.71 420.99 C 497.55 418.11, 499.40 417.07, 501.24 415.00 C 503.08 412.93, 503.19 411.83, 502.90 410.63 C 502.61 409.44, 501.62 408.96, 499.79 409.02 C 497.96 409.07, 496.23 409.32, 493.72 410.90 C 491.22 412.48, 489.86 414.16, 487.25 416.92 C 484.65 419.69, 483.13 421.48, 480.71 424.74 C 478.30 428.01, 476.93 429.87, 475.20 433.24 C 473.46 436.60, 472.47 438.45, 472.05 441.58 C 471.63 444.72, 471.91 446.47, 473.09 448.93 C 474.27 451.39, 475.40 452.62, 477.96 453.90 C 480.52 455.18, 482.37 455.49, 485.89 455.32 C 489.40 455.14, 491.53 454.51, 495.55 453.04 C 499.57 451.57, 501.89 450.42, 505.97 447.96 C 510.05 445.50, 512.33 443.86, 515.96 440.74 C 519.59 437.63, 521.49 435.80, 524.12 432.37 C 526.75 428.94, 527.91 427.04, 529.13 423.59 C 530.36 420.14, 530.67 418.24, 530.23 415.12 C 529.79 412.00, 528.87 410.36, 526.92 407.99 C 524.97 405.63, 523.36 404.59, 520.48 403.30 C 517.60 402.00, 515.65 401.66, 512.52 401.54 C 509.40 401.42, 507.50 401.74, 504.86 402.70 C 502.21 403.66, 500.72 404.57, 499.29 406.34 C 497.86 408.11, 497.36 409.55, 497.69 411.56 C 498.02 413.57, 498.68 415.00, 500.94 416.40 C 503.21 417.80, 505.10 418.17, 509.00 418.57 C 512.89 418.96, 515.35 418.76, 520.42 418.37 C 525.49 417.99, 528.53 417.52, 534.35 416.64 C 540.16 415.77, 543.52 415.12, 549.50 414.00 C 555.48 412.88, 558.71 412.17, 564.24 411.05 C 569.78 409.93, 572.80 409.27, 577.16 408.39 C 581.53 407.52, 583.38 407.41, 586.09 406.67 C 588.79 405.92, 589.83 405.34, 590.70 404.68 C 591.56 404.01, 591.47 403.59, 590.41 403.33 C 589.35 403.08, 588.18 402.97, 585.40 403.38 C 582.62 403.80, 580.85 404.38, 576.51 405.39 C 572.17 406.40, 569.19 407.24, 563.69 408.45 C 558.20 409.66, 554.97 410.38, 549.03 411.46 C 543.08 412.54, 539.72 413.15, 533.97 413.85 C 528.21 414.56, 525.15 414.90, 520.26 414.98 C 515.37 415.05, 512.99 414.74, 509.53 414.23 C 506.07 413.73, 504.72 413.10, 502.95 412.45 C 501.18 411.80, 500.84 411.63, 500.67 410.99 C 500.50 410.36, 500.95 409.95, 502.09 409.27 C 503.23 408.59, 504.31 408.07, 506.36 407.58 C 508.41 407.09, 509.91 406.76, 512.35 406.83 C 514.80 406.89, 516.34 407.08, 518.60 407.89 C 520.86 408.70, 522.13 409.30, 523.64 410.87 C 525.15 412.44, 525.77 413.44, 526.16 415.74 C 526.55 418.04, 526.54 419.46, 525.58 422.37 C 524.63 425.29, 523.75 427.14, 521.39 430.31 C 519.04 433.48, 517.25 435.30, 513.81 438.23 C 510.38 441.16, 508.12 442.75, 504.21 444.97 C 500.31 447.19, 497.99 448.16, 494.28 449.34 C 490.57 450.51, 488.58 450.68, 485.66 450.83 C 482.74 450.98, 481.49 450.79, 479.67 450.10 C 477.85 449.41, 477.19 448.93, 476.55 447.37 C 475.91 445.80, 475.99 444.74, 476.46 442.29 C 476.93 439.84, 477.38 438.12, 478.90 435.13 C 480.42 432.14, 481.69 430.25, 484.05 427.32 C 486.42 424.39, 488.09 422.80, 490.71 420.48 C 493.34 418.16, 495.14 417.42, 497.19 415.71 C 499.24 414.01, 500.06 413.01, 500.97 411.96 C 501.88 410.92, 502.18 410.40, 501.74 410.49 C 501.29 410.59, 500.69 410.79, 498.74 412.45 C 496.79 414.11, 495.59 415.79, 491.97 418.80 C 488.36 421.80, 485.84 423.82, 480.68 427.48 C 475.52 431.15, 472.24 433.42, 466.19 437.12 C 460.15 440.81, 456.65 442.93, 450.46 445.95 C 444.28 448.98, 440.97 450.48, 435.26 452.24 C 429.56 453.99, 426.61 454.61, 421.95 454.72 C 417.29 454.84, 415.24 454.50, 411.96 452.83 C 408.68 451.16, 407.32 449.98, 405.55 446.38 C 403.77 442.78, 403.13 440.39, 403.08 434.83 C 403.03 429.27, 403.51 425.73, 405.28 418.57 C 407.05 411.42, 408.55 407.16, 411.95 399.06 C 415.35 390.96, 417.70 386.27, 422.28 378.08 C 426.87 369.88, 429.71 365.41, 434.87 358.09 C 440.04 350.76, 443.04 347.05, 448.12 341.44 C 453.20 335.84, 455.97 333.39, 460.27 330.06 C 464.57 326.72, 466.70 325.92, 469.62 324.77 C 472.54 323.63, 473.43 323.56, 474.85 324.33 C 476.27 325.09, 476.63 325.77, 476.71 328.59 C 476.79 331.41, 476.80 333.51, 475.26 338.44 C 473.73 343.36, 472.46 346.60, 469.02 353.23 C 465.59 359.86, 463.23 363.86, 458.08 371.59 C 452.92 379.32, 449.68 383.79, 443.26 391.88 C 436.84 399.98, 433.07 404.43, 425.98 412.09 C 418.88 419.74, 414.94 423.73, 407.78 430.17 C 400.63 436.61, 396.81 439.68, 390.20 444.26 C 383.60 448.85, 380.27 450.71, 374.75 453.08 C 369.24 455.46, 366.68 456.00, 362.63 456.13 C 358.57 456.26, 357.02 455.78, 354.50 453.74 C 351.97 451.70, 350.94 450.22, 349.98 445.93 C 349.02 441.65, 348.86 438.69, 349.71 432.31 C 350.55 425.93, 351.51 421.89, 354.20 414.05 C 356.88 406.20, 358.91 401.56, 363.11 393.09 C 367.32 384.62, 370.10 379.82, 375.23 371.71 C 380.36 363.59, 383.45 359.26, 388.77 352.51 C 394.09 345.75, 397.04 342.57, 401.82 337.93 C 406.60 333.29, 409.05 331.58, 412.67 329.29 C 416.28 327.01, 417.78 326.82, 419.91 326.50 C 422.05 326.18, 422.45 326.32, 423.34 327.71 C 424.24 329.11, 424.54 330.22, 424.40 333.48 C 424.25 336.74, 424.10 339.02, 422.61 344.02 C 421.13 349.02, 419.94 352.14, 416.96 358.48 C 413.99 364.82, 412.06 368.54, 407.74 375.72 C 403.42 382.90, 400.74 386.92, 395.36 394.38 C 389.99 401.84, 386.90 405.89, 380.89 413.01 C 374.88 420.12, 371.59 423.76, 365.32 429.95 C 359.06 436.14, 355.70 439.13, 349.55 443.96 C 343.41 448.78, 340.26 450.90, 334.59 454.07 C 328.91 457.25, 326.09 458.39, 321.19 459.86 C 316.29 461.33, 313.98 461.54, 310.11 461.42 C 306.24 461.31, 304.56 460.77, 301.82 459.29 C 299.09 457.80, 298.02 456.75, 296.43 454.01 C 294.84 451.28, 294.21 449.48, 293.87 445.59 C 293.54 441.70, 293.76 439.28, 294.76 434.57 C 295.77 429.86, 296.70 427.08, 298.90 422.05 C 301.10 417.02, 302.66 414.18, 305.75 409.43 C 308.85 404.68, 310.83 402.20, 314.37 398.31 C 317.90 394.42, 319.95 392.57, 323.42 389.99 C 326.90 387.41, 328.85 386.61, 331.76 385.40 C 334.66 384.19, 335.97 384.16, 337.94 383.96 C 339.92 383.75, 340.58 383.87, 341.62 384.37 C 342.67 384.86, 343.00 385.29, 343.18 386.45 C 343.36 387.61, 343.22 388.41, 342.52 390.17 C 341.81 391.93, 341.20 393.08, 339.65 395.24 C 338.11 397.41, 337.13 398.74, 334.78 401.00 C 332.44 403.27, 330.89 404.53, 327.93 406.56 C 324.97 408.60, 323.24 409.57, 319.99 411.20 C 316.73 412.83, 314.98 413.50, 311.65 414.71 C 308.33 415.91, 306.63 416.34, 303.37 417.24 C 300.10 418.15, 298.46 418.46, 295.32 419.22 C 292.18 419.99, 290.67 420.25, 287.66 421.07 C 284.66 421.88, 283.14 422.26, 280.29 423.29 C 277.44 424.32, 276.02 424.84, 273.41 426.20 C 270.81 427.57, 269.56 428.36, 267.27 430.12 C 264.98 431.88, 263.89 432.88, 261.97 435.02 C 260.04 437.15, 259.20 438.34, 257.67 440.81 C 256.13 443.28, 255.47 444.62, 254.31 447.36 C 253.16 450.11, 252.66 451.64, 251.89 454.53 C 251.12 457.41, 250.87 459.05, 250.45 461.79 C 250.02 464.54, 249.84 465.92, 249.75 468.26 C 249.67 470.60, 249.58 471.76, 250.02 473.50 C 250.46 475.24, 251.07 476.03, 251.97 476.96 C 252.86 477.90, 253.44 478.04, 254.50 478.16 C 255.56 478.27, 255.98 478.41, 257.27 477.54 C 258.56 476.67, 259.48 476.29, 260.94 473.82 C 262.40 471.35, 262.85 469.46, 264.57 465.19 C 266.28 460.92, 267.29 458.29, 269.53 452.46 C 271.76 446.64, 273.09 443.13, 275.75 436.06 C 278.42 428.99, 279.98 424.88, 282.86 417.09 C 285.73 409.30, 287.36 404.96, 290.11 397.13 C 292.86 389.30, 294.34 385.11, 296.61 377.94 C 298.88 370.77, 300.03 367.02, 301.48 361.29 C 302.94 355.55, 303.90 352.78, 303.88 349.28 C 303.87 345.77, 302.86 344.85, 301.41 343.75 C 299.96 342.66, 298.08 343.02, 296.65 343.81 C 295.22 344.59, 294.31 346.55, 294.27 347.69 C 294.22 348.83, 295.44 349.61, 296.44 349.51" style="stroke: black; fill: black;"/><path d="M 693.46,350.52 C 692.78 350.80, 692.44 350.89, 691.62 352.45 C 690.81 354.00, 690.50 354.94, 689.37 358.30 C 688.23 361.67, 687.83 364.09, 685.94 369.28 C 684.04 374.47, 682.69 377.88, 679.88 384.25 C 677.07 390.63, 675.15 394.41, 671.88 401.13 C 668.61 407.85, 666.58 411.58, 663.53 417.85 C 660.47 424.11, 658.81 427.36, 656.61 432.46 C 654.42 437.55, 653.18 439.81, 652.54 443.31 C 651.91 446.81, 652.12 448.34, 653.43 449.96 C 654.75 451.58, 656.34 452.10, 659.14 451.42 C 661.93 450.74, 663.64 449.28, 667.42 446.55 C 671.20 443.81, 673.46 441.68, 678.06 437.74 C 682.65 433.80, 685.43 431.14, 690.38 426.83 C 695.34 422.53, 698.38 419.75, 702.82 416.20 C 707.26 412.65, 709.73 410.94, 712.59 409.06 C 715.45 407.18, 716.25 406.68, 717.12 406.78 C 717.98 406.89, 717.42 407.47, 716.91 409.61 C 716.41 411.74, 715.63 413.79, 714.59 417.44 C 713.55 421.09, 712.69 423.79, 711.72 427.87 C 710.75 431.95, 710.04 434.23, 709.75 437.85 C 709.46 441.48, 709.26 443.35, 710.25 445.99 C 711.25 448.63, 712.32 449.95, 714.73 451.04 C 717.14 452.13, 718.92 452.33, 722.30 451.43 C 725.68 450.52, 727.60 449.29, 731.62 446.53 C 735.65 443.77, 737.96 441.88, 742.42 437.63 C 746.89 433.39, 749.41 430.67, 753.96 425.32 C 758.51 419.96, 760.99 416.75, 765.17 410.84 C 769.35 404.93, 771.51 401.63, 774.87 395.77 C 778.23 389.91, 779.76 386.84, 781.95 381.55 C 784.14 376.26, 784.93 373.72, 785.84 369.31 C 786.75 364.91, 786.90 362.90, 786.51 359.54 C 786.12 356.17, 785.41 354.67, 783.90 352.48 C 782.39 350.28, 780.99 349.47, 778.95 348.57 C 776.91 347.67, 775.45 347.80, 773.68 347.98 C 771.90 348.17, 771.05 348.75, 770.07 349.51 C 769.09 350.26, 768.84 351.05, 768.78 351.74 C 768.73 352.43, 769.23 352.77, 769.79 352.96 C 770.35 353.14, 770.71 352.78, 771.57 352.66 C 772.42 352.53, 772.88 352.42, 774.06 352.35 C 775.24 352.28, 776.11 351.85, 777.45 352.31 C 778.80 352.77, 779.69 353.11, 780.80 354.65 C 781.90 356.19, 782.52 357.18, 782.97 360.01 C 783.41 362.85, 783.69 364.67, 783.04 368.80 C 782.39 372.93, 781.73 375.48, 779.72 380.65 C 777.71 385.83, 776.23 388.90, 772.97 394.69 C 769.71 400.48, 767.57 403.77, 763.42 409.59 C 759.26 415.41, 756.78 418.60, 752.21 423.80 C 747.64 429.01, 745.07 431.65, 740.58 435.63 C 736.10 439.60, 733.66 441.31, 729.77 443.67 C 725.89 446.03, 723.91 446.59, 721.16 447.43 C 718.41 448.28, 717.49 448.41, 716.03 447.89 C 714.58 447.38, 714.30 446.79, 713.89 444.86 C 713.47 442.94, 713.55 441.48, 713.96 438.29 C 714.37 435.10, 714.95 432.85, 715.94 428.91 C 716.94 424.97, 718.02 422.41, 718.96 418.59 C 719.89 414.77, 720.86 412.53, 720.60 409.79 C 720.34 407.06, 719.59 405.61, 717.66 404.91 C 715.72 404.22, 714.25 404.48, 710.94 406.31 C 707.62 408.15, 705.54 410.37, 701.09 414.08 C 696.64 417.79, 693.66 420.59, 688.68 424.86 C 683.70 429.14, 680.84 431.72, 676.17 435.47 C 671.50 439.22, 669.00 441.11, 665.35 443.61 C 661.70 446.10, 659.96 446.92, 657.91 447.95 C 655.85 448.98, 655.53 449.55, 655.08 448.76 C 654.62 447.96, 654.85 447.04, 655.63 443.97 C 656.40 440.91, 656.96 438.45, 658.93 433.41 C 660.91 428.38, 662.52 425.06, 665.50 418.79 C 668.48 412.53, 670.51 408.80, 673.84 402.09 C 677.16 395.39, 679.12 391.61, 682.13 385.29 C 685.15 378.96, 686.60 375.58, 688.90 370.49 C 691.21 365.40, 692.36 363.21, 693.65 359.84 C 694.93 356.48, 695.05 355.42, 695.32 353.66 C 695.59 351.90, 695.38 351.66, 695.01 351.04 C 694.64 350.41, 694.14 350.23, 693.46 350.52" style="stroke: black; fill: black;"/><path d="M 819.26,414.86 C 820.15 414.42, 820.89 413.52, 821.47 412.02 C 822.05 410.53, 822.39 409.32, 822.17 407.40 C 821.94 405.48, 821.59 404.02, 820.33 402.43 C 819.07 400.83, 818.09 400.05, 815.86 399.42 C 813.63 398.78, 812.09 398.48, 809.16 399.24 C 806.23 400.00, 804.58 401.01, 801.21 403.23 C 797.83 405.46, 795.78 407.03, 792.29 410.36 C 788.80 413.69, 786.80 415.90, 783.75 419.88 C 780.71 423.87, 779.11 426.23, 777.06 430.28 C 775.00 434.33, 774.04 436.50, 773.50 440.12 C 772.96 443.74, 773.12 445.67, 774.37 448.38 C 775.62 451.08, 776.99 452.41, 779.74 453.64 C 782.50 454.88, 784.51 455.00, 788.15 454.56 C 791.80 454.11, 793.96 453.27, 797.96 451.41 C 801.97 449.55, 804.26 448.13, 808.19 445.27 C 812.13 442.41, 814.24 440.53, 817.66 437.13 C 821.07 433.73, 822.71 431.70, 825.28 428.27 C 827.84 424.85, 828.99 423.02, 830.49 420.01 C 831.99 416.99, 832.38 415.45, 832.79 413.21 C 833.19 410.97, 832.88 409.93, 832.52 408.79 C 832.16 407.65, 831.40 407.41, 831.00 407.52 C 830.59 407.62, 830.08 408.41, 830.50 409.32 C 830.92 410.23, 831.43 411.08, 833.10 412.08 C 834.76 413.07, 836.06 413.64, 838.83 414.29 C 841.60 414.94, 843.47 414.94, 846.95 415.31 C 850.44 415.69, 852.50 415.82, 856.25 416.16 C 860.01 416.51, 862.17 416.60, 865.73 417.03 C 869.29 417.45, 871.35 417.64, 874.05 418.29 C 876.75 418.94, 877.93 419.15, 879.22 420.29 C 880.51 421.43, 880.68 422.07, 880.52 423.98 C 880.36 425.89, 879.85 427.16, 878.42 429.84 C 877.00 432.52, 875.72 434.45, 873.38 437.36 C 871.04 440.28, 869.13 441.98, 866.73 444.42 C 864.34 446.86, 862.76 447.98, 861.39 449.56 C 860.02 451.13, 859.74 451.94, 859.88 452.29 C 860.02 452.64, 860.74 452.59, 862.09 451.30 C 863.44 450.01, 864.38 448.58, 866.64 445.83 C 868.90 443.07, 870.29 440.94, 873.40 437.53 C 876.51 434.12, 878.46 432.14, 882.19 428.79 C 885.92 425.45, 888.05 423.76, 892.04 420.81 C 896.03 417.86, 898.16 416.48, 902.15 414.06 C 906.13 411.64, 908.15 410.62, 911.95 408.70 C 915.74 406.79, 917.54 406.04, 921.13 404.48 C 924.72 402.91, 926.42 402.30, 929.89 400.89 C 933.35 399.48, 935.06 398.93, 938.44 397.45 C 941.82 395.97, 943.49 395.25, 946.80 393.49 C 950.10 391.73, 951.73 390.84, 954.97 388.65 C 958.22 386.45, 959.89 385.21, 963.04 382.53 C 966.18 379.85, 967.76 378.31, 970.69 375.24 C 973.62 372.18, 975.12 370.45, 977.69 367.21 C 980.26 363.97, 981.53 362.22, 983.53 359.04 C 985.54 355.87, 986.60 354.26, 987.72 351.34 C 988.84 348.41, 989.18 346.89, 989.15 344.43 C 989.12 341.96, 988.80 340.70, 987.57 339.01 C 986.35 337.31, 985.29 336.47, 983.02 335.97 C 980.74 335.47, 979.15 335.36, 976.20 336.50 C 973.24 337.65, 971.74 338.93, 968.24 341.70 C 964.74 344.46, 962.75 346.17, 958.70 350.32 C 954.66 354.46, 952.35 357.05, 948.01 362.42 C 943.66 367.78, 941.19 370.98, 937.00 377.13 C 932.80 383.28, 930.55 386.74, 927.01 393.16 C 923.48 399.59, 921.77 403.10, 919.31 409.27 C 916.85 415.45, 915.77 418.60, 914.71 424.04 C 913.64 429.48, 913.44 432.08, 913.99 436.47 C 914.53 440.86, 915.26 442.91, 917.44 445.99 C 919.63 449.06, 921.34 450.31, 924.92 451.85 C 928.50 453.39, 930.79 453.63, 935.34 453.68 C 939.88 453.73, 942.49 453.26, 947.63 452.12 C 952.76 450.98, 955.57 449.94, 961.02 447.98 C 966.48 446.02, 969.50 444.68, 974.90 442.33 C 980.30 439.97, 983.19 438.56, 988.03 436.21 C 992.88 433.85, 995.23 432.54, 999.12 430.56 C 1003.01 428.57, 1004.91 427.86, 1007.47 426.28 C 1010.03 424.69, 1010.90 423.93, 1011.94 422.63 C 1012.98 421.32, 1013.00 420.69, 1012.67 419.76 C 1012.34 418.84, 1011.68 418.28, 1010.27 417.98 C 1008.87 417.68, 1007.75 417.66, 1005.65 418.27 C 1003.55 418.88, 1002.22 419.50, 999.78 421.03 C 997.33 422.56, 996.00 423.76, 993.43 425.93 C 990.85 428.11, 989.39 429.39, 986.91 431.92 C 984.43 434.45, 983.07 435.88, 981.03 438.57 C 978.99 441.25, 977.82 442.69, 976.71 445.34 C 975.60 447.98, 975.31 449.49, 975.49 451.77 C 975.66 454.06, 976.10 455.31, 977.59 456.78 C 979.09 458.25, 980.36 459.02, 982.98 459.14 C 985.60 459.25, 987.28 458.82, 990.69 457.35 C 994.10 455.88, 995.96 454.62, 1000.04 451.78 C 1004.12 448.94, 1006.45 447.10, 1011.09 443.14 C 1015.73 439.18, 1018.35 436.80, 1023.25 431.96 C 1028.14 427.12, 1030.77 424.30, 1035.58 418.92 C 1040.39 413.55, 1042.86 410.57, 1047.28 405.10 C 1051.71 399.62, 1053.91 396.71, 1057.71 391.55 C 1061.50 386.38, 1063.26 383.76, 1066.24 379.28 C 1069.21 374.80, 1070.62 372.72, 1072.57 369.14 C 1074.52 365.57, 1075.65 363.74, 1076.00 361.39 C 1076.34 359.04, 1075.70 357.75, 1074.31 357.39 C 1072.93 357.04, 1071.41 357.34, 1069.09 359.60 C 1066.76 361.86, 1065.65 364.10, 1062.69 368.67 C 1059.73 373.24, 1057.76 376.42, 1054.29 382.46 C 1050.82 388.49, 1048.66 392.17, 1045.33 398.85 C 1042.00 405.52, 1040.21 409.19, 1037.64 415.84 C 1035.07 422.48, 1033.84 425.94, 1032.48 432.06 C 1031.11 438.19, 1030.66 441.18, 1030.83 446.46 C 1030.99 451.74, 1031.48 454.25, 1033.30 458.45 C 1035.12 462.64, 1036.53 464.58, 1039.92 467.45 C 1043.30 470.32, 1045.63 471.32, 1050.23 472.79 C 1054.82 474.26, 1057.59 474.57, 1062.91 474.79 C 1068.22 475.01, 1071.64 474.49, 1076.79 473.88 C 1081.94 473.28, 1084.74 472.72, 1088.63 471.77 C 1092.53 470.82, 1094.83 470.02, 1096.27 469.14 C 1097.71 468.27, 1097.47 467.48, 1095.82 467.40 C 1094.17 467.32, 1091.88 468.07, 1088.00 468.76 C 1084.12 469.44, 1081.42 470.19, 1076.42 470.80 C 1071.42 471.41, 1068.08 471.99, 1063.02 471.82 C 1057.96 471.65, 1055.37 471.28, 1051.12 469.95 C 1046.88 468.63, 1044.87 467.71, 1041.81 465.19 C 1038.75 462.66, 1037.52 461.10, 1035.81 457.33 C 1034.11 453.57, 1033.52 451.32, 1033.28 446.36 C 1033.05 441.40, 1033.38 438.49, 1034.64 432.53 C 1035.90 426.58, 1037.07 423.13, 1039.60 416.59 C 1042.13 410.05, 1043.90 406.40, 1047.28 399.83 C 1050.66 393.27, 1052.87 389.63, 1056.50 383.78 C 1060.13 377.92, 1062.30 374.85, 1065.44 370.56 C 1068.57 366.27, 1070.41 364.73, 1072.19 362.35 C 1073.97 359.96, 1074.19 359.03, 1074.33 358.65 C 1074.48 358.27, 1073.84 358.64, 1072.91 360.44 C 1071.99 362.24, 1071.47 364.15, 1069.71 367.64 C 1067.95 371.14, 1066.87 373.40, 1064.10 377.92 C 1061.34 382.44, 1059.60 385.07, 1055.91 390.25 C 1052.21 395.42, 1050.03 398.33, 1045.65 403.78 C 1041.27 409.23, 1038.80 412.20, 1034.00 417.50 C 1029.20 422.81, 1026.56 425.59, 1021.64 430.31 C 1016.71 435.02, 1014.07 437.34, 1009.38 441.06 C 1004.69 444.79, 1002.28 446.50, 998.21 448.94 C 994.13 451.37, 992.09 452.08, 989.02 453.23 C 985.96 454.39, 984.71 454.47, 982.87 454.69 C 981.04 454.92, 980.55 454.92, 979.84 454.35 C 979.14 453.79, 979.11 453.25, 979.35 451.85 C 979.60 450.45, 980.00 449.45, 981.08 447.36 C 982.16 445.26, 982.94 443.81, 984.76 441.37 C 986.57 438.94, 987.81 437.47, 990.16 435.19 C 992.51 432.91, 993.97 431.71, 996.52 429.96 C 999.07 428.20, 1000.61 427.64, 1002.91 426.41 C 1005.21 425.17, 1006.37 424.77, 1008.00 423.79 C 1009.63 422.81, 1010.30 422.28, 1011.05 421.51 C 1011.79 420.74, 1011.93 420.19, 1011.72 419.94 C 1011.51 419.69, 1011.28 419.67, 1010.01 420.25 C 1008.73 420.82, 1007.82 421.31, 1005.34 422.82 C 1002.87 424.33, 1001.32 425.62, 997.61 427.81 C 993.91 430.00, 991.57 431.34, 986.82 433.76 C 982.06 436.19, 979.19 437.60, 973.85 439.93 C 968.51 442.26, 965.49 443.56, 960.12 445.42 C 954.75 447.27, 951.95 448.20, 947.01 449.20 C 942.06 450.19, 939.55 450.49, 935.39 450.39 C 931.24 450.30, 929.31 449.97, 926.24 448.71 C 923.16 447.45, 921.92 446.63, 920.03 444.10 C 918.14 441.58, 917.36 440.01, 916.77 436.09 C 916.18 432.17, 916.17 429.69, 917.08 424.49 C 917.99 419.28, 918.97 416.13, 921.32 410.06 C 923.67 403.99, 925.33 400.50, 928.81 394.16 C 932.30 387.81, 934.54 384.37, 938.74 378.33 C 942.95 372.28, 945.44 369.12, 949.83 363.93 C 954.23 358.74, 956.59 356.21, 960.71 352.37 C 964.83 348.53, 966.97 346.99, 970.43 344.73 C 973.89 342.48, 975.59 342.09, 978.01 341.11 C 980.43 340.14, 981.17 339.90, 982.53 339.86 C 983.88 339.82, 984.26 340.03, 984.78 340.91 C 985.29 341.78, 985.35 342.45, 985.10 344.22 C 984.86 345.99, 984.52 347.17, 983.54 349.73 C 982.56 352.30, 981.94 353.98, 980.20 357.03 C 978.46 360.09, 977.25 361.84, 974.84 364.99 C 972.42 368.14, 970.95 369.83, 968.13 372.79 C 965.30 375.75, 963.75 377.23, 960.71 379.78 C 957.67 382.34, 956.06 383.50, 952.92 385.58 C 949.78 387.65, 948.23 388.48, 945.03 390.17 C 941.83 391.86, 940.24 392.55, 936.93 394.03 C 933.62 395.51, 931.94 396.10, 928.50 397.58 C 925.07 399.05, 923.35 399.74, 919.75 401.40 C 916.15 403.06, 914.33 403.88, 910.50 405.90 C 906.67 407.92, 904.62 409.00, 900.58 411.51 C 896.54 414.01, 894.38 415.45, 890.29 418.42 C 886.20 421.40, 884.04 423.12, 880.12 426.40 C 876.19 429.68, 874.10 431.57, 870.66 434.85 C 867.22 438.12, 865.30 439.88, 862.92 442.77 C 860.54 445.65, 859.43 447.19, 858.74 449.28 C 858.06 451.37, 858.46 452.49, 859.50 453.21 C 860.54 453.93, 861.83 453.98, 863.94 452.88 C 866.05 451.79, 867.47 450.29, 870.05 447.74 C 872.64 445.19, 874.37 443.30, 876.86 440.13 C 879.35 436.96, 880.98 435.12, 882.52 431.90 C 884.06 428.67, 884.67 426.86, 884.54 424.01 C 884.41 421.15, 883.74 419.63, 881.88 417.63 C 880.02 415.62, 878.37 414.92, 875.24 413.96 C 872.11 413.01, 869.92 413.25, 866.22 412.83 C 862.52 412.42, 860.42 412.37, 856.73 411.89 C 853.04 411.41, 851.02 411.17, 847.77 410.42 C 844.53 409.66, 842.98 408.88, 840.49 408.12 C 837.99 407.35, 836.99 406.95, 835.31 406.59 C 833.64 406.23, 833.12 406.20, 832.10 406.34 C 831.08 406.48, 830.72 406.77, 830.20 407.29 C 829.68 407.81, 829.77 407.91, 829.50 408.92 C 829.23 409.92, 829.39 410.44, 828.85 412.31 C 828.32 414.18, 828.11 415.47, 826.84 418.26 C 825.56 421.05, 824.78 422.94, 822.48 426.26 C 820.19 429.57, 818.61 431.58, 815.36 434.83 C 812.11 438.08, 810.02 439.88, 806.24 442.51 C 802.45 445.14, 800.16 446.39, 796.44 447.97 C 792.72 449.54, 790.66 449.99, 787.63 450.38 C 784.59 450.78, 783.24 450.65, 781.26 449.94 C 779.28 449.23, 778.56 448.70, 777.74 446.85 C 776.92 445.00, 776.70 443.69, 777.16 440.67 C 777.62 437.66, 778.22 435.53, 780.06 431.78 C 781.90 428.02, 783.43 425.65, 786.36 421.90 C 789.29 418.14, 791.30 416.00, 794.72 413.00 C 798.13 410.01, 800.28 408.66, 803.44 406.92 C 806.61 405.19, 808.24 404.97, 810.54 404.32 C 812.83 403.67, 813.72 403.56, 814.93 403.67 C 816.14 403.79, 816.26 404.07, 816.59 404.89 C 816.92 405.71, 816.59 406.52, 816.57 407.77 C 816.56 409.03, 816.41 409.87, 816.51 411.16 C 816.61 412.46, 816.51 413.50, 817.06 414.24 C 817.61 414.98, 818.38 415.31, 819.26 414.86" style="stroke: black; fill: black;"/></svg>